<?xml version="1.0" standalone="no"?>
<!DOCTYPE svg PUBLIC "-//W3C//DTD SVG 1.1//EN" "http://www.w3.org/Graphics/SVG/1.1/DTD/svg11.dtd" >
<svg>
<metadata>
Created by FontForge 20090622 at Fri Nov 24 11:16:34 2017
 By deploy user
Copyright (c) 2017 by Supercell. All rights reserved.
</metadata>
<defs>
<font id="Supercell-Magic" horiz-adv-x="704" >
  <font-face 
    font-family="Supercell-Magic"
    font-weight="400"
    font-stretch="normal"
    units-per-em="1000"
    panose-1="0 0 0 0 0 0 0 0 0 0"
    ascent="800"
    descent="-200"
    x-height="614.5"
    cap-height="774.5"
    bbox="-177.818 -252.333 1542 961.75"
    underline-thickness="20"
    underline-position="-133"
    unicode-range="U+000D-U+FB05"
  />
<missing-glyph horiz-adv-x="500" 
d="M63 0v800h375v-800h-375v0zM125 63h250v675h-250v-675v0z" />
    <glyph glyph-name=".notdef" horiz-adv-x="500" 
d="M63 0v800h375v-800h-375v0zM125 63h250v675h-250v-675v0z" />
    <glyph glyph-name="_1" horiz-adv-x="0" 
 />
    <glyph glyph-name="nonmarkingreturn" unicode="&#xd;" horiz-adv-x="0" 
 />
    <glyph glyph-name="NULL" horiz-adv-x="0" 
 />
    <glyph glyph-name="NULL" horiz-adv-x="0" 
 />
    <glyph glyph-name="DLE" horiz-adv-x="2112" 
 />
    <glyph glyph-name="space" unicode=" " horiz-adv-x="323" 
 />
    <glyph glyph-name="exclam" unicode="!" horiz-adv-x="354" 
d="M312 773l-23 -159.5l-20 -145l-15.5 -117t-9.5 -77.5q-11 -2 -34.5 -5.5t-49 -5.5t-48.5 -3t-32 1q-8 133 -6.5 262t1.5 258q63 8 124 10t113 -18zM268 -3q-5 -10 -22 -18.5t-40 -14t-48.5 -8t-48 -1.5t-38.5 5.5t-21 12.5q-5 9 -6 23.5t-0.5 31t2.5 32t4 25.5
q3 15 16 26.5t29.5 19t33.5 12t28 6.5q9 2 21.5 0.5t25 -4.5t24.5 -8l21 -9q11 -30 17.5 -63.5t1.5 -67.5z" />
    <glyph glyph-name="quotedbl" unicode="&#x22;" horiz-adv-x="462" 
d="M209 765v-82.5t-1.5 -81t-5 -75t-9.5 -62.5q-20 -11 -48 -18.5t-53 -4.5q-2 37 -8 78.5t-13.5 81t-15 74l-12.5 58.5q80 52 166 32zM434 744l-14.5 -79.5t-15.5 -79t-17 -72t-20 -59.5q-23 -8 -52.5 -12.5t-54.5 0.5q4 36 5 77t0 80t-2.5 73.5l-2.5 58.5q90 42 174 13z
" />
    <glyph glyph-name="numbersign" unicode="#" horiz-adv-x="578" 
d="M540 150q-11 -2 -29 -2.5t-39 -2.5l-2 -70.5l-2 -65.5q-35 -12 -70 -9.5t-70 3.5q0 33 0.5 66.5t0.5 66.5q-19 -1 -38.5 -1.5t-38.5 -2.5l-2 -50l-2 -50q-7 -6 -26 -9.5t-41 -5.5t-42 -2.5t-29 1.5q-1 25 -1.5 51.5t-1.5 53.5l-29.5 -3.5t-21.5 -3.5q-4 24 -5 52t0 54.5
t3.5 49.5t5.5 37q6 1 17 1t28 2q0 17 0.5 34.5t0.5 34.5l-35.5 -3.5t-25.5 -3.5q-4 24 -5 52t0 54t3.5 49t5.5 37q7 1 22 2t37 3q1 37 1.5 71t1.5 66q36 11 79 13.5t78 1.5q0 -35 -0.5 -71t-1.5 -72q15 1 30.5 1.5t30.5 1.5q1 38 1.5 74.5t2.5 74.5q7 6 27 10t43.5 6.5
t44.5 2.5t30 -1q1 -38 1.5 -79t0.5 -84h31t19 -1l2.5 -38.5t1.5 -49.5t-0.5 -49.5t-2.5 -38.5q-8 -1 -22.5 -2l-29.5 -2q0 -20 -0.5 -38.5t-0.5 -37.5h39t24 -2l2.5 -38.5t1.5 -49.5t-0.5 -49.5t-2.5 -38.5zM327 323v72l-66 -4q-1 -18 -1 -36t-1 -36l34 2z" />
    <glyph glyph-name="dollar" unicode="$" horiz-adv-x="650" 
d="M606 410q9 -23 10 -56t-4 -67.5t-16 -65.5t-27 -49l-61 -25t-67 -20q-2 -42 -4 -79t-12 -74q-13 -4 -37.5 -8t-52 -6t-53 -2.5t-39.5 3.5q-1 44 -1.5 76t-2.5 60q-22 -3 -40.5 -6t-35.5 -5.5t-35 -4.5t-38 -4q-7 9 -12.5 28t-9.5 39.5t-5.5 39t-0.5 26.5q27 3 62 8.5
t69 11.5t62.5 12.5t40.5 12.5q4 2 9 5.5t10 8t8 9.5t2 8q-2 10 -9 15.5t-16.5 8t-21 3.5t-21.5 2q-19 2 -46 2t-57 0.5t-60.5 2.5t-54.5 9q0 32 2.5 69t9 74t18 72t28.5 65q24 7 53 14t75 14q0 26 -1 47t-2 39l-2 35l-2 35q25 10 54 17t58.5 10.5t58 3.5t52.5 -3
q-8 -49 -10 -89.5t-6 -76.5q53 5 87.5 7.5t64.5 1.5q1 -8 3.5 -23t4.5 -33.5t3 -37t-1 -31.5q-28 -2 -63.5 -5t-72 -7t-70.5 -8.5t-58 -10.5q-7 -2 -13 -10.5t-9 -18.5t-2 -18.5t9 -9.5q23 -4 64 -10l85 -12t85 -11z" />
    <glyph glyph-name="percent" unicode="%" horiz-adv-x="810" 
d="M280 590q0 28 -6 57h-8q-20 0 -40.5 -2.5t-38.5 -10.5q-4 -26 -4 -50.5v-50.5q0 -6 0.5 -12.5t0.5 -12.5q7 -2 13.5 -2h13.5q17 0 35 3t32 13q0 17 1 34t1 34zM640 190q0 28 -6 57h-8q-20 0 -40.5 -2.5t-38.5 -10.5q-4 -26 -4 -50.5v-50.5q0 -6 0.5 -12.5t0.5 -12.5
q7 -2 13.5 -2h13.5q17 0 35 3t32 13q0 17 1 34t1 34zM713 758q-55 -90 -111 -193l-111 -212q23 7 48.5 13t50 9.5t45.5 4t34 -2.5q10 -2 27 -14.5t33 -29t28 -33.5t13 -29q2 -31 1.5 -64t-2.5 -64.5t-6 -58.5t-10 -46q-12 -18 -46 -31.5t-75.5 -22t-83 -10t-68.5 4.5
q-14 5 -28 20t-25 33t-18.5 35t-7.5 27q-1 19 -1 37.5t2 37.5l-48 -104l-46 -102q-36 -4 -70.5 -4t-63.5 1.5t-49.5 4t-28.5 5.5l96 222l91 195q-22 -5 -44.5 -8t-44 -4t-40.5 0t-34 4q-14 5 -28 20t-25 33t-18.5 35t-7.5 27q-2 60 4.5 116t17.5 107q13 15 45.5 27.5
t70.5 21.5t74 12t56 -1q10 -2 27 -14.5t33 -29t28 -33.5t13 -29q1 -10 1 -20v-20l42.5 72.5l44.5 74.5q36 4 71 2t64.5 -6t50.5 -8.5t29 -7.5z" />
    <glyph glyph-name="ampersand" unicode="&#x26;" horiz-adv-x="630" 
d="M600 220q3 -17 1 -35.5t-6.5 -36.5t-11 -34t-13.5 -28q-21 -3 -55 -5.5t-76 -4.5q-2 -26 -4.5 -51t-9.5 -51q-13 -4 -37.5 -8t-52 -6t-53 -2.5t-39.5 3.5q-1 36 -1 64t-2 52q-42 2 -77 7.5t-56 13.5q-32 41 -52.5 95t-25.5 101q32 32 68 57.5t86 41.5q-18 5 -37 14
t-36.5 21t-31 26.5t-20.5 29.5q2 16 9 36t16 39t19.5 35.5t18.5 24.5l52.5 15.5t50.5 12.5q-1 48 -2.5 79.5t-3.5 66.5q25 10 54 17t58.5 10.5t58 3.5t52.5 -3q-7 -41 -9.5 -78l-4.5 -69q28 2 57.5 2h61.5q7 -4 15.5 -17.5t15 -30.5t11 -36t3.5 -35q-15 -2 -48.5 -3.5
t-72.5 -5t-76.5 -9.5t-61.5 -18q-11 -17 -15.5 -32.5t2.5 -40.5q7 -4 26.5 -5.5t42 -2.5t43 -0.5t30.5 0.5q11 -21 17 -48t4 -49q-18 0 -46.5 -2.5t-56.5 -6t-51 -8.5t-32 -11q-2 -33 0 -50t10 -28q60 -16 137 -16.5t157 -0.5z" />
    <glyph glyph-name="quotesingle" unicode="'" horiz-adv-x="294" 
d="M260 771l-16 -80t-17 -79t-19.5 -72t-22.5 -60q-26 -8 -59 -12t-61 1q5 36 6 77t0.5 80t-3 73.5t-3.5 58.5q101 42 195 13z" />
    <glyph glyph-name="parenleft" unicode="(" horiz-adv-x="403" 
d="M368 660q-29 -4 -49.5 -15t-40.5 -25q-6 -24 -11.5 -65t-10 -90.5t-6.5 -102.5t-1.5 -100.5t4.5 -84t13 -53.5l28.5 -20t40.5 -15q-3 -40 -12 -77t-21 -54q-27 4 -55.5 12.5t-57 19.5t-55.5 23t-50 21q-17 23 -27.5 74t-15 116.5t-3 139t9 142t20.5 125t32 88.5
q34 21 96.5 43.5t142.5 33.5q5 -9 10 -26t9.5 -36.5t7 -39t2.5 -34.5z" />
    <glyph glyph-name="parenright" unicode=")" horiz-adv-x="403" 
d="M34 89q29 4 49.5 15.5t40.5 24.5q6 23 11.5 64.5t9.5 91t6.5 102.5t2 100.5t-4.5 84t-13 53.5l-28.5 20t-40.5 15q3 40 12 77t21 54q27 -4 55.5 -12.5t57 -19.5t55.5 -23t50 -21q17 -23 27.5 -74t15 -116.5t3 -139t-9 -142t-20.5 -125t-32 -88.5q-34 -20 -96.5 -43
t-142.5 -34q-5 9 -10 25.5t-9.5 36t-7 39.5t-2.5 35z" />
    <glyph glyph-name="asterisk" unicode="*" horiz-adv-x="485" 
d="M461 447l-20.5 -17.5t-25 -18.5t-28 -16.5t-29.5 -10.5q-9 10 -24.5 24l-32.5 28q-2 -42 -3 -81q-5 -3 -20.5 -5.5t-33 -3.5t-34 -1t-23.5 1q-2 20 -2 42.5t-1 45.5l-28.5 -27.5t-22.5 -24.5q-15 -1 -31 4t-31 13.5t-28 19t-22 19.5l24.5 32l27 35.5l26.5 33t24 25.5
q-18 18 -33 30l-27.5 22t-24 20.5t-22.5 24.5q6 7 17.5 16.5t26 20t30.5 20.5t32 17q7 -10 24 -22.5l35 -25.5q0 22 0.5 42.5t1.5 37.5q29 6 62.5 7.5t61.5 0.5v-78q27 24 40 40q4 1 17.5 -3t31 -11.5t35 -17.5t30.5 -22q-28 -32 -60.5 -58t-59.5 -60q17 -17 31 -29
l27.5 -24t28 -27t33.5 -38z" />
    <glyph glyph-name="plus" unicode="+" horiz-adv-x="434" 
d="M397 273q-15 -2 -37 -2.5t-48 -1.5q-2 -29 -4 -70.5t-4 -75.5q-8 -4 -32 -6.5t-51.5 -4t-52.5 -1.5t-36 1q-1 16 -2 36l-2 40.5l-2 40t-2 35.5q-24 -1 -44.5 -3t-34.5 -4q-4 21 -5.5 45t-0.5 47t3 43t5 32q9 1 29 2t46 2q0 16 0.5 37l1 42.5t1.5 42t2 36.5q45 8 97 9.5
t96 0.5v-41.5v-45t-0.5 -43.5t-0.5 -37q26 0 46 -0.5t29 -2.5l2.5 -33.5t2.5 -43t0.5 -43t-2.5 -33.5z" />
    <glyph glyph-name="comma" unicode="," horiz-adv-x="309" 
d="M283 156l-36 -69t-36.5 -67.5t-37.5 -60.5t-37 -47q-26 3 -58.5 12t-57.5 26q14 32 25.5 70t21 75.5t16.5 71l12 56.5q106 -1 188 -67z" />
    <glyph glyph-name="hyphen" unicode="-" horiz-adv-x="320" 
d="M275 262q-55 -7 -114 -7.5t-113 -11.5q-4 25 -5 53t-0.5 55t2.5 50t5 38q17 2 47.5 3.5t64 2.5t64 0t46.5 -4l2.5 -39t2.5 -50.5t0.5 -50.5t-2.5 -39z" />
    <glyph glyph-name="period" unicode="." horiz-adv-x="354" 
d="M284 71q0 -14 -2.5 -28t-7.5 -28q-5 -12 -22.5 -20t-39 -12.5t-42.5 -6.5t-32 -2q-9 0 -22 5.5t-26 14.5t-22 21.5t-9 26.5q0 26 6 53t22 40q9 7 25.5 12t34.5 8t34 4.5t22 1.5q14 0 28.5 -9.5t26 -23t19 -29.5t7.5 -28z" />
    <glyph glyph-name="slash" unicode="/" horiz-adv-x="647" 
d="M633 758q-52 -85 -105.5 -182.5l-105.5 -200.5l-101 -208l-93 -204q-36 -4 -70.5 -4t-63.5 1.5t-49.5 4t-28.5 5.5l100.5 232l95 202t97.5 187t109 187q36 4 71 2t64.5 -6t50.5 -8.5t29 -7.5z" />
    <glyph glyph-name="zero" unicode="0" horiz-adv-x="783" 
d="M744 561q4 -73 3.5 -148.5t-8.5 -146.5t-23.5 -134t-41.5 -112q-44 -11 -112.5 -20t-145 -13.5t-151.5 -3t-133 13.5q-12 13 -27.5 34t-30.5 44t-27.5 46.5t-18.5 42.5q-1 32 1 76t6 93.5t10.5 101.5t16 101t21 91t26.5 72q48 16 113.5 26t134 14t133.5 3t112 -6
q17 -15 36.5 -36.5t38.5 -45t36.5 -47.5t30.5 -46zM479 551q-13 3 -33 4t-42.5 -0.5t-45 -5t-40.5 -9.5q-4 -10 -7 -36.5t-5 -62.5t-3.5 -76.5t-2.5 -78t-1 -67.5v-44q19 -5 44 -7.5t49.5 -2.5t46.5 3.5t36 10.5q6 85 10.5 178.5t-6.5 193.5z" />
    <glyph glyph-name="one" unicode="1" horiz-adv-x="389" 
d="M334 772q0 -180 -6 -373.5t-14 -378.5q-10 -6 -38 -10t-60 -6t-61.5 -2.5t-42.5 1.5q-4 65 -6 139.5t-3.5 151.5t-1.5 153.5t1 146.5q-5 0 -15 0.5t-21 1.5t-21 2.5t-15 3.5q1 34 8 71.5t15 64.5q26 6 63.5 12t77.5 11t77 8t63 3z" />
    <glyph glyph-name="two" unicode="2" horiz-adv-x="608" 
d="M576 437q-51 -51 -129.5 -103.5l-165.5 -105.5q-4 -2 -5 -9t0 -15t4 -14.5t6 -8.5q12 -6 49 -9.5t81.5 -4.5t88 -1t68.5 1q1 -12 0.5 -32.5t-2.5 -43.5t-6 -45t-11 -37l-124.5 -11t-138.5 -8t-136 1t-116 16q-3 28 -6.5 68t-4 83.5t2 87.5t10.5 80l81 54l90.5 58.5l82 51
l56.5 33.5q7 27 4 46t-14 33q-27 1 -67 0t-82.5 -4t-82 -7t-66.5 -7q1 18 3 41t5.5 46t8 44t9.5 35q25 7 61.5 14t78.5 12t86.5 8.5t85.5 4t76 -1t57 -6.5q21 -39 33.5 -79.5t18.5 -83t8 -88t2 -93.5z" />
    <glyph glyph-name="three" unicode="3" horiz-adv-x="630" 
d="M612 287q-3 -32 -10 -70.5t-17.5 -74.5t-23.5 -65t-28 -42q-22 -15 -59 -26.5t-82 -20t-94 -14.5t-94 -9.5t-82 -4t-58 1.5q-4 14 -8.5 33.5t-8 41.5t-5 46t1.5 47q39 4 78 8.5t75.5 10.5t70.5 15t63 24q9 13 11.5 23t2.5 22t-2 27t-3 38q-9 7 -31.5 11.5t-50 6.5
t-55 1.5t-45.5 -1.5q-2 31 4 69t17 68q9 1 29.5 3t42.5 6t41 9t26 11q7 35 2 55.5t-15 43.5q-23 13 -59.5 17.5t-74.5 4.5t-70.5 -1.5t-47.5 0.5q-1 22 3 49t10.5 52.5t14.5 45t15 25.5q60 7 111 10t100 0t98.5 -13t105.5 -28q8 -11 18 -32.5t19 -47t16 -52.5t9 -48
q-6 -22 -19.5 -44t-30.5 -41t-36 -34t-36 -24q48 -16 91 -47.5t70 -85.5z" />
    <glyph glyph-name="four" unicode="4" horiz-adv-x="742" 
d="M710 174q-20 -2 -39.5 -3t-39.5 -1q-2 -40 -3 -82.5t-2 -73.5q-21 -6 -58 -10.5t-74 -6.5t-66.5 -0.5t-34.5 7.5q2 30 3.5 64.5t1.5 90.5q-29 1 -73.5 -0.5t-94 -2t-97.5 0.5t-83 6q-4 17 -8 37.5t-7 40t-4.5 36.5t-1.5 28q11 32 29.5 73.5t40.5 86l46.5 90l47.5 86.5
t44 74t35 53q27 5 75 3.5t100 -5.5t100 -9t74 -7q4 -25 6.5 -72.5t3.5 -107t1 -124v-124.5q24 0 44 -1t31 -3q1 -14 2.5 -33t2.5 -39t0.5 -39t-2.5 -33zM399 535q0 19 -4 27t-10.5 7.5t-14 -7.5t-14.5 -19q-14 -24 -27.5 -52.5l-25.5 -56t-21 -51t-14 -38.5q7 -3 25 -5.5
t38 -3t38.5 1.5t26.5 8q1 15 1.5 37.5t0.5 48t0.5 52.5t0.5 51z" />
    <glyph glyph-name="five" unicode="5" horiz-adv-x="630" 
d="M579 594q-31 -3 -68.5 -4.5l-76.5 -3t-77 -4t-69 -6.5q-11 -23 -12.5 -53.5t-2.5 -59.5l73 -16.5l79 -17.5l79 -17l74 -15q13 -36 17.5 -78t1 -85.5t-14 -84t-26.5 -73.5q-54 -31 -112.5 -53t-118.5 -37.5t-120.5 -25.5t-118.5 -18q-7 6 -12.5 31t-9.5 55t-5.5 58
t-0.5 40q32 2 71.5 8.5t77 14.5t69 18t47.5 19q4 13 5.5 32.5t-0.5 36.5q-14 12 -54 19t-87 13.5t-90.5 15.5t-64.5 25q-2 48 0.5 102.5t7 109t10.5 104t12 86.5q54 18 117.5 26t130 10t132 0t122.5 -4q11 -39 13.5 -82.5t1.5 -85.5z" />
    <glyph glyph-name="six" unicode="6" horiz-adv-x="707" 
d="M664 412q3 -23 3 -54t-2.5 -66.5t-7.5 -73t-12.5 -71.5t-16.5 -63t-19 -47q-47 -29 -111 -44t-136 -15.5t-147 15t-144 48.5q-15 29 -23 84t-9.5 122t2 140.5t11.5 140.5t19.5 121t25.5 82q23 10 60.5 20t81.5 18t92 14t93 10t84 5.5t66 0.5l8 -31t9.5 -41t7 -45.5
t0.5 -44.5q-28 -3 -67.5 -10.5t-81.5 -17l-81.5 -19l-66.5 -15.5q-11 -17 -15 -42t-4 -48q36 -3 86 -8t103.5 -13.5t104 -21t87.5 -30.5zM439 270q-11 7 -34 11.5t-49 6t-50 0.5t-38 -3q-1 -70 18 -121q17 -7 39 -8.5t42.5 0t36 5.5t19.5 9q2 11 6 24.5t7.5 27t4.5 26.5
t-2 22z" />
    <glyph glyph-name="seven" unicode="7" horiz-adv-x="608" 
d="M577 607l-54.5 -112.5l-73.5 -153l-84 -175l-87 -178.5q-24 -3 -54.5 -1.5t-61.5 6t-59.5 12t-48.5 17.5q34 88 69 169.5l68 155l62.5 139.5t51.5 123q-26 3 -61 1.5t-71 -3.5l-70.5 -4t-60.5 1q-3 37 -1.5 78.5t9.5 79.5q62 9 128.5 12.5t131 4t125.5 -2t113 -5.5
q7 -19 13 -41.5t10 -45t6 -43t0 -34.5z" />
    <glyph glyph-name="eight" unicode="8" horiz-adv-x="731" 
d="M709 269q1 -18 -5 -50t-18.5 -67.5t-29.5 -70t-37 -57.5q-26 -18 -69 -28.5t-94 -14.5t-106.5 -2.5t-106.5 6.5t-93.5 13t-68.5 18q-19 46 -35 113.5t-16 144.5q23 30 57 59l60 53l-30 33l-31 33l-27.5 29.5t-17.5 24.5q6 70 22 132t45 120q70 12 144 18t139 6.5
t115.5 -4t75.5 -12.5q31 -21 54 -67t31 -101q-7 -26 -20.5 -52.5t-30 -50t-35.5 -42t-37 -28.5l36 -20t48 -32.5t47.5 -45t33.5 -58.5zM403 610q-6 10 -20 15t-30 5.5t-31.5 -2t-24.5 -5.5q-7 -6 -11 -25t-6 -40.5t-2 -39.5t3 -22q6 -9 22 -12t34.5 -3t36 2t26.5 5
q4 12 7 28t3.5 32.5t-1.5 32.5t-6 29zM430 282q-11 5 -30.5 6.5t-42.5 1t-46 -3t-41 -6.5q-3 -16 -4 -36.5t0.5 -40t5 -35.5t9.5 -22q12 -5 29 -7t36 -2t36.5 0.5t30.5 0.5q10 10 16 29.5t8.5 41.5t0.5 42t-8 31z" />
    <glyph glyph-name="nine" unicode="9" horiz-adv-x="674" 
d="M604 86q-59 -31 -115 -51t-113 -33t-115.5 -21.5t-122.5 -16.5q-8 6 -15.5 28t-13 48t-9 51t-2.5 37q35 2 80 10t88.5 18.5t79.5 22.5t54 21q4 13 4.5 29.5t-1.5 33.5q-30 4 -77.5 7l-99.5 6.5t-103 9t-88 14.5q-9 47 -6 107t13.5 121.5t27 117.5t35.5 96q60 15 116 22
t112 7.5t113.5 -5t120.5 -16.5q25 -59 40.5 -125.5t23.5 -133t9 -130t-3 -117.5t-12.5 -95t-20.5 -63zM405 452q5 35 5 70t-5 54q-11 0 -25.5 0.5t-30.5 1.5t-31 1.5t-25 -0.5q-14 -22 -22 -55.5t-9 -62.5q14 -3 33 -4t38.5 -1t38.5 -0.5t33 -3.5z" />
    <glyph glyph-name="colon" unicode=":" horiz-adv-x="354" 
d="M284 71q0 -14 -2.5 -28t-7.5 -28q-5 -12 -22.5 -20t-39 -12.5t-42.5 -6.5t-32 -2q-9 0 -22 5.5t-26 14.5t-22 21.5t-9 26.5q0 26 6 53t22 40q9 7 25.5 12t34.5 8t34 4.5t22 1.5q14 0 28.5 -9.5t26 -23t19 -29.5t7.5 -28zM274 411q0 -32 -9 -60q-4 -14 -21 -22.5
t-37.5 -13t-40.5 -6.5t-30 -2q-8 0 -21 5.5t-25 15.5t-20.5 23.5t-8.5 28.5q0 27 6 56t20 43q8 7 24 12.5t33.5 9t32.5 5t21 1.5q13 0 26.5 -10t24.5 -25t18 -31.5t7 -29.5z" />
    <glyph glyph-name="semicolon" unicode=";" horiz-adv-x="314" 
d="M269 121l-36 -69t-36.5 -67.5t-37.5 -60.5t-37 -47q-26 3 -59 12t-57 26q13 32 24.5 70t21 75.5t17 71l12.5 56.5q53 -1 100 -18t88 -49zM266 416q0 -32 -9 -60q-4 -14 -21 -22.5t-37.5 -13t-40.5 -6.5t-30 -2q-8 0 -21 5.5t-25 15.5t-20.5 23.5t-8.5 28.5q0 27 6 56
t20 43q8 7 24 12.5t33.5 9t32.5 5t21 1.5q13 0 26.5 -10t24.5 -25t18 -31.5t7 -29.5z" />
    <glyph glyph-name="less" unicode="&#x3c;" horiz-adv-x="442" 
d="M418 758l-46.5 -110l-44.5 -98l-43.5 -91l-42.5 -88l39 -92.5l43 -102l43.5 -100l39.5 -87.5q-24 -3 -54 -7.5l-58 -8.5t-49 -6t-26 0l-96.5 196t-84.5 199l95 206.5l92 209.5q32 4 63.5 2t58 -6t45.5 -8.5t26 -7.5z" />
    <glyph glyph-name="equal" unicode="=" horiz-adv-x="320" 
d="M275 126q-55 -7 -114 -7.5t-113 -10.5q-4 24 -5 51t-0.5 53t2.5 48.5t5 36.5q17 2 47.5 3.5t64 2.5t64 0t46.5 -4q1 -14 2.5 -37.5t2.5 -49t0.5 -49t-2.5 -37.5zM275 390q-55 -7 -114 -7.5t-113 -10.5q-4 24 -5 51t-0.5 53t2.5 48.5t5 36.5q17 2 47.5 3.5t64 2.5t64 0
t46.5 -4q1 -14 2.5 -37.5t2.5 -49t0.5 -49t-2.5 -37.5z" />
    <glyph glyph-name="greater" unicode="&#x3e;" horiz-adv-x="442" 
d="M39 -6q23 58 46 109.5l45 98.5l43.5 91l42.5 88l-39 92.5l-43.5 102l-43.5 100l-39 87.5q24 3 54 7.5l57.5 8.5t48.5 6t27 0l96.5 -196t84.5 -199q-51 -106 -95 -207l-92 -209q-32 -4 -63.5 -2t-58 6t-45.5 8.5t-26 7.5z" />
    <glyph glyph-name="question" unicode="?" horiz-adv-x="566" 
d="M520 488l-34.5 -31l-40 -33.5t-40.5 -30.5t-35 -23q-13 -32 -16 -62.5t-10 -64.5q-15 -5 -45 -8.5t-63.5 -6t-64 -4t-46.5 -1.5q-4 16 -5.5 38.5t-1.5 45.5t1.5 45t3.5 39q10 10 25.5 23t34.5 26.5t40.5 27l42.5 25.5q4 20 2.5 41t-6.5 38q-16 10 -50.5 10.5t-72 -4
t-69.5 -11.5t-44 -11l9.5 49.5t9.5 46.5t12 47t16 51q25 14 62 22.5t79 11.5t85.5 1.5t83 -6.5t70.5 -13t48 -18q5 -20 10.5 -53.5t9.5 -71t4.5 -74t-5.5 -61.5zM359 17q-14 -16 -46.5 -27.5t-69.5 -16.5t-70.5 -3t-49.5 13q-5 3 -7 19.5t-2.5 36.5t1 37.5t5.5 22.5
q18 23 47 35t60.5 14.5t62 -3t52.5 -15.5q1 -4 5 -14.5t8 -25.5t5.5 -34t-1.5 -39z" />
    <glyph glyph-name="at" unicode="@" horiz-adv-x="707" 
d="M670 154q-7 -4 -31 -8.5t-51.5 -8t-52.5 -5t-34 -0.5q-1 8 -0.5 20.5t-0.5 20.5h-49t-58.5 2t-61.5 6t-58 13q-8 14 -12.5 41t-6 60.5t0 71t5 73t10 66t15.5 49.5q48 22 96.5 31t105.5 8q-1 9 -2 17q-2 14 -7 27q-18 1 -49.5 1t-67 -4.5t-69 -15t-54.5 -31.5
q-13 -35 -21 -89t-10.5 -114.5t1 -121t12.5 -109.5q32 -20 68.5 -31.5t75.5 -19t80 -12.5t83 -11q2 -20 1 -35.5t-4 -28t-7.5 -23t-10.5 -20.5q-19 -5 -54 -5.5t-78 3t-90.5 11t-90.5 18t-78 24t-53 28.5q-15 35 -23 89t-9.5 117.5t2 130t11.5 126t19.5 107.5t24.5 73
q28 19 70 33t92 23.5t104 14.5t105 6t97 -2.5t79 -9.5q22 -69 31 -149t11 -161t-0.5 -157.5t-5.5 -138.5zM496 275q-2 60 -2 110.5t1 107.5q-11 -1 -19 -2t-15.5 -3.5t-16 -6.5t-20.5 -11q-4 -21 -8 -49.5t-5.5 -56.5t-0.5 -53t7 -40q14 -5 37 -0.5t42 4.5z" />
    <glyph glyph-name="A" unicode="A" horiz-adv-x="812" 
d="M806 -2q-30 -6 -63 -9.5t-65.5 -5.5t-62.5 -2.5t-54 0.5q-6 21 -11 36.5t-9 30t-7.5 30t-7.5 37.5q-28 4 -64 5t-72 0.5t-68.5 -4t-52.5 -8.5q-9 -18 -14.5 -31.5t-10 -27t-8.5 -28.5t-8 -35q-22 -6 -52.5 -8.5t-62 -2.5t-61 2.5t-49.5 5.5q5 36 15 83.5t24.5 101.5
t31.5 111.5l35 115l36.5 112.5l34.5 102q-12 1 -23 3l-18 4t-14 5q4 16 8 35.5t8.5 39t9.5 36.5t10 29q25 6 64.5 11.5t86 8.5t97 4t98 -0.5t89 -5.5t69.5 -12l38 -187.5l37.5 -186t35 -191.5t30.5 -204zM487 314q-2 28 -7 62.5t-11.5 69t-14 65t-15.5 50.5q-22 5 -44 0
q-2 -5 -8 -23.5l-13.5 -43.5l-15.5 -54l-15 -55t-11 -45.5t-4 -26.5q13 -3 37 -4.5t48.5 -1t45 2.5t28.5 4z" />
    <glyph glyph-name="B" unicode="B" horiz-adv-x="822" 
d="M798 295q-3 -35 -10.5 -79.5t-18.5 -87.5t-25 -77.5t-29 -48.5q-25 -6 -60 -12t-75 -11.5t-81.5 -9.5t-79.5 -6q-88 -5 -170 -3.5t-150 16.5q-5 38 -6 107t0.5 153t4 175.5t4.5 173.5q-5 1 -13.5 0.5t-18.5 -0.5t-19 1t-16 5q2 48 5.5 89.5t8.5 79.5q57 11 137.5 17.5
t168.5 8t176 -2.5t160 -14q9 -12 19.5 -38.5t20 -58t17 -64t9.5 -55.5q-25 -39 -58.5 -76.5t-70.5 -57.5q18 -8 41 -20t46 -28t45 -35t38 -41zM487 486q2 38 -7.5 74.5t-26.5 59.5q-22 5 -49 6t-50 -8q-1 -19 -2.5 -40.5t-2.5 -41.5t-1 -37.5t1 -27.5q10 -3 30 -3.5
t41.5 1.5t40 6.5t26.5 10.5zM510 287q-9 8 -28.5 12.5t-42.5 6t-46 0t-39 -7.5q-8 -57 -6 -104.5t7 -79.5q29 -6 66 -0.5t62 13.5q18 28 23.5 69t3.5 91z" />
    <glyph glyph-name="C" unicode="C" horiz-adv-x="656" 
d="M624 157q1 -23 -1 -52.5t-5.5 -57.5t-9.5 -49.5t-14 -28.5q-62 1 -130 3.5t-136 10t-134.5 22t-125.5 40.5q-17 25 -26 74.5t-12 112t0.5 132t13 135t23.5 121t33 89.5q23 15 65 28.5t93.5 25t106.5 19t104 11t86 1.5t53 -10q1 -12 3 -31.5t2.5 -43.5t-0.5 -52t-5 -56
q-41 -5 -77.5 -6.5t-70.5 -5t-65.5 -11t-63.5 -22.5q-9 -38 -17.5 -88t-12 -100.5t-1 -95t15.5 -71.5q14 -11 39.5 -17t56.5 -9t64.5 -4.5t63.5 -3t52.5 -3.5t31.5 -7z" />
    <glyph glyph-name="D" unicode="D" horiz-adv-x="845" 
d="M815 604q-1 -76 -5.5 -159.5t-15 -163.5t-27.5 -151t-44 -123q-25 -9 -68.5 -17.5t-98.5 -14.5t-117.5 -9.5t-124.5 -2.5t-120 6.5t-104 16.5q-5 55 -6 131t-0.5 158.5t1.5 165.5t2 153l-57 4q0 26 1.5 52.5t3.5 49l3.5 40t2.5 26.5q66 10 149 17t168.5 9t167.5 -1.5
t148 -14.5l75 -78.5t66 -93.5zM538 560q-16 15 -41 23t-53 9.5t-55 -3.5t-46 -15q-1 -11 -1.5 -44.5t-0.5 -77.5v-92.5v-90.5t1 -71t3 -33q41 -12 84 -7t75 17q14 44 24 97t14.5 106t3.5 101t-8 81z" />
    <glyph glyph-name="E" unicode="E" horiz-adv-x="678" 
d="M634 622q-61 -3 -121.5 -1t-121.5 -5q-7 -9 -11 -29.5t-5.5 -44t0.5 -46t8 -37.5q4 -2 33 -1.5t65.5 1.5t72 0.5t51.5 -3.5q3 -29 5 -64.5t-2 -64.5q-27 -3 -56 -3.5l-57.5 -1t-57 -2t-55.5 -7.5q-6 -12 -8 -32.5t-1.5 -43t2.5 -44t5 -34.5q18 -6 50.5 -6.5t69 0t71 1.5
t57.5 -2q5 -37 6.5 -80.5t-8.5 -81.5q-66 -7 -129 -11t-127 -4.5t-131 3t-141 12.5q-6 69 -8 147t-2.5 158.5t1 161.5t3.5 157q-14 0 -32 0.5t-32 0.5q1 38 6 78t13 75q62 14 139 19.5t155.5 6.5t153.5 -1.5l132 -4.5q4 -13 6 -35t2.5 -46t0 -47t-1.5 -38z" />
    <glyph glyph-name="F" unicode="F" horiz-adv-x="635" 
d="M602 780q2 -43 -1 -87t-14 -82l-128.5 -2t-125.5 -4q-8 -6 -10.5 -25t-3 -42.5t0 -45t0.5 -31.5q18 -6 49.5 -8t66 -2h68t56.5 -1q4 -21 6 -38t1.5 -33.5t-3.5 -33.5t-8 -37q-30 -5 -59 -6t-58 -2.5t-58 -4.5t-58 -10q-1 -3 -1.5 -34t-0.5 -74.5t1 -92.5t3 -88
q-16 -6 -45.5 -11.5t-64.5 -8.5t-71 -3t-64 4q-7 79 -9 164.5t-0.5 169t5 160.5l6.5 139q-9 0 -26 -0.5t-25 1.5l2 45.5t1.5 43.5t1 36t0.5 25q43 12 94.5 18.5t105.5 9t108 2t102.5 -2.5t89 -4.5t66.5 -3.5z" />
    <glyph glyph-name="G" unicode="G" horiz-adv-x="760" 
d="M718 -45q-20 -3 -48 -6.5t-59.5 -5.5t-63.5 -0.5t-59 9.5v53q-38 -2 -77.5 -4.5t-80 -3t-80 1.5t-76.5 9q-15 15 -32.5 29.5t-35 32t-34.5 40t-32 52.5q-3 37 -1 85t7 101.5t13 108.5t19 104.5t23.5 91t26.5 67.5q29 13 69 24t86.5 19.5t96 15t96 11t88 7.5l71.5 5
q14 -43 20.5 -95t4.5 -93q-32 -5 -72.5 -9t-82 -10t-81 -14.5t-70.5 -21.5q-14 -20 -26 -66t-19 -99.5t-8 -104t8 -80.5q19 -9 43 -11t48 -0.5t44.5 4t32.5 4.5q7 27 6.5 54.5t-1.5 48.5q-23 3 -50.5 3.5t-50.5 -1.5q-5 35 -3 69.5t11 69.5q33 8 75.5 14t86.5 10t84.5 5.5
t68.5 1.5q3 -60 5.5 -128.5t4.5 -138.5t3 -136.5t1 -122.5z" />
    <glyph glyph-name="H" unicode="H" horiz-adv-x="762" 
d="M706 785q4 -50 5.5 -121t1 -150t-2 -161t-3.5 -154.5l-3.5 -129.5t-2.5 -87q-17 -3 -50 -4.5t-68.5 -1.5t-66 1t-40.5 2q-2 28 -0.5 64.5t2.5 74.5t0.5 76t-6.5 69q-11 1 -36.5 0t-53.5 -3.5t-52 -6.5t-33 -8q-5 -67 -6 -133.5t1 -133.5q-52 -12 -114.5 -14t-119.5 3
q-5 34 -7.5 96t-3.5 138t-0.5 159t1.5 159.5t2.5 140t2.5 100.5q21 7 60.5 11.5t79.5 5.5t72 -1t37 -9q-9 -61 -9 -131v-132q18 -1 46 0t56 3t51 5t32 7q4 18 4 49t-1 66.5l-2 70.5t1 62q13 7 44.5 12t67.5 7.5t68 2t46 -3.5z" />
    <glyph glyph-name="I" unicode="I" horiz-adv-x="350" 
d="M295 768q0 -189 -5.5 -380.5t-13.5 -385.5q-10 -6 -38 -10.5t-60 -6.5t-61.5 -2.5t-42.5 1.5q-5 88 -7.5 189t-3.5 203t0 198.5t4 177.5q53 12 114.5 14.5t113.5 1.5z" />
    <glyph glyph-name="J" unicode="J" horiz-adv-x="613" 
d="M550 771q5 -39 7 -100t2 -132t-2 -147t-5 -146t-6.5 -127.5t-6.5 -92.5q-22 -15 -63.5 -28t-91.5 -23t-104 -17t-101.5 -9t-84 0.5t-51.5 10.5q-2 24 -5 69.5t5 103.5l64 2t62 5t61.5 12t61.5 24q6 25 9.5 65.5t5.5 89.5t2 104.5t-1.5 111.5t-4.5 110t-7 100q21 6 51 12
t63.5 9t69.5 2t70 -9z" />
    <glyph glyph-name="K" unicode="K" horiz-adv-x="747" 
d="M728 743l-36 -70l-51 -100l-54 -109l-46 -97q18 -52 41 -97.5t47 -88.5l47.5 -86t43.5 -90q-21 -10 -54 -17.5t-68.5 -12.5t-67 -8t-49.5 -4q-25 38 -48 77.5l-42.5 75l-35 65t-26.5 48.5l-37 -1q0 -21 1 -52.5t1 -65.5t-0.5 -67.5t-2.5 -60.5q-9 -5 -27.5 -8.5t-42 -6
t-49.5 -4.5t-50 -2t-43 1t-28 3q-4 50 -5.5 120t-1 148t2 159t3.5 153l3.5 128t2.5 86q22 5 58.5 6.5t72.5 1.5t66 -1.5t41 -2.5q-1 -27 -2 -59t-1 -65.5t1.5 -67.5t5.5 -65h43q13 21 32.5 57l40.5 76l42 79.5l36 67.5q26 1 55.5 -2.5t60 -10.5t61.5 -15z" />
    <glyph glyph-name="L" unicode="L" horiz-adv-x="605" 
d="M571 218q5 -51 5 -99t-8 -99q-20 -3 -54.5 -6l-78 -6.5t-93 -6.5t-99 -5t-97 -2t-87.5 3l-2.5 99.5t-4 126.5t-4.5 141t-3 143t-0.5 133.5t3.5 110.5q7 4 26 7t44 5t54 3t55.5 1t48 -0.5t32.5 -2.5q-2 -74 -2.5 -157.5t-0.5 -160t0.5 -138.5t0.5 -94q31 -8 65 -10t68 0
t67.5 6z" />
    <glyph glyph-name="M" unicode="M" horiz-adv-x="988" 
d="M945 -3q-18 -11 -48 -15.5t-64.5 -5t-71 1t-66.5 4.5q-1 14 -2.5 43l-3.5 65.5l-4 75.5t-4 72l-3.5 56t-2.5 27h-36l-25 -60.5l-33 -82l-38 -91.5l-38 -90q-23 0 -45 -1t-45 3q-21 40 -40 83t-34.5 84l-28.5 77.5l-23 63.5l-34 -1q-2 -9 -4.5 -33.5t-4 -56.5t-3.5 -68.5
t-3 -70t-2 -59.5t-1 -38q-51 -11 -99.5 -11.5t-105.5 6.5q-1 52 0 122t4 147t6.5 155t7 146t7 120t6.5 76q34 12 84 20t97.5 12.5t83.5 5.5t44 -1l40.5 -132t46.5 -129h37l23 57l33 82l31.5 79.5t19.5 50.5q24 7 65 10t86 3.5t88 -2t72 -7.5q8 -199 14 -394.5t17 -398.5z
" />
    <glyph glyph-name="N" unicode="N" horiz-adv-x="827" 
d="M773 768q2 -186 1 -375.5t-6 -375.5q-26 -4 -61.5 -9t-77 -9.5t-86 -8t-88.5 -4.5q-44 76 -79 160t-66 170l-49 -6q-6 -63 -7.5 -143.5t2.5 -171.5q-96 -28 -197 -8q-4 32 -6.5 87t-4 122t-2 142t-0.5 148.5t1 140t3 116.5q4 5 27.5 10.5t56.5 10t72 8.5t75.5 6.5
t66.5 2.5t45 -2q25 -86 56 -167.5l62 -164.5l47 3q1 3 1.5 21.5t1.5 45.5t2 60t1.5 65.5t1 61t1.5 46.5q102 29 206 18z" />
    <glyph glyph-name="O" unicode="O" horiz-adv-x="824" 
d="M783 590q4 -77 3.5 -156t-8.5 -153.5t-25 -141.5t-44 -118q-31 -7 -74 -14t-93 -12.5t-104 -9t-107 -3.5t-102 3.5t-90 11.5q-12 14 -28.5 36t-32.5 46t-29.5 49t-19.5 45q-1 34 1 80t6.5 98t11.5 107t16.5 106t22.5 95.5t28 76.5q50 17 119 27t141.5 14.5t140.5 4
t118 -6.5q18 -16 38.5 -38.5t40.5 -47.5t38.5 -50.5t31.5 -48.5zM504 580q-14 3 -35 4t-44.5 -0.5t-47.5 -5.5t-42 -10q-4 -10 -7.5 -38t-6 -66t-4 -80.5t-2 -82t-1 -71t0.5 -46.5q20 -5 46 -8t52 -3t49.5 3.5t37.5 11.5q6 89 10.5 187.5t-6.5 204.5z" />
    <glyph glyph-name="P" unicode="P" horiz-adv-x="803" 
d="M769 645q0 -44 -7.5 -101t-19.5 -113t-26.5 -105.5t-29.5 -78.5q-38 -12 -89 -22t-103.5 -17.5t-100 -12.5t-78.5 -7q-1 -49 2.5 -101.5t0.5 -101.5q-23 -3 -52 -5.5t-60 -4t-62 -1.5t-57 2q-3 16 -4.5 52.5t-2 87t-0.5 110.5t1 123.5t2.5 126.5t3.5 118q-8 0 -24.5 2.5
t-30.5 7.5q1 25 4.5 50t7.5 47l7.5 40t4.5 29q21 6 63 10.5t95.5 6.5t112.5 3t113.5 0t99.5 -2.5t69 -4.5q22 -13 48 -33t48.5 -40.5t40 -38.5t23.5 -26zM500 571q-15 12 -36 19t-43.5 10t-43.5 2t-34 -5q-4 -26 -7 -54.5t-4.5 -55.5t-1 -50t2.5 -38q13 -2 35 -0.5t44.5 5.5
t42.5 11t28 18q8 19 11.5 56.5t5.5 81.5z" />
    <glyph glyph-name="Q" unicode="Q" horiz-adv-x="824" 
d="M783 590q4 -77 3.5 -156t-8.5 -153.5t-25 -141t-44 -118.5l31.5 -33t20.5 -22q-11 -18 -29 -29t-40 -18.5t-48 -12.5t-54 -11q-13 15 -32 40.5l-42 56.5q-48 -5 -98.5 -7.5t-100 -2.5t-95 3.5t-83.5 11.5q-12 14 -28.5 36t-32.5 46t-29.5 49t-19.5 45q-1 34 1 80t6.5 98
t11.5 107t16.5 106t22.5 95.5t28 76.5q50 17 119 27t141.5 14.5t140.5 4t118 -6.5q18 -16 38.5 -38.5t40.5 -47.5t38.5 -50.5t31.5 -48.5zM504 580q-14 3 -35 4t-44.5 -0.5t-47.5 -5.5t-42 -10q-4 -10 -7.5 -38t-6 -66t-4 -80.5t-2 -82t-1 -71t0.5 -46.5q36 -9 83 -11
q-17 30 -28.5 55t-14.5 42q8 9 19.5 15t25 10.5t27.5 7.5t27 5q4 -7 17 -23l33 -39q5 78 7.5 162t-7.5 172z" />
    <glyph glyph-name="R" unicode="R" horiz-adv-x="786" 
d="M751 35q-14 -9 -41 -18t-59 -16.5t-66 -13t-61 -6.5q-36 46 -70 102.5t-68 106.5q-11 0 -18 0.5t-12.5 0t-11.5 -3t-16 -7.5v-43.5t-1 -47.5l-2 -47.5t-2 -42.5q-16 -5 -40.5 -9.5t-55 -7t-65 -2.5t-70.5 4q-5 72 -8 148.5t-3.5 153t0 152.5t1.5 147q-10 1 -25.5 1
t-29.5 3q0 19 1.5 41.5t3.5 45t5.5 43.5t7.5 38q17 6 54 10t85 6.5t103.5 3.5t111 0.5t107 -2t91.5 -4.5q18 -10 38.5 -28.5t40 -42.5t36.5 -52t28 -56q-6 -73 -35.5 -152.5t-71.5 -154.5q10 -18 28 -55.5l36.5 -77l33.5 -73zM477 571q-9 9 -28.5 12.5t-42.5 3.5t-45 -2
t-35 -5q-2 -22 -3 -48.5t-1 -53t1.5 -50t4.5 -38.5q32 1 60 3t57 12q24 45 30.5 88t1.5 78z" />
    <glyph glyph-name="S" unicode="S" horiz-adv-x="664" 
d="M611 618q-69 -11 -137 -17.5t-136 -20.5q-14 -24 -18 -52t-5 -57q74 -15 147 -27.5t147 -26.5q14 -36 17 -83t-2.5 -95.5t-18 -94t-29.5 -78.5q-54 -23 -117 -40.5t-127.5 -30.5t-127.5 -21t-116 -13q-8 17 -13.5 44.5t-9.5 55.5t-5.5 52.5t-0.5 36.5q34 2 74.5 7.5
t78.5 13t70 16.5t49 18q4 13 6 32.5t0 36.5q-10 8 -32 13.5t-51 10t-61.5 9t-63.5 10t-56.5 12.5t-40.5 18q-4 96 11.5 191t51.5 180q117 47 247 65.5t253 13.5q12 -39 14.5 -88t1.5 -91z" />
    <glyph glyph-name="T" unicode="T" horiz-adv-x="723" 
d="M692 763q2 -20 1.5 -44.5t-2 -49.5t-4 -47.5t-5.5 -37.5q-42 -6 -84 -9l-85 -6q-4 -21 -8 -60.5t-7.5 -90t-6.5 -107.5t-5 -112.5t-3 -106t0 -86.5q-60 -11 -121 -20.5t-121 -4.5q-7 85 -10 155t-4 135t0 130.5t1 142.5q-23 2 -49 1.5t-52.5 -2t-52 -4.5t-46.5 -5
q-2 48 2 101.5t16 103.5q14 7 62.5 12.5t115 9.5t141.5 6t142 2.5t117.5 -1.5t67.5 -5z" />
    <glyph glyph-name="U" unicode="U" horiz-adv-x="779" 
d="M730 754q-1 -65 -2.5 -141t-2 -153.5l-1 -150t1.5 -129.5q-6 -19 -17 -42t-24.5 -46.5t-29 -45.5l-28.5 -40q-46 -2 -106.5 -5t-125.5 -5.5t-129.5 -2t-118.5 5.5q-11 12 -25 33.5t-28 45.5t-25.5 48t-16.5 41q0 31 -1 78t-2 101.5t-1.5 112t0 109.5t2 95.5t4.5 69.5
q65 8 124 10t128 -7q-5 -80 -7 -150t-1 -133.5t3.5 -122.5t5.5 -117q16 -8 39.5 -11t47.5 -1t45.5 10t35.5 22q0 60 -1 126t-1.5 132t-0.5 129.5t1 117.5q32 7 63.5 10.5t63.5 4.5t64.5 0.5t65.5 0.5z" />
    <glyph glyph-name="V" unicode="V" horiz-adv-x="734" 
d="M714 742l-59.5 -174l-64.5 -188l-65 -192.5l-62 -187.5q-29 -3 -62.5 -6t-67.5 -5t-67.5 -2.5t-62.5 1.5q-17 49 -34.5 111l-35 130.5l-34 139.5t-30.5 138.5t-25 128t-17 106.5l66.5 9.5t71.5 9.5t60 6t32 -2l13.5 -93.5t18 -104t23.5 -102.5t28 -90l43 -1
q16 37 31.5 87t30.5 103.5l28.5 105.5t26.5 94q39 5 74.5 4t63.5 -5.5t47.5 -10.5t28.5 -10z" />
    <glyph glyph-name="W" unicode="W" horiz-adv-x="1046" 
d="M1029 774q-3 -59 -9.5 -129t-16 -143.5t-20.5 -147l-21.5 -140l-20 -122t-16.5 -92.5q-86 -7 -159.5 -10t-155.5 -2q-2 8 -5 29.5t-7.5 50.5l-10 62t-10 63.5t-8.5 54.5t-7 35h-43l-13.5 -53l-18.5 -73.5l-20.5 -85l-20.5 -87.5q-44 -4 -81 -5.5t-72 -1t-70 2.5t-74 4
q-20 96 -35 191.5t-28 191.5l-26 192t-29 192q57 11 116.5 15.5t124.5 -7.5q15 -81 27.5 -161.5l24.5 -162.5h27q12 33 24.5 77l24.5 90l23.5 89.5l20.5 75.5q56 5 113 8t111 -8l45 -148.5l43 -149.5l36 -3q10 75 18.5 152.5l16.5 155.5q46 11 97 8.5t105 -8.5z" />
    <glyph glyph-name="X" unicode="X" horiz-adv-x="749" 
d="M744 758q-29 -59 -57.5 -110l-56 -98l-54 -91l-52.5 -88l48.5 -92.5l54 -102l54 -100l48.5 -87.5q-29 -3 -66.5 -7.5l-71.5 -8.5t-60 -6t-33 0q-10 21 -28.5 52l-37.5 62l-36 57l-24 37q-13 -17 -30 -44t-34 -57.5l-32 -60t-23 -50.5q-39 -4 -77.5 -4t-70.5 1.5t-55 4
t-32 5.5q14 42 34.5 91.5t44.5 101.5t51 104t54 97q-11 17 -25.5 46t-30.5 65l-32.5 75.5t-30.5 77.5t-25 71t-16 56l52.5 7t62.5 7t62.5 5t53.5 0l23.5 -52.5l27.5 -59.5l27.5 -57.5t25.5 -47.5q17 21 33.5 47.5t32 55.5l31.5 59l31 59q39 4 78 2t72 -6t56.5 -8.5
t32.5 -7.5z" />
    <glyph glyph-name="Y" unicode="Y" horiz-adv-x="771" 
d="M749 761q-29 -48 -60.5 -107.5l-64.5 -122.5l-66.5 -126l-64.5 -117q-1 -77 -2.5 -148.5t-3.5 -133.5q-27 -6 -56.5 -8t-59.5 -1.5t-59.5 2t-56.5 1.5q0 75 -2 149l-4 149q-18 23 -39.5 59.5t-44 79t-44.5 89t-40.5 90t-32 81.5t-19.5 64q31 2 70 5.5t74.5 6t62.5 3.5
t34 -1q1 -6 8 -24t17.5 -42l23.5 -51.5l26 -53t25.5 -46.5t22.5 -33q13 14 32.5 49t39 74.5l36 75t24.5 50.5q41 3 78 2.5t66.5 -3t50 -6t29.5 -6.5z" />
    <glyph glyph-name="Z" unicode="Z" horiz-adv-x="620" 
d="M580 147q3 -38 -0.5 -76t-11.5 -77q-63 -9 -131 -12.5t-134 -3.5t-128.5 2.5t-114.5 5.5q-7 19 -13 43t-10.5 47t-6 44t0.5 36l78 119.5l79.5 127.5l70.5 118t50 91q-31 1 -63.5 0.5t-65 -1.5t-65 0t-62.5 7q-11 38 -13.5 76.5t-0.5 80.5q40 2 103 8.5t135 10t147.5 0
t140.5 -20.5q1 -18 2.5 -41t2.5 -47t0.5 -47t-3.5 -42q-32 -68 -64.5 -126l-65 -110.5l-65 -102.5l-64.5 -103q27 -3 63 -3.5t73.5 0t73 0t62.5 -3.5z" />
    <glyph glyph-name="bracketleft" unicode="[" horiz-adv-x="421" 
d="M386 122q3 -29 2.5 -67t-4.5 -67q-75 -9 -155 -6t-155 11q-5 84 -7 185t-2 203t1.5 199t4.5 174q33 7 73 13.5t81 10t80.5 3.5t70.5 -6q1 -14 3.5 -33t4 -39.5t2 -39.5t-1.5 -33l-44.5 -4.5t-45.5 -3.5q-5 -49 -8 -112t-4.5 -129t-1 -129t2.5 -112q32 -9 60 -12t43 -6z
" />
    <glyph glyph-name="backslash" unicode="\" horiz-adv-x="569" 
d="M555 -11q-27 -3 -60.5 -7.5l-64 -8.5t-54 -6t-29.5 0q-9 21 -30 65l-47.5 99.5l-55 116.5l-52.5 116l-20.5 48l-27 66l-29.5 75l-28.5 76t-23.5 70t-15 56l47 7t55.5 7t56 5t48.5 0q12 -36 32.5 -90.5l46.5 -121.5l57 -141.5l63.5 -150l66 -148z" />
    <glyph glyph-name="bracketright" unicode="]" horiz-adv-x="421" 
d="M64 636q-3 29 -2 67t4 67q75 9 155 6t155 -11q5 -84 7 -185t2 -203.5t-1.5 -199.5t-4.5 -173q-33 -8 -73 -14t-81 -10t-80.5 -3.5t-70.5 6.5q-2 14 -4 33t-3.5 39.5t-2 39.5t1.5 33l45 4.5t45 3.5q5 48 8 111.5t4.5 129.5t1.5 129t-3 112q-32 9 -60 12t-43 6z" />
    <glyph glyph-name="asciicircum" unicode="^" horiz-adv-x="570" 
d="M558 420l-51 -6.5l-54.5 -7t-46 -5t-24.5 0.5l-18.5 40l-21.5 43l-20.5 39l-14.5 27q-2 4 -5.5 12t-10.5 8q-10 0 -16.5 -10t-8.5 -15l-36.5 -71.5t-32.5 -76.5q-30 -3 -59.5 -3.5t-54 1t-42 4t-23.5 4.5q11 36 26.5 79t34 88l38.5 90t41 84q21 4 55.5 5.5t71 2t69 -0.5
t49.5 -2l36 -79.5l41 -88l41 -86.5z" />
    <glyph glyph-name="underscore" unicode="_" horiz-adv-x="509" 
d="M463 1q-50 -3 -102 -4.5l-104.5 -3t-104.5 -3.5t-101 -8q-7 24 -9.5 51.5t-1 54t5.5 49.5t9 37l52.5 2.5t71 2l79 1t78.5 0.5t69.5 -1t51.5 -3q3 -15 5.5 -38.5t3.5 -49t0.5 -49.5t-3.5 -38z" />
    <glyph glyph-name="grave" unicode="`" horiz-adv-x="309" 
d="M20 728q42 18 89 26t101 3l12.5 -39t17 -49t21 -53t25.5 -50q-25 -9 -58 -13t-59 -3q-19 15 -38 35t-37.5 43.5l-37 49z" />
    <glyph glyph-name="a" unicode="a" horiz-adv-x="692" 
d="M648 4q-14 -4 -38.5 -8t-54 -7.5t-60 -6t-55.5 -3.5l-4 39q-84 -14 -141 -21.5t-105 -12.5q-12 4 -31 12t-40 18.5t-42 23t-37 25.5q-5 21 -5 58t3 77t8 75.5t11 52.5q22 13 65 27t92.5 27t98.5 22.5t84 12.5q1 5 1.5 19t-1.5 21q-11 3 -32.5 5t-49 3t-58.5 0.5t-60 -0.5
t-53.5 -1t-38.5 -1q-1 19 0.5 40.5t4.5 41t8 34.5t12 22q55 7 117.5 11t123.5 3.5t117 -6t100 -16.5q13 -20 24 -60.5t19 -93t13.5 -113t7.5 -119t1 -111.5t-5 -90zM421 162q-1 38 -3.5 64.5t-7.5 61.5q-17 -5 -36 -10t-37 -10.5t-33 -12t-23 -13.5q0 -5 -0.5 -18.5t0 -28.5
t3 -28.5t9.5 -17.5q8 -1 23.5 0t33.5 3t37 4.5t34 5.5z" />
    <glyph glyph-name="b" unicode="b" horiz-adv-x="712" 
d="M681 400q-2 -23 -7 -58.5t-12.5 -75.5t-16.5 -81t-18.5 -76.5t-19.5 -62t-19 -35.5q-91 -14 -173 -7t-147 17l-3 -43q-59 -2 -113 0t-100 13q-3 25 -4 77t-1 120t0.5 146.5t2 156.5l3 149.5t2.5 126.5q26 5 57 8.5t62 4.5t59 -0.5t48 -5.5q-1 -19 -2.5 -50t-2 -62.5
t-0.5 -58.5t1 -37q13 3 40.5 5t60 4t65.5 3t57 1q23 -9 49.5 -27t51.5 -42t46 -52.5t34 -57.5zM422 402q-8 8 -26 12.5t-38.5 6t-41.5 0t-35 -7.5q-3 -29 -4.5 -64t-1 -69.5t2.5 -63.5t4 -45q13 -3 28.5 -6t31.5 -5t30.5 -2t25.5 4q8 14 13 44t8 65t3.5 70.5t-0.5 60.5z" />
    <glyph glyph-name="c" unicode="c" horiz-adv-x="590" 
d="M562 118q1 -17 -0.5 -38t-5.5 -41.5t-9.5 -36t-12.5 -20.5q-56 1 -117 2.5t-122.5 7t-121 16.5t-112.5 29q-15 18 -23.5 57t-11 89.5t0.5 107t11.5 109t21.5 96t30 68.5q20 11 58.5 21t84.5 18t95.5 13.5t93.5 8t77.5 1.5t47.5 -7l2.5 -23t2.5 -31t0 -37t-5 -41
q-37 -3 -67 -4.5t-56.5 -4t-52 -8t-53.5 -16.5q-8 -27 -15.5 -71t-11 -89t-1.5 -85t14 -59q12 -8 34 -12.5t47.5 -6.5t53.5 -3t52.5 -2t43.5 -3t27 -5z" />
    <glyph glyph-name="d" unicode="d" horiz-adv-x="752" 
d="M682 -13q-47 -12 -106 -17.5t-113 -1.5l-3 43l-71.5 -11.5t-83.5 -11.5t-79.5 -7.5t-59.5 0.5q-34 29 -64 73.5l-56 84.5q-4 21 -3.5 56.5t5 77.5t12.5 87.5t19.5 86t26.5 72.5t32 49q73 15 155 23.5t164 3.5q0 21 -1 45.5l-2 49t-1.5 47.5t0.5 43q25 3 56 5.5t62.5 3.5
t60.5 -2t50 -10q0 -81 2 -186t3.5 -214.5t1 -212t-6.5 -177.5zM444 438q-33 8 -68.5 7t-67.5 -18q-7 -29 -12 -68t-7.5 -79t-2 -75t5.5 -56q14 -5 32.5 -6t39 1t41 6t38.5 9q1 3 2 22.5t1 47.5v60.5t-0.5 62.5t-1 53t-0.5 33z" />
    <glyph glyph-name="e" unicode="e" 
d="M668 250q-26 -4 -73 -8.5t-103 -9t-115 -8t-107 -4.5q3 -27 14 -46q12 -8 37.5 -13.5t57 -9.5t66 -6.5t64.5 -5t53 -5.5t31 -6q1 -17 -0.5 -40.5t-5.5 -46t-9 -40.5t-12 -23q-56 1 -120 4.5t-130 11.5t-129 21t-116 31q-15 18 -23.5 57t-11 89.5t0.5 107t11.5 109.5
t21.5 96.5t30 68.5q20 11 61.5 21t92 18t106 13.5t104 8t85 1.5t50.5 -7q19 -31 32.5 -77.5t22 -98.5t12 -105t2.5 -98zM433 378q1 11 1 25t-1.5 29t-4.5 28.5t-8 22.5q-14 -1 -26 -1.5t-25 -2t-28 -5t-33 -10.5q-7 -23 -13.5 -48t-10.5 -56q44 -2 82.5 4t66.5 14z" />
    <glyph glyph-name="f" unicode="f" horiz-adv-x="624" 
d="M605 686l-46 -2t-47 -4t-45 -9t-40 -18q-3 -6 -6 -20.5t-5 -30.5t-3 -30.5t-1 -21.5q16 0 39 -0.5t47.5 -1.5t47 -2.5l36.5 -2.5q4 -20 6 -36t1.5 -31.5t-3.5 -31.5t-8 -35q-29 -4 -50.5 -6t-41 -3.5t-38.5 -2.5t-41 -4q-1 -27 -1 -62.5v-74v-77.5v-73t0.5 -60t0.5 -39
q-26 -5 -58 -8.5t-64 -5t-62 -0.5t-52 4q-2 21 -3.5 64.5t-3 98.5t-2.5 114t-1 110q-33 -1 -68.5 -2.5t-59.5 -5.5q-4 19 -5 41t-0.5 44t2.5 40.5t5 29.5q16 2 53.5 5t75.5 4q0 19 4 51.5t10 66t14.5 61.5t17.5 39q52 19 95.5 29t86 14.5t87 5.5t99.5 2q7 -5 12 -18.5
t8.5 -31.5t5 -37.5t1.5 -35.5z" />
    <glyph glyph-name="g" unicode="g" horiz-adv-x="694" 
d="M647 611q1 -12 1.5 -55t0 -101.5t-1.5 -126t-3 -128.5t-4.5 -107.5t-5.5 -63.5q-6 -33 -16 -63.5t-23.5 -56.5t-31.5 -45t-42 -28q-39 -15 -92.5 -25t-110.5 -16.5t-111.5 -10t-95.5 -5.5q-12 31 -18.5 69t-4.5 67q29 3 65.5 6t74 7t73 10.5t63.5 15.5q8 7 13.5 27.5
t10.5 47.5q-56 -2 -108 -5.5t-113 -5.5l-33 16t-35.5 19.5t-33 21.5t-25.5 22q-11 43 -11 108t8.5 132t24.5 126t38 91q22 12 61 16t83 5t87.5 -1t75.5 -2l3 44q31 1 63.5 1.5t64 0.5t59.5 -1.5t50 -5.5zM405 446q-25 -3 -54 -2.5t-53 -9.5q-8 -27 -14.5 -62t-9.5 -70.5
t-3 -68.5t5 -57q7 -4 21 -5t31 -0.5t36 2t36 1.5q1 30 2 65l2 71t1 71v65z" />
    <glyph glyph-name="h" unicode="h" horiz-adv-x="685" 
d="M635 641q3 -39 4.5 -96.5t1.5 -123.5t-1.5 -134t-3 -128.5t-3 -107.5t-2.5 -70q-15 -3 -44.5 -4t-61.5 -1t-59.5 0.5t-36.5 1.5q-2 22 -0.5 47t2 51t0 52t-5.5 50q-10 1 -34 2.5t-49.5 1t-47 -4t-26.5 -13.5q-4 -52 -6 -93.5t0 -93.5q-47 -9 -103 -10.5t-107 2.5
q-5 26 -7 77t-3 114t-0.5 132.5t1.5 133t2.5 116t2.5 80.5q12 3 33 6t45 4.5t48.5 2.5t45 0t35 -3t17.5 -5q-8 -48 -8 -107v-107q16 -4 41 -4t50.5 2.5t46.5 6t29 6.5q3 14 3 39.5t-1 55l-2 58.5t1 50q11 6 39.5 9.5t61 5.5t61.5 2t41 -3z" />
    <glyph glyph-name="i" unicode="i" horiz-adv-x="315" 
d="M293 671q-6 -8 -24.5 -13.5t-43.5 -10t-53 -6.5t-53 -1.5t-43 4t-23 9.5t-6.5 17t-0.5 23t3 23.5t4 18.5q3 11 17.5 19.5t32.5 14t37 8.5l31 5q10 1 23.5 0t27.5 -3.5t27.5 -6t22.5 -6.5q13 -22 19.5 -46t1.5 -49zM266 593q0 -68 -1.5 -140.5t-4 -146.5t-5.5 -147.5
t-7 -143.5q-9 -5 -34 -8t-54 -4.5t-55.5 -1.5t-38.5 1q-5 64 -7 140.5t-2.5 154.5t0.5 152t3 132q48 9 103.5 11t102.5 1z" />
    <glyph glyph-name="j" unicode="j" horiz-adv-x="345" 
d="M293 671q-6 -8 -24.5 -13.5t-43.5 -10t-53 -6.5t-53 -1.5t-43 4t-23 9.5t-6.5 17t-0.5 23t3 23.5t4 18.5q3 11 17.5 19.5t32.5 14t37 8.5l31 5q10 1 23.5 0t27.5 -3.5t27.5 -6t22.5 -6.5q13 -22 19.5 -46t1.5 -49zM285 586q5 -30 6 -84.5t0.5 -121.5t-3.5 -139.5
t-6.5 -138.5t-7 -118.5t-6.5 -78.5q-16 -24 -50.5 -41.5t-79 -30t-93.5 -19.5t-92.5 -9.5t-77 0t-47.5 8.5q-2 18 -5 53t5 79q29 1 57.5 1.5t56 3.5t55 9t55.5 18q5 19 8.5 61t5 97t1.5 117t-1 122t-4 113t-6 88q19 5 46 9.5t57.5 7t63 1.5t62.5 -7z" />
    <glyph glyph-name="k" unicode="k" horiz-adv-x="672" 
d="M646 31q-19 -8 -49.5 -16t-62.5 -15t-61.5 -12t-45.5 -5l-33.5 62l-37 63.5l-35 56.5l-25.5 41h-32q0 -14 0.5 -40.5t0.5 -56t-1 -59t-2 -49.5q-12 -6 -42 -9.5t-64.5 -5.5t-65.5 -2t-44 3q-4 38 -5 103.5t-1 144t1.5 161.5t3 156t3 128t2.5 78q20 4 52.5 6.5t65.5 4
t60.5 2t36.5 -0.5q-1 -13 -1 -37.5t-0.5 -54.5t-0.5 -63t1 -63.5t2 -56.5t3 -42l39.5 38.5l46 44.5l50 45.5t51.5 40.5q48 -17 89 -43t83 -71q-35 -29 -73.5 -72.5t-82.5 -88.5q16 -34 37.5 -67.5l45 -71t47 -81t44.5 -96.5z" />
    <glyph glyph-name="l" unicode="l" horiz-adv-x="353" 
d="M293 770q-4 -37 -6.5 -100.5t-4 -139.5t-2 -157t0 -152.5t2.5 -127t5 -79.5q-32 -9 -57.5 -14.5t-50 -7.5t-50.5 -0.5t-58 6.5q-3 27 -5.5 85.5t-4.5 132.5t-3 156t-0.5 157t3 136t7.5 92q30 6 62 11t61.5 7t55.5 1t45 -6z" />
    <glyph glyph-name="m" unicode="m" horiz-adv-x="889" 
d="M850 -2q-16 -8 -43 -11.5t-58 -4t-63.5 1t-59.5 3.5q-1 10 -2.5 32.5t-3 50t-3.5 57t-3.5 54.5t-3 42.5t-2.5 20.5l-31 2l-23 -46.5l-31 -62.5l-35 -70l-34 -69q-20 0 -40.5 -1t-40.5 2q-19 30 -35.5 62.5l-31 63.5t-26 59l-20.5 49l-33 -4q-4 -19 -6.5 -55t-4 -74
t-2.5 -70.5t-1 -44.5q-45 -8 -89 -8.5t-95 4.5q-1 39 0 95.5t3.5 120t5.5 128.5t6.5 121t7 98.5t5.5 61.5q31 9 75.5 15t87.5 9.5t75.5 4.5t39.5 -1q9 -24 18 -56.5l18.5 -66t19.5 -65t22 -54.5l34 1q6 12 15 33.5l18.5 46.5l19.5 52l18.5 50.5l15 40.5t9.5 24
q22 5 58.5 7.5t77 2.5t79.5 -1.5t65 -5.5q4 -75 6.5 -156.5t5.5 -164.5t6.5 -165t8.5 -159z" />
    <glyph glyph-name="n" unicode="n" horiz-adv-x="744" 
d="M695 625q1 -69 1 -146.5v-156.5t-1.5 -156.5t-3.5 -146.5l-55 -7t-69 -7.5t-77.5 -6.5t-79.5 -3q-39 57 -71 119.5t-60 126.5l-42 -3q-5 -47 -7.5 -107.5t1.5 -127.5q-44 -11 -87.5 -13t-90.5 6q-3 24 -5 68.5t-3.5 100t-2 117.5t-0.5 121.5t0.5 112.5t2.5 91q4 4 25 8
t50.5 7.5t65 6.5t68.5 5t60 2t40 -2l24 -71l27 -79l28.5 -78.5t28.5 -69.5l39 5q0 20 1.5 57.5l3 78t2.5 78t2 57.5q90 21 185 13z" />
    <glyph glyph-name="o" unicode="o" horiz-adv-x="714" 
d="M666 508q4 -21 7 -57.5t3 -80.5t-2.5 -92.5t-8 -94t-14 -84.5t-20.5 -64q-134 -32 -240 -39t-186 -5q-47 19 -92.5 62t-79.5 92q-2 115 10 228t51 206q37 9 97 17.5t125 13.5t125 4.5t97 -9.5q15 -11 34.5 -24l38 -26.5t33.5 -25.5t22 -21zM440 180q2 59 5 131t-7 148
q-38 4 -74 4t-76 -14q-6 -11 -10 -47t-6 -80t-2 -87.5t3 -68.5q16 -3 40 -3t48 2.5t45.5 6.5t33.5 8z" />
    <glyph glyph-name="p" unicode="p" horiz-adv-x="713" 
d="M656 510q13 -45 15 -102t-6.5 -119t-26 -126t-44.5 -122q-37 -12 -84.5 -17t-95 -6t-89 0.5t-66.5 3.5q0 -22 1 -48l2 -53t1 -53t-1 -48l-46.5 -4.5t-54.5 -4t-56 -2t-51 1.5q-2 49 -3.5 117t-3 144t-1.5 155.5t0.5 151.5t2.5 132t6 98q13 4 35.5 6.5t51 5t61.5 3.5l68 2
l-1 -50q53 11 116.5 21.5t130.5 10.5q17 -9 36.5 -21t38.5 -25t35.5 -26.5t28.5 -25.5zM423 423q-13 7 -33.5 8t-42 -1.5t-41.5 -7t-31 -8.5q-2 -17 -3.5 -46t-2 -62t0.5 -66.5t5 -61.5q12 -2 30.5 -5.5t39 -3.5t39.5 5t32 21q11 52 11.5 106t-4.5 122z" />
    <glyph glyph-name="q" unicode="q" horiz-adv-x="722" 
d="M669 631q3 -26 4.5 -80t1.5 -123.5t-1 -150l-2 -161t-2.5 -154.5t-2.5 -131q-26 -8 -57.5 -12.5t-62.5 -5.5t-59.5 0t-48.5 3q1 19 2 45.5l2 52.5t1 48.5t-1 33.5q-14 -3 -41.5 -5.5t-60 -4.5t-65.5 -3t-57 -1q-23 9 -48.5 25t-50 37.5t-45 48t-33.5 56.5q1 56 7 113.5
t16 113t25.5 107t36.5 96.5q25 6 66.5 8.5t86 2.5t86.5 -1.5t69 -4.5l6 55q64 2 121 3.5t107 -11.5zM439 167q3 30 4.5 70t1 79t-2.5 72.5t-4 49.5q-13 3 -29.5 4.5t-33.5 1.5t-33.5 -1.5t-29.5 -3.5q-8 -15 -13.5 -47.5t-8 -71.5t-3.5 -77.5t0 -64.5q8 -8 27.5 -13
t42.5 -6.5t45.5 0.5t36.5 8z" />
    <glyph glyph-name="r" unicode="r" horiz-adv-x="702" 
d="M670 18q-12 -7 -39 -14t-59 -13t-64.5 -10t-57.5 -5q-8 9 -20.5 26l-28 38.5l-32.5 44.5l-34 44l-59 -16q-2 -37 -1 -64.5t-1 -58.5q-15 -4 -37.5 -7.5t-51 -5.5t-60.5 -2t-65 3q-2 27 -4.5 80.5t-4 120.5t-2 139t0.5 135.5t4 111t8 65.5q12 3 35.5 7t53 7t61 4t59.5 -2
v-48q27 7 65 12.5t77.5 9.5t77 5.5t64.5 0.5q21 -17 42.5 -51.5t38 -77.5t25.5 -90t5 -89q-16 -18 -44.5 -47t-60.5 -57q9 -14 26 -43l34 -60l31 -57.5t18 -35.5zM427 332q1 12 -0.5 32.5t-4.5 40.5l-5.5 36t-3.5 20q-8 3 -27 2.5t-40 -3.5t-40.5 -8t-28.5 -11
q-2 -17 -3 -37.5t-1 -40.5t1 -38t4 -30q15 0 35.5 1.5t42 5.5t40.5 11t31 19z" />
    <glyph glyph-name="s" unicode="s" horiz-adv-x="618" 
d="M560 502q-62 -9 -123.5 -13.5t-122.5 -15.5q-12 -18 -15.5 -41.5t-4.5 -45.5q66 -11 132 -30.5t132 -30.5q13 -27 17 -63t1 -73.5t-13 -72t-25 -59.5q-51 -24 -107 -40.5t-113 -28t-115 -19.5t-113 -14q-7 4 -12 24t-9 43.5t-5.5 45.5t-0.5 31q31 1 67 5.5t70.5 10
t63.5 12.5t44 14q3 10 5 27t0 30q-13 9 -50 17l-80 16.5t-83.5 18.5t-60.5 22q-2 36 1 76t10 80.5t18.5 79t27.5 70.5q105 35 222 49.5t227 10.5q11 -30 13.5 -67t1.5 -69z" />
    <glyph glyph-name="t" unicode="t" horiz-adv-x="651" 
d="M622 563q2 -15 2 -33.5t-1.5 -37.5t-4 -36.5t-4.5 -28.5q-38 -5 -82.5 -7.5l-82.5 -4.5q-5 -24 -8 -75.5t-3.5 -112t-0.5 -120.5t1 -102l-57.5 -8.5t-61.5 -7.5t-61.5 -4.5t-57.5 0.5q-7 65 -9.5 115.5t-3.5 97t0 94t1 105.5q-42 4 -83 -0.5t-80 -7.5q-2 36 1.5 77
t14.5 79q14 6 48.5 10t100.5 7q0 18 0.5 40t1.5 45t2.5 45.5t4.5 40.5q27 10 60.5 16t67 9t65 3.5t54.5 0.5v-37t-0.5 -53.5l-1 -57t-0.5 -46.5q64 1 113 -0.5t65 -4.5z" />
    <glyph glyph-name="u" unicode="u" 
d="M657 611q-1 -33 -1.5 -82t-1.5 -105.5t-1.5 -117l-1 -116t0 -102t1.5 -75.5q-11 -6 -36.5 -11t-57 -8.5t-64 -5t-55.5 -0.5l-2 48q-58 -15 -134.5 -22l-161.5 -15q-10 9 -25.5 26l-31.5 36t-29.5 38t-18.5 32q0 24 1 61.5t3.5 82t6 91.5l7 90t7 78t6.5 55q19 7 48.5 12.5
t61.5 9t63 6t54 2.5q-5 -61 -8.5 -114.5t-5.5 -103.5t-3 -99.5t-1 -101.5q16 -2 37 -2t42 3t40 8.5t31 14.5q0 45 -0.5 94l-1 97.5t-0.5 95.5t1 88q57 12 117 14.5t114 -2.5z" />
    <glyph glyph-name="v" unicode="v" horiz-adv-x="661" 
d="M642 611l-53.5 -139.5l-58 -159.5l-58.5 -162.5l-56 -149.5q-26 -3 -56 -5t-60.5 -3.5t-61 -1.5t-56.5 1q-15 37 -31 87t-31.5 106l-30.5 115t-27.5 114.5t-22.5 104.5t-15 84q27 8 60.5 14.5t64 10t53.5 4.5t29 -2q3 -18 8.5 -44.5t12.5 -56.5l14.5 -60.5l14 -57.5
l11.5 -47.5t8 -30.5l51 2q10 34 22.5 71.5l25 76l25.5 76l25 70.5q35 4 67 3t57.5 -4.5t43 -8t25.5 -7.5z" />
    <glyph glyph-name="w" unicode="w" horiz-adv-x="952" 
d="M926 626q-2 -45 -8.5 -101.5t-14.5 -117.5t-18 -123t-20 -117.5l-18.5 -101.5t-14.5 -74q-78 -5 -148 -7.5t-145 -1.5q-2 9 -8 40l-12.5 67.5t-13 69.5t-9.5 46h-39q-5 -15 -12 -40l-16 -55.5l-18.5 -64l-18.5 -66.5q-39 -3 -71 -4t-61.5 -1t-59.5 1t-66 3
q-37 147 -67.5 307.5t-38.5 323.5q51 8 100 16.5t107 -0.5q5 -93 19.5 -164t25.5 -132l29 1q10 28 21 68l21.5 82l20.5 80t18 61q50 5 101 6.5t100 -6.5q10 -29 20.5 -65l21 -73.5l20.5 -74.5t20 -68l30 5q4 28 8.5 64.5t8.5 75l8 75.5l7 66q42 8 92 6.5t99 -6.5z" />
    <glyph glyph-name="x" unicode="x" horiz-adv-x="674" 
d="M669 627q-26 -48 -51.5 -90.5l-50 -81l-48.5 -75l-47 -73.5l44.5 -70.5l48 -80l48 -83.5t43.5 -82q-27 -2 -60.5 -6t-64 -7t-54 -5t-29.5 0q-26 48 -55.5 92.5t-61.5 87.5l-24.5 -40l-29.5 -50l-28.5 -50.5t-20.5 -42.5q-36 -3 -70.5 -3.5t-63.5 1t-49.5 4t-28.5 4.5
q13 34 31.5 75l40 84.5t46 86l48.5 80.5q-11 26 -28.5 61.5l-37.5 74.5l-41 79.5l-39 75.5q24 10 53 19.5t57.5 16.5t54.5 10t45 2q23 -47 47 -91l50 -92q6 12 20.5 35.5l31 51l32.5 54.5l27 45q36 3 71 1.5t64.5 -5t50.5 -7.5t29 -6z" />
    <glyph glyph-name="y" unicode="y" horiz-adv-x="694" 
d="M667 625l-37 -85.5l-42 -89.5l-51 -101l-64 -118q-1 -28 -2.5 -50.5t-3.5 -48.5t-4 -60.5l-5 -85.5q-9 -5 -37.5 -8t-61 -5t-62 -2t-41.5 1q-3 47 -5 82t-3.5 64t-1.5 55v55q-33 40 -69 93t-67.5 104.5t-54.5 94t-29 61.5q27 12 55.5 18t57 8.5t58.5 3t60 1.5
q3 -8 11 -25.5t20.5 -41.5l28.5 -53t35 -59q13 29 25 53l23 45.5l21 42.5l20 43q21 4 48 7.5t57 5t61 1t60 -5.5z" />
    <glyph glyph-name="z" unicode="z" horiz-adv-x="547" 
d="M512 121q3 -29 0 -66t-11 -67q-56 -8 -115.5 -11t-117.5 -3t-113 2t-101 5q-6 15 -11.5 33t-9.5 36t-6 34.5t0 28.5l68.5 94.5l70.5 101.5l62.5 94.5t44.5 72.5q-55 2 -113.5 -1t-112.5 5q-10 29 -12.5 67.5t-0.5 70.5q36 5 91.5 10.5t119.5 7t130 -2.5t124 -17
q1 -14 2 -32l2 -36.5t0.5 -36.5t-3.5 -33q-28 -53 -56.5 -99l-57.5 -89l-57.5 -83l-56.5 -81q24 -2 55.5 -2.5t65 0t65 0t54.5 -2.5z" />
    <glyph glyph-name="braceleft" unicode="{" horiz-adv-x="403" 
d="M374 675q-29 -4 -53 -19t-39 -36q-7 -9 -3 -29.5t11 -46.5t13 -54.5t4 -53.5q-1 -11 -9.5 -21.5t-19.5 -18.5q-12 -10 -27 -18l24 -34q9 -14 16.5 -28.5t7.5 -23.5q0 -30 -8 -57.5t-15.5 -50.5t-11.5 -39.5t2 -25.5q4 -6 12.5 -13t19 -13.5t22.5 -12t23 -6.5
q-3 -40 -12 -74.5t-21 -51.5q-27 4 -58.5 13t-62 21t-58.5 25.5t-47 26.5q-13 8 -15 30.5t1.5 54t10 68t9.5 73.5q1 13 -6.5 33t-18.5 39q-12 22 -28 46q16 13 29 28q11 13 21 28.5t12 31.5q4 34 -2.5 69l-12 66.5t-5.5 59t17 47.5q35 42 99 59.5t144 28.5q5 -9 11 -23.5
t11.5 -31t9 -34t3.5 -32.5z" />
    <glyph glyph-name="bar" unicode="|" horiz-adv-x="459" 
d="M426 583q-17 -2 -37.5 -2.5t-37.5 -1.5q-2 -103 -5 -206t-7 -208q19 -1 38 -1t30 -2q2 -14 4 -35.5t3 -45.5t0.5 -46t-3.5 -35q-41 -3 -87 -4t-94 -2.5t-94.5 -3.5t-86.5 -7q-6 22 -7.5 48t-0.5 50t4 45t7 34q11 1 32.5 1.5t38.5 1.5q-3 101 -4 205.5t1 201.5
q-17 -2 -41.5 -3t-40.5 -3q-6 24 -8 52t-1 54.5t4 49.5t8 38q18 1 48.5 2.5t67 2l76 1t75.5 0.5t66 -1t47 -3q2 -15 4 -39t3 -49.5t1 -49.5t-3 -39z" />
    <glyph glyph-name="braceright" unicode="}" horiz-adv-x="403" 
d="M32 79q29 4 52.5 19t39.5 36q6 9 2 29.5t-10.5 47t-12.5 55t-4 52.5q1 11 9.5 21.5t19.5 18.5q12 10 27 18l-24 34q-9 14 -16.5 28t-7.5 24q0 30 8 57.5t15.5 50.5t11.5 39.5t-2 25.5q-4 6 -12.5 13t-19 13.5t-22.5 11.5t-23 7q3 40 12 74.5t21 51.5q27 -4 58.5 -13
t62 -21t58.5 -25.5t47 -26.5q12 -8 14 -30.5t-1.5 -54t-9.5 -68t-9 -73.5q-2 -14 6 -33.5t19 -38.5q12 -22 28 -46q-17 -13 -30 -28q-11 -13 -20.5 -28.5t-11.5 -31.5q-4 -34 2.5 -68.5l12 -66.5t5 -59.5t-16.5 -47.5q-18 -21 -43 -35.5t-56.5 -24t-67.5 -16t-76 -12.5
q-5 9 -11 23.5t-11.5 31t-9 34t-3.5 32.5z" />
    <glyph glyph-name="asciitilde" unicode="~" horiz-adv-x="568" 
d="M544 660l-17.5 -30.5l-26.5 -45.5t-32.5 -51t-35.5 -47.5t-35.5 -34.5t-31.5 -11q-24 3 -55 18.5t-60 33t-52 29.5t-32 7q-11 -6 -28.5 -29t-31.5 -46q-29 17 -48.5 36.5t-27.5 39.5q12 30 28.5 64.5t35.5 66t39 56.5t40 36q21 12 43.5 5t47 -23t50.5 -36t53 -35
q18 -10 36.5 1t33.5 28q18 19 33 48q22 -14 42.5 -34t31.5 -46z" />
    <glyph glyph-name="uni00A0" unicode="&#xa0;" horiz-adv-x="320" 
 />
    <glyph glyph-name="exclamdown" unicode="&#xa1;" horiz-adv-x="354" 
d="M44 -7l23 159l20 144.5l15.5 117.5t9.5 78q11 2 34.5 5.5t49 5.5t48.5 3t32 -1q8 -134 6.5 -262.5t-1.5 -257.5q-63 -8 -124 -10t-113 18zM88 769q5 10 22 18.5t40 13.5t48.5 8t48 2t39 -5.5t20.5 -12.5q4 -9 5.5 -23.5t1 -31t-2.5 -32t-4 -25.5q-3 -15 -16 -26.5
t-30 -19t-34 -12t-27 -6.5q-9 -2 -21.5 -0.5t-25.5 4.5t-25 7.5t-20 9.5q-12 30 -18 63.5t-1 67.5z" />
    <glyph glyph-name="cent" unicode="&#xa2;" horiz-adv-x="621" 
d="M568 540q-28 -2 -60.5 -7.5t-64.5 -12t-62.5 -13.5l-55.5 -13q-10 -19 -17.5 -48t-11 -60.5t-0.5 -63t14 -54.5q12 -6 43.5 -11.5t70 -10t77 -8.5l65.5 -7q1 -8 -0.5 -26.5t-5.5 -39t-9.5 -39.5t-12.5 -28q-20 2 -34 2.5l-27 1t-27.5 1.5t-36.5 4q-2 -28 -2 -56.5
t-1 -72.5q-14 -4 -39.5 -6.5t-53.5 -3t-53 0.5t-38 5q-10 37 -12 74t-4 79q-20 4 -41.5 7t-42.5 7.5t-40.5 12.5t-35.5 22q-10 44 -10 106t6.5 125t20 117.5t30.5 84.5q12 3 23 6.5l24 7.5t29.5 7.5t39.5 6.5q0 26 -1 47t-2 39l-2 35l-2 35q25 10 54 17t58.5 10.5t58 3.5
t52.5 -3q-8 -49 -10 -89.5t-6 -76.5q27 3 47 5t37 3t31.5 1.5t29.5 0.5q1 -8 3.5 -23t4.5 -33.5t3 -37t-1 -31.5z" />
    <glyph glyph-name="sterling" unicode="&#xa3;" horiz-adv-x="608" 
d="M584 612q-32 -5 -60.5 -9l-55.5 -7.5t-55.5 -8t-60.5 -10.5q-13 -22 -13.5 -44.5t7.5 -36.5q26 -8 46 -12.5t38.5 -7.5t39.5 -5.5t50 -8.5q3 -29 3.5 -65t-3.5 -65q-10 -1 -20.5 -4t-25 -6.5t-33.5 -6.5t-46 -3q-23 -33 -44.5 -67t-54.5 -78q30 -2 62 -1t64 1.5
t63.5 -0.5t61.5 -6q11 -37 13.5 -74.5t0.5 -78.5q-39 -2 -100.5 -8.5t-132.5 -9.5t-145 0t-138 20q-1 18 -2.5 40t-2.5 45.5t-0.5 46t3.5 40.5l52.5 82t30.5 47l-39.5 -3.5t-27.5 -3.5q-8 50 -5.5 86t7.5 65q9 1 34.5 2t62.5 2l-44.5 36.5t-47.5 36.5q4 36 8.5 82t18.5 88
q111 42 235 59t241 12q11 -35 13.5 -79t1.5 -82z" />
    <glyph glyph-name="yen" unicode="&#xa5;" horiz-adv-x="734" 
d="M708 781q-23 -45 -51 -109l-57 -133q17 0 32 -1t24 -3q1 -14 2.5 -37.5t2.5 -48.5t0.5 -48.5t-2.5 -37.5q-33 -4 -67.5 -5.5t-69.5 -3.5l-19 -43.5l-17 -37.5q22 1 47 1.5t48.5 0.5t43 -1t31.5 -3q1 -14 2.5 -37.5t2.5 -48.5t0.5 -48.5t-2.5 -37.5q-45 -5 -91.5 -6
t-92.5 -6l-2 -51l-2 -51q-7 -5 -23.5 -8t-38.5 -5.5t-47 -4t-48 -2t-41 -0.5t-26 1q-2 31 -3 62.5l-2 65.5q-44 -2 -88 -3.5t-86 -9.5q-4 24 -5 51t-0.5 53t2 48.5t4.5 36.5q12 1 32 2.5t43.5 2t48 0.5h45.5l-1 18q-18 28 -36 63q-34 -2 -67.5 -3.5t-65.5 -7.5q-4 24 -5 51
t-0.5 53t2 48.5t4.5 36.5q8 1 20.5 1.5t26.5 1.5q-28 67 -51.5 130t-39.5 111q8 3 30.5 6.5t54 6.5t69 3.5t76.5 -2.5q20 -63 44.5 -119l47.5 -113q3 -7 11 -18.5t21 -11.5q8 0 13 10t7 15q4 12 16 41l26.5 64.5l29 71t23.5 61.5q6 2 29.5 1.5t55 -3l66 -5.5t63.5 -5z" />
    <glyph glyph-name="section" unicode="&#xa7;" horiz-adv-x="650" 
d="M604 535q15 -59 18.5 -122.5t-2.5 -125.5t-19.5 -118t-31.5 -100q-51 -21 -109.5 -36.5t-119 -27t-122 -19.5t-118.5 -14q-7 9 -12.5 28.5t-9 40.5t-5.5 40t-1 27q26 4 68 9.5t84.5 12t77.5 13.5t47 13q5 3 10 10t6 15t-3.5 14.5t-17.5 8.5l-37.5 5.5t-43.5 5.5l-45.5 5
t-57.5 7t-59.5 9.5t-53.5 12.5q-6 36 -8 82t-0.5 95.5t7 99.5t14 94.5t20.5 79.5t26 55q23 7 59.5 14t80 13.5t91 12.5t92 9.5t83 5.5t64.5 1q1 -8 3.5 -24t4.5 -34.5t3 -37.5t-1 -32q-27 -2 -64 -6.5t-76 -10l-76 -11l-64 -9.5q-11 -11 -15.5 -29t2.5 -35q20 -4 62.5 -10.5
l90.5 -13.5l91.5 -13.5t66.5 -9.5zM408 411q-11 0 -29 2.5t-38.5 6.5l-41.5 8t-39 7q-11 -23 -12 -38t5 -35q16 -7 38.5 -11.5t44.5 -7t41 -3.5t29 -1q6 22 7.5 38.5t-5.5 33.5z" />
    <glyph glyph-name="dieresis" unicode="&#xa8;" horiz-adv-x="523" 
d="M474 643q0 -14 -2 -27.5t-5 -26.5q-3 -12 -17 -20t-30.5 -12.5t-32.5 -6t-24 -1.5q-6 0 -16.5 5t-20 14t-16.5 21t-7 26q0 25 4.5 51.5t16.5 39.5q7 7 19.5 11.5t26.5 7.5t26 4.5t17 1.5q10 0 21 -9t20 -22.5t14.5 -29t5.5 -27.5zM227 637q0 -14 -2 -28t-5 -27
q-4 -12 -18 -20t-31 -12.5t-33.5 -6.5t-25.5 -2q-7 0 -17.5 5.5t-20.5 14.5t-17.5 21t-7.5 26q0 26 5 53t17 39q7 7 20.5 12t27.5 8t26.5 4.5t17.5 1.5q11 0 22.5 -9.5t20.5 -23t15 -29t6 -27.5z" />
    <glyph glyph-name="copyright" unicode="&#xa9;" horiz-adv-x="821" 
d="M769 162q-26 -40 -49.5 -80.5t-52.5 -78.5q-66 -9 -141 -13t-145.5 -5t-130.5 0.5t-97 3.5q-13 14 -27.5 36t-28.5 47t-25.5 49.5t-18.5 44.5q-5 53 -8 111t-3.5 115.5t1.5 112t5 100.5q28 32 56.5 71t59.5 73q34 7 79 11.5t92.5 7.5t94.5 4t87.5 1h69.5t41 1
q35 -32 68.5 -81.5t59.5 -93.5q6 -44 10 -107.5t5.5 -128t1 -119.5t-3.5 -82zM592 120q13 61 17 131.5t0.5 140.5t-13 135.5t-23.5 116.5q-41 12 -93 16t-101 0.5t-88.5 -14t-56.5 -28.5q-20 -35 -30.5 -98.5t-11.5 -135.5t7 -141t25 -115q40 -14 91.5 -23t103 -10.5
t97.5 4.5t76 21zM556 149q-19 -5 -61 -3t-89 8t-89 16t-61 23q-10 19 -15.5 49t-6.5 65t1.5 71.5t7.5 69.5t13 59.5t17 40.5q57 32 119.5 44t130.5 13q4 -4 8 -14.5t7 -25t4.5 -29.5t1.5 -28q-8 -4 -27.5 -8l-42 -9t-44 -11.5t-32.5 -15.5q-7 -15 -10 -38.5t-3 -50.5t3 -54
t8 -48q35 -17 75 -16.5t85 -4.5q5 -32 3.5 -60.5t-3.5 -42.5z" />
    <glyph glyph-name="ordfeminine" unicode="&#xaa;" horiz-adv-x="504" 
d="M464 255q-7 -4 -31 -8.5t-51.5 -8t-52.5 -5t-34 -0.5q-1 8 -1 20.5t-1 20.5h-48.5t-58.5 2t-61.5 6t-57.5 13q-8 14 -12.5 41t-6 60.5t0 71t5 73t10 66t15.5 49.5q16 7 44 14t63 13.5t73.5 12t74.5 9.5t66.5 6t49.5 2q6 -57 10 -119t5.5 -122.5t1 -116t-2.5 -100.5z
M289 376q-2 60 -2 110.5t1 107.5q-11 -1 -19 -2t-15.5 -3.5t-15.5 -6.5t-20 -11q-4 -21 -8 -49.5t-6 -56.5t-1 -53t7 -40q14 -5 37 -0.5t42 4.5zM463 1q-50 -3 -102 -4.5l-104.5 -3t-104.5 -3.5t-101 -8q-7 24 -9.5 51.5t-1 54t5.5 49.5t9 37l52.5 2.5t71 2l79 1t78.5 0.5
t69.5 -1t51.5 -3q3 -15 5.5 -38.5t3.5 -49t0.5 -49.5t-3.5 -38z" />
    <glyph glyph-name="guillemotleft" unicode="&#xab;" horiz-adv-x="736" 
d="M418 681l-46.5 -88l-44.5 -78.5l-43.5 -72.5l-42.5 -70l39 -74.5l43 -81.5l43.5 -80l39.5 -70q-24 -2 -54 -6t-58 -7t-49 -5t-26 0q-51 79 -96.5 157t-84.5 159q51 85 95 165.5l92 167.5q32 3 63.5 1.5t58 -4.5t45.5 -7t26 -6zM704 681l-46.5 -88l-44.5 -78.5
l-43.5 -72.5l-42.5 -70l39 -74.5l43 -81.5l43.5 -80l39.5 -70q-24 -2 -54 -6t-58 -7t-49 -5t-26 0q-52 79 -97 157t-84 159q51 85 95 165.5l92 167.5q32 3 63.5 1.5t58 -4.5t45.5 -7t26 -6z" />
    <glyph glyph-name="logicalnot" unicode="&#xac;" horiz-adv-x="738" 
d="M487 27l6.5 70.5t5 74t0 74.5t-8.5 71q-26 0 -76 0.5t-111.5 0.5t-128.5 -0.5t-127 -2.5q-1 12 -2 36t-0.5 53l1 60t2 58.5t4 48.5t5.5 28q38 3 89 3.5t107.5 -0.5t115.5 -3t114 -4.5l102 -4.5t80 -3q2 -43 2 -95t-1 -106.5t-3.5 -108t-5.5 -101t-6 -85.5t-5 -60
q-42 -9 -79.5 -9t-79.5 5z" />
    <glyph glyph-name="registered" unicode="&#xae;" horiz-adv-x="821" 
d="M769 162q-26 -40 -49.5 -80.5t-52.5 -78.5q-66 -9 -141 -13t-145.5 -5t-130.5 0.5t-97 3.5q-13 14 -27.5 36t-28.5 47t-25.5 49.5t-18.5 44.5q-5 53 -8 111t-3.5 115.5t1.5 112t5 100.5q28 32 56.5 71t59.5 73q34 7 79 11.5t92.5 7.5t94.5 4t87.5 1h69.5t41 1
q35 -32 68.5 -81.5t59.5 -93.5q6 -44 10 -107.5t5.5 -128t1 -119.5t-3.5 -82zM592 120q13 61 17 131.5t0.5 140.5t-13 135.5t-23.5 116.5q-41 12 -93 16t-101 0.5t-88.5 -14t-56.5 -28.5q-20 -35 -30.5 -98.5t-11.5 -135.5t7 -141t25 -115q40 -14 91.5 -23t103 -10.5
t97.5 4.5t76 21zM581 165q-20 -16 -50 -20.5t-59 -0.5q-24 33 -38 59l-32 58q-5 10 -13.5 17t-17.5 2q-3 -1 -4.5 -6t-3 -11.5t-2 -13t-0.5 -10.5q-1 -26 0.5 -41.5t-0.5 -41.5q-22 -3 -53.5 -0.5l-56.5 4.5q-2 11 -2.5 42t-0.5 71.5t0.5 86.5t2 88.5t2.5 76.5t3 51
q15 5 48.5 9t72 6t73.5 2.5t52 -1.5q31 -38 47 -82.5t26 -98.5q-1 -9 -9.5 -23t-19 -29l-19.5 -28t-11 -19q8 -15 18.5 -37.5t20 -45l17 -40.5t9.5 -24zM446 403q3 24 -4 41.5t-9 30.5q-4 5 -11.5 7.5t-16.5 3t-18 -0.5t-15 -3l-2.5 -21t-3 -27.5t-1.5 -29.5t2 -28
q6 -1 17 0.5t22.5 5t22 8.5t17.5 13z" />
    <glyph glyph-name="macron" unicode="&#xaf;" horiz-adv-x="812" 
d="M619 763q-99 -5 -204.5 -5.5t-203.5 -9.5q-7 19 -9.5 41.5t-1 44t5 40t8.5 30.5q20 1 52.5 2t70.5 2t79 1.5t78.5 0t69 -1t50.5 -2.5q3 -12 5 -31.5t3 -40.5t0.5 -40t-3.5 -31z" />
    <glyph glyph-name="degree" unicode="&#xb0;" horiz-adv-x="438" 
d="M410 671q2 -31 1.5 -64t-2.5 -64.5t-6 -58.5t-10 -46q-12 -18 -46 -31.5t-75.5 -22t-83 -10t-68.5 4.5q-14 5 -28 20t-25 33t-18.5 35t-7.5 27q-2 60 4.5 116t17.5 107q13 15 45.5 27.5t70.5 21.5t74 12t56 -1q10 -2 27 -14.5t33 -29t28 -33.5t13 -29zM280 590
q0 28 -6 57h-8q-20 0 -40.5 -2.5t-38.5 -10.5q-4 -26 -4 -50.5v-50.5q0 -6 0.5 -12.5t0.5 -12.5q7 -2 13.5 -2h13.5q17 0 35 3t32 13q0 17 1 34t1 34z" />
    <glyph glyph-name="plusminus" unicode="&#xb1;" horiz-adv-x="434" 
d="M397 388q-15 -2 -37 -2.5t-48 -1.5q-2 -29 -4 -70.5t-4 -75.5q-8 -4 -32 -6.5t-51.5 -4t-52.5 -1.5t-36 1q-1 16 -2 36l-2 40.5l-2 40t-2 35.5q-24 -1 -44.5 -3t-34.5 -4q-4 21 -5.5 45t-0.5 47t3 43t5 32q9 1 29 2t46 2q0 16 0.5 37l1 42.5t1.5 42t2 36.5q45 8 97 9.5
t96 0.5v-41.5v-45t-0.5 -43.5t-0.5 -37q26 0 46 -0.5t29 -2.5l2.5 -33.5t2.5 -43t0.5 -43t-2.5 -33.5zM394 9q-83 -6 -172.5 -6.5t-172.5 -10.5q-6 23 -8 49t-1 51t4.5 46.5t7.5 35.5q26 2 72.5 3.5t97.5 2t97 0t71 -3.5q2 -14 4 -36.5t3 -47t0.5 -47t-3.5 -36.5z" />
    <glyph glyph-name="acute" unicode="&#xb4;" horiz-adv-x="309" 
d="M286 728l-74 -95t-75 -77q-26 -1 -59 1t-58 10q14 22 25.5 47.5t21 50.5t17 47.5l12.5 37.5q108 11 190 -22z" />
    <glyph glyph-name="mu" unicode="&#xb5;" horiz-adv-x="768" 
d="M716 762q6 -63 7 -133t-1 -140t-6 -135.5t-7 -119.5q-47 -26 -89.5 -40t-73.5 -19q-65 -3 -133 -7t-128 -4q-1 -27 -2 -46t-2.5 -36t-2.5 -36t-2 -46q-10 -6 -38 -10t-60 -6t-61.5 -2.5t-42.5 1.5q-11 184 -12.5 377t6.5 386q5 4 22.5 7t41 4.5t51 2t52.5 0.5t44.5 -0.5
t28.5 -1.5l-6.5 -94.5t-6.5 -100t-4 -99.5t1 -94q6 -5 28.5 -8t50.5 -3.5t55.5 1t42.5 5.5q4 27 7 76.5t3.5 106.5t0 113t-2.5 94q20 3 56.5 5t74 3t68.5 1t40 -2z" />
    <glyph glyph-name="paragraph" unicode="&#xb6;" horiz-adv-x="821" 
d="M773 752q1 -85 2.5 -180t1.5 -194t-2.5 -199t-8.5 -195q-33 -4 -64.5 -4t-59.5 2.5t-51 7t-37 9.5q-1 19 -3 43t-3.5 49t-2 49t-0.5 44q-8 2 -20.5 3t-27.5 3q-1 -49 -1.5 -98.5t-0.5 -102.5q-23 0 -46 -1.5t-46 -2t-46 1.5t-46 8q-2 52 -3 107l-2 113q-50 8 -92 16
t-62 17q-17 15 -35 36t-35.5 44.5l-33.5 47t-28 43.5q-4 54 4.5 106t25 97t38 81t42.5 58q28 3 81.5 6t118.5 4.5t135 1t131.5 -2.5t109 -6.5t67.5 -11.5zM551 580q-5 4 -17 5.5t-30 3.5q1 -51 0 -99.5l-2 -96.5q33 -3 48 -3q3 15 4 38.5t1 50t-1.5 53t-2.5 48.5zM306 578
q-13 -3 -22 -6t-12 -7q-1 -5 -3.5 -19.5l-5.5 -33.5t-5 -39t0 -36q6 -4 18 -7.5t28 -7.5q0 39 0.5 78t1.5 78z" />
    <glyph glyph-name="periodcentered" unicode="&#xb7;" horiz-adv-x="354" 
d="M288 356q0 -14 -2.5 -28t-7.5 -28q-5 -12 -22.5 -20t-39 -12.5t-42.5 -6.5t-32 -2q-9 0 -22 5.5t-26 14.5t-22 21.5t-9 26.5q0 26 6 53t22 40q9 7 25.5 12t34.5 8t34 4.5t22 1.5q14 0 28.5 -9.5t26 -23t19 -29.5t7.5 -28z" />
    <glyph glyph-name="cedilla" unicode="&#xb8;" horiz-adv-x="648" 
d="M465 197q2 -31 3 -72.5t-1.5 -83t-9.5 -77t-19 -53.5q-29 -12 -66.5 -19t-76.5 -10t-77.5 -4t-68.5 -1q-4 3 -7 15t-5 27t-2.5 30.5t-0.5 26.5l38.5 4.5t40.5 5.5t37 8t27 13q6 13 9.5 35t4.5 49t1 56.5t-1 58.5q14 3 38.5 3t50.5 -2t49.5 -5t35.5 -5z" />
    <glyph glyph-name="ordmasculine" unicode="&#xba;" horiz-adv-x="504" 
d="M463 1q-50 -3 -102 -4.5l-104.5 -3t-104.5 -3.5t-101 -8q-7 24 -9.5 51.5t-1 54t5.5 49.5t9 37l52.5 2.5t71 2l79 1t78.5 0.5t69.5 -1t51.5 -3q3 -15 5.5 -38.5t3.5 -49t0.5 -49.5t-3.5 -38zM467 583q2 -35 1.5 -72.5t-3 -72.5t-7 -65.5t-10.5 -51.5q-14 -20 -52.5 -35.5
t-86 -24.5t-94.5 -11t-78 5q-16 5 -32 22t-28.5 37t-21 39.5t-8.5 30.5q-2 68 5 130.5t20 119.5q15 16 52 31t80.5 24.5t84.5 13.5t63 -1q12 -3 31 -16.5t37.5 -32t32 -38t14.5 -32.5zM319 492q0 17 -2 32.5t-5 31.5h-9q-22 0 -46 -3t-44 -12q-5 -29 -4.5 -56.5t0.5 -56.5
v-14t1 -14q8 -2 15.5 -2h15.5q18 0 39 3.5t37 14.5q0 19 1 38t1 38z" />
    <glyph glyph-name="guillemotright" unicode="&#xbb;" horiz-adv-x="722" 
d="M39 68q23 47 46 88l45 78.5l43.5 72.5l42.5 70l-39 74l-43.5 81l-43.5 80l-39 71q24 2 54 6t57.5 7t48.5 4.5t27 -0.5q51 -78 96.5 -156t84.5 -160q-51 -84 -95 -165l-92 -167q-32 -3 -63.5 -1.5t-58 4.5t-45.5 7t-26 6zM317 68l46.5 88l44.5 78.5l43.5 72.5l42.5 70
l-39 74l-43.5 81l-43.5 80l-39 71q24 2 54 6t58 7t49 4.5t26 -0.5q51 -78 96.5 -156t84.5 -160q-51 -84 -95 -165l-92 -167q-32 -3 -63.5 -1.5t-58 4.5t-45.5 7t-26 6z" />
    <glyph glyph-name="questiondown" unicode="&#xbf;" horiz-adv-x="566" 
d="M31 268q14 14 33.5 31t40.5 33.5t41 30.5t35 23q6 16 9.5 31.5t6 31t4.5 31.5t6 33q15 5 45 8.5t63.5 6t64 4t46.5 1.5q3 -17 4.5 -39t1.5 -45t-1.5 -45.5l-2.5 -38.5q-11 -11 -26.5 -24t-34 -26.5t-40 -27t-42.5 -24.5q-4 -20 -2.5 -41.5t6.5 -37.5q16 -10 50.5 -10.5
t72 4t69.5 11t44 11.5l-9.5 -49.5t-10 -46.5t-12 -47t-15.5 -51q-26 -15 -62.5 -23t-78.5 -11t-85.5 -1.5t-83 6.5t-70.5 13t-48 18q-5 19 -10.5 53t-9.5 71.5t-4.5 74t5.5 61.5zM192 739q14 16 46.5 27t69.5 16t70.5 3t49.5 -12q4 -3 6.5 -19.5t3 -36.5t-1 -37.5
t-5.5 -22.5q-18 -23 -47 -35t-60.5 -14.5t-62 2.5t-52.5 16q-2 4 -5.5 14.5t-7.5 25.5t-5.5 34t1.5 39z" />
    <glyph glyph-name="Agrave" unicode="&#xc0;" horiz-adv-x="812" 
d="M806 -2q-30 -5 -63 -8.5t-65.5 -5t-62.5 -2t-54 0.5q-6 19 -11 32.5t-9 26.5t-7.5 27.5t-7.5 34.5q-28 3 -64 4.5t-72 0.5t-68.5 -4t-52.5 -8q-9 -16 -14.5 -28t-10 -24t-8.5 -26t-8 -32q-22 -5 -52.5 -7.5t-62 -2.5t-61 2.5t-49.5 5.5q7 49 26.5 119t44.5 147.5t53 155
l53 141.5q-12 0 -23 2l-18 4t-14 5q4 14 8 31.5t8.5 35t9.5 33t10 26.5q25 6 64.5 10.5t86 7t97 3.5t98 -0.5t89 -5t69.5 -10.5l38 -168.5l37.5 -167t35 -172.5t30.5 -184zM487 283q-2 25 -7 56t-11.5 62t-14 58.5t-15.5 45.5q-22 3 -44 0q-2 -5 -8 -21.5l-13.5 -39
l-15.5 -48.5l-15 -49.5t-11 -41t-4 -23.5q13 -3 37 -4.5t48.5 -1t45 2.5t28.5 4zM251 911q41 18 88.5 26t101.5 4l12 -39.5t16.5 -49.5t21 -53t25.5 -50q-25 -9 -58 -12.5t-59 -3.5q-18 15 -37 35t-38 43.5t-37 49z" />
    <glyph glyph-name="Aacute" unicode="&#xc1;" horiz-adv-x="812" 
d="M806 -2q-30 -5 -63 -8.5t-65.5 -5t-62.5 -2t-54 0.5q-6 19 -11 32.5t-9 26.5t-7.5 27.5t-7.5 34.5q-28 3 -64 4.5t-72 0.5t-68.5 -4t-52.5 -8q-9 -16 -14.5 -28t-10 -24t-8.5 -26t-8 -32q-22 -5 -52.5 -7.5t-62 -2.5t-61 2.5t-49.5 5.5q7 49 26.5 119t44.5 147.5t53 155
l53 141.5q-12 0 -23 2l-18 4t-14 5q4 14 8 31.5t8.5 35t9.5 33t10 26.5q25 6 64.5 10.5t86 7t97 3.5t98 -0.5t89 -5t69.5 -10.5l38 -168.5l37.5 -167t35 -172.5t30.5 -184zM487 283q-2 25 -7 56t-11.5 62t-14 58.5t-15.5 45.5q-22 3 -44 0q-2 -5 -8 -21.5l-13.5 -39
l-15.5 -48.5l-15 -49.5t-11 -41t-4 -23.5q13 -3 37 -4.5t48.5 -1t45 2.5t28.5 4zM608 913l-74 -95t-75 -77q-26 -1 -59 1t-58 10q14 22 25.5 48t21 50.5t16.5 47l12 37.5q109 11 191 -22z" />
    <glyph glyph-name="Acircumflex" unicode="&#xc2;" horiz-adv-x="812" 
d="M806 -2q-30 -5 -63 -8.5t-65.5 -5t-62.5 -2t-54 0.5q-6 19 -11 32.5t-9 26.5t-7.5 27.5t-7.5 34.5q-28 3 -64 4.5t-72 0.5t-68.5 -4t-52.5 -8q-9 -16 -14.5 -28t-10 -24t-8.5 -26t-8 -32q-22 -5 -52.5 -7.5t-62 -2.5t-61 2.5t-49.5 5.5q7 49 26.5 119t44.5 147.5t53 155
l53 141.5q-12 0 -23 2l-18 4t-14 5q4 14 8 31.5t8.5 35t9.5 33t10 26.5q25 6 64.5 10.5t86 7t97 3.5t98 -0.5t89 -5t69.5 -10.5l38 -168.5l37.5 -167t35 -172.5t30.5 -184zM487 283q-2 25 -7 56t-11.5 62t-14 58.5t-15.5 45.5q-22 3 -44 0q-2 -5 -8 -21.5l-13.5 -39
l-15.5 -48.5l-15 -49.5t-11 -41t-4 -23.5q13 -3 37 -4.5t48.5 -1t45 2.5t28.5 4zM621 748q-17 -2 -38.5 -4t-41 -4t-34 -3t-18.5 0l-14 24.5t-16.5 26.5l-15.5 24l-11 17q-2 2 -4.5 7t-7.5 5q-8 0 -12 -6t-6 -10l-28 -43.5t-24 -46.5q-23 -2 -45 -2t-40.5 0.5t-31.5 2
t-18 3.5q8 22 20 48l25.5 53.5t29 55t30.5 51.5q15 2 41 3t54 1.5t52.5 0t36.5 -1.5l27 -48.5l31 -53.5l31 -53z" />
    <glyph glyph-name="Atilde" unicode="&#xc3;" horiz-adv-x="812" 
d="M806 -2q-30 -5 -63 -8.5t-65.5 -5t-62.5 -2t-54 0.5q-6 19 -11 32.5t-9 26.5t-7.5 27.5t-7.5 34.5q-28 3 -64 4.5t-72 0.5t-68.5 -4t-52.5 -8q-9 -16 -14.5 -28t-10 -24t-8.5 -26t-8 -32q-22 -5 -52.5 -7.5t-62 -2.5t-61 2.5t-49.5 5.5q7 49 26.5 119t44.5 147.5t53 155
l53 141.5q-12 0 -23 2l-18 4t-14 5q4 14 8 31.5t8.5 35t9.5 33t10 26.5q25 6 64.5 10.5t86 7t97 3.5t98 -0.5t89 -5t69.5 -10.5l38 -168.5l37.5 -167t35 -172.5t30.5 -184zM487 283q-2 25 -7 56t-11.5 62t-14 58.5t-15.5 45.5q-22 3 -44 0q-2 -5 -8 -21.5l-13.5 -39
l-15.5 -48.5l-15 -49.5t-11 -41t-4 -23.5q13 -3 37 -4.5t48.5 -1t45 2.5t28.5 4zM657 878q-5 -7 -15.5 -20.5l-24 -29.5l-29.5 -33.5t-32 -31.5t-31.5 -22.5t-28.5 -7.5q-21 1 -49 11.5t-54 22t-47 19.5t-29 5q-11 -4 -26 -19t-28 -31q-52 22 -68 51q10 19 25 42t32 43.5
t35 37t36 24.5q19 8 39.5 3.5t42.5 -15t45.5 -24t47.5 -23.5q17 -7 33 0.5t30 18.5q16 13 30 32q20 -9 38 -22.5t28 -30.5z" />
    <glyph glyph-name="Adieresis" unicode="&#xc4;" horiz-adv-x="812" 
d="M806 -2q-30 -5 -63 -8.5t-65.5 -5t-62.5 -2t-54 0.5q-6 19 -11 32.5t-9 26.5t-7.5 27.5t-7.5 34.5q-28 3 -64 4.5t-72 0.5t-68.5 -4t-52.5 -8q-9 -16 -14.5 -28t-10 -24t-8.5 -26t-8 -32q-22 -5 -52.5 -7.5t-62 -2.5t-61 2.5t-49.5 5.5q7 49 26.5 119t44.5 147.5t53 155
l53 141.5q-12 0 -23 2l-18 4t-14 5q4 14 8 31.5t8.5 35t9.5 33t10 26.5q25 6 64.5 10.5t86 7t97 3.5t98 -0.5t89 -5t69.5 -10.5l38 -168.5l37.5 -167t35 -172.5t30.5 -184zM487 283q-2 25 -7 56t-11.5 62t-14 58.5t-15.5 45.5q-22 3 -44 0q-2 -5 -8 -21.5l-13.5 -39
l-15.5 -48.5l-15 -49.5t-11 -41t-4 -23.5q13 -3 37 -4.5t48.5 -1t45 2.5t28.5 4zM661 836q0 -26 -8 -55q-3 -12 -16.5 -20t-30 -12.5t-32.5 -6t-25 -1.5q-6 0 -16.5 5t-20 14t-16.5 21.5t-7 26.5q0 25 5 51.5t17 38.5q6 7 19 12t26.5 8t25.5 4.5t17 1.5q11 0 22 -9.5t20 -23
t14.5 -28.5t5.5 -27zM414 830q0 -27 -8 -56q-3 -12 -17.5 -20t-31.5 -12.5t-33.5 -6t-25.5 -1.5q-7 0 -17.5 5t-20.5 14t-17 21.5t-7 26.5q0 26 5 52.5t17 39.5q7 7 20 12t27.5 8t27 4.5t17.5 1.5q11 0 22.5 -9.5t20.5 -23t15 -29t6 -27.5z" />
    <glyph glyph-name="Aring" unicode="&#xc5;" horiz-adv-x="812" 
d="M487 283q-2 25 -7 56t-11.5 62t-14 58.5t-15.5 45.5q-22 3 -44 0q-2 -5 -8 -21.5l-13.5 -39l-15.5 -48.5l-15 -49.5t-11 -41t-4 -23.5q13 -3 37 -4.5t48.5 -1t45 2.5t28.5 4zM613 861q2 -20 1.5 -41.5t-2.5 -41.5t-6.5 -37.5t-10.5 -29.5q-5 -5 -13 -9q25 -2 45.5 -4.5
t37.5 -7.5l38 -168.5l37.5 -167t35 -172.5t30.5 -184q-30 -5 -63 -8.5t-65.5 -5t-62.5 -2t-54 0.5q-6 19 -11 32.5t-9 26.5t-7.5 27.5t-7.5 34.5q-28 3 -64 4.5t-72 0.5t-68.5 -4t-52.5 -8q-9 -16 -14.5 -28t-10 -24t-8.5 -26t-8 -32q-22 -5 -52.5 -7.5t-62 -2.5t-61 2.5
t-49.5 5.5q7 49 26.5 119t44.5 147.5t53 155l53 141.5q-12 0 -23 2l-18 4t-14 5q4 14 8 31.5t8.5 35t9.5 33t10 26.5q20 5 48 8.5t62 6.5q-14 13 -23.5 26t-10.5 21q-2 38 5 74.5t18 69.5q13 9 46 17.5t72 14t75.5 7.5t56.5 -1q11 -2 28 -9.5t33.5 -18t28.5 -21.5t13 -19z
M480 809q0 18 -6 36h-8q-20 0 -41 -1.5t-39 -6.5q-5 -17 -4.5 -32.5t0.5 -32.5v-8t1 -8q7 -1 13.5 -1.5t13.5 -0.5q17 0 35.5 2t32.5 9q1 11 1.5 22t0.5 22z" />
    <glyph glyph-name="AE" unicode="&#xc6;" horiz-adv-x="1108" 
d="M518 311q0 63 0.5 126.5t2.5 125.5h-16t-15 -2q-3 -5 -12.5 -23.5l-21.5 -43.5l-25 -54l-24 -55t-18.5 -45.5t-8.5 -26.5q10 -3 27.5 -4.5t37 -1.5t39 1t34.5 3zM1064 622q-61 -3 -121.5 -1t-121.5 -5q-7 -9 -11 -29.5t-5.5 -44t0.5 -46t8 -37.5q4 -2 33 -1.5t65.5 1.5
t72 0.5t51.5 -3.5q3 -29 5 -64.5t-2 -64.5q-27 -3 -56 -3.5l-57.5 -1t-57 -2t-55.5 -7.5q-2 -2 -2.5 -5.5t-1.5 -6.5v-129q1 -4 1 -7t1 -6q18 -6 50.5 -6.5t69 0t71 1.5t57.5 -2q5 -37 6.5 -80.5t-8.5 -81.5q-54 -6 -106.5 -8t-105.5 -2.5t-107 0.5t-112 1q-39 -1 -70 0v6
l-27 3l-4 62t-3 66q-28 3 -61 3.5t-65.5 -1t-61.5 -4.5t-48 -8l-19 -31.5t-15 -27t-13.5 -28.5l-14.5 -35q-23 -6 -54 -8.5t-62.5 -2.5t-60.5 2.5t-48 5.5q16 55 49 133t73 163.5l83 172l80 157.5q-11 1 -22 3l-18 4t-13 5l13.5 35.5l15.5 39t16 36.5t15 29q23 6 56.5 10.5
t73 7.5t83.5 4.5t87 1.5q58 5 121.5 6.5t125 1.5t118 -1.5t102.5 -3.5q4 -13 6 -35t2.5 -46t0 -47t-1.5 -38z" />
    <glyph glyph-name="Ccedilla" unicode="&#xc7;" horiz-adv-x="656" 
d="M467 13q-2 -45 -8.5 -83.5t-20.5 -58.5q-29 -12 -66.5 -19t-76.5 -10t-77.5 -4t-68.5 -1q-4 3 -7 15t-5 27t-2.5 30.5t-0.5 26.5l38.5 4.5t40.5 5.5t37 8t27 13q5 10 7.5 25.5t4.5 34.5q-59 8 -114.5 21t-106.5 34q-17 23 -26 70t-12 106t0.5 125.5t13 128.5t23.5 115
t33 86q23 14 65 27t93.5 23.5t106.5 18t104 10.5t86 1.5t53 -9.5q1 -11 3 -29.5t2.5 -41.5t-0.5 -49.5t-5 -53.5q-41 -4 -77.5 -6t-70.5 -5t-65.5 -10t-63.5 -22q-9 -36 -17.5 -83.5t-12 -95.5t-1 -90.5t15.5 -67.5q14 -10 39.5 -15.5t56.5 -9t64.5 -4.5t63.5 -2.5
t52.5 -3.5t31.5 -7q1 -21 -1 -49.5t-5.5 -54.5t-9.5 -47t-14 -27q-61 0 -127 3z" />
    <glyph glyph-name="Egrave" unicode="&#xc8;" horiz-adv-x="678" 
d="M634 560q-61 -3 -121.5 -1.5t-121.5 -4.5q-7 -9 -11 -27t-5.5 -39t0.5 -41.5t8 -33.5q4 -1 33 -0.5t65.5 1t72 0t51.5 -3.5q3 -26 5 -57.5t-2 -58.5q-27 -3 -56 -3.5t-57.5 -0.5t-57 -1.5t-55.5 -6.5q-6 -11 -8 -29.5t-1.5 -38.5t2.5 -39.5t5 -31.5q18 -5 50.5 -5.5t69 0
t71 1.5t57.5 -2q5 -33 6.5 -72.5t-8.5 -73.5q-66 -6 -129 -9.5t-127 -4t-131 2.5t-141 11q-6 63 -8 133t-2.5 142.5t1 145.5t3.5 141q-14 0 -32 0.5t-32 0.5q1 34 6 70t13 67q62 13 139 18t155.5 6t153.5 -1.5l132 -4.5q4 -12 6 -31.5t2.5 -41t0 -42.5t-1.5 -34zM184 922
q42 18 89 26t101 3l12.5 -39t17 -49t21 -53t25.5 -50q-25 -9 -58 -13t-59 -3q-19 15 -38 35t-37.5 43.5l-37 49z" />
    <glyph glyph-name="Eacute" unicode="&#xc9;" horiz-adv-x="678" 
d="M634 560q-61 -3 -121.5 -1.5t-121.5 -4.5q-7 -9 -11 -27t-5.5 -39t0.5 -41.5t8 -33.5q4 -1 33 -0.5t65.5 1t72 0t51.5 -3.5q3 -26 5 -57.5t-2 -58.5q-27 -3 -56 -3.5t-57.5 -0.5t-57 -1.5t-55.5 -6.5q-6 -11 -8 -29.5t-1.5 -38.5t2.5 -39.5t5 -31.5q18 -5 50.5 -5.5t69 0
t71 1.5t57.5 -2q5 -33 6.5 -72.5t-8.5 -73.5q-66 -6 -129 -9.5t-127 -4t-131 2.5t-141 11q-6 63 -8 133t-2.5 142.5t1 145.5t3.5 141q-14 0 -32 0.5t-32 0.5q1 34 6 70t13 67q62 13 139 18t155.5 6t153.5 -1.5l132 -4.5q4 -12 6 -31.5t2.5 -41t0 -42.5t-1.5 -34zM540 920
l-74 -95t-75 -77q-26 -1 -59 1t-58 10q14 22 25.5 48t21 50.5t17 47l12.5 37.5q54 5 101.5 0t88.5 -22z" />
    <glyph glyph-name="Ecircumflex" unicode="&#xca;" horiz-adv-x="678" 
d="M634 560q-61 -3 -121.5 -1.5t-121.5 -4.5q-7 -9 -11 -27t-5.5 -39t0.5 -41.5t8 -33.5q4 -1 33 -0.5t65.5 1t72 0t51.5 -3.5q3 -26 5 -57.5t-2 -58.5q-27 -3 -56 -3.5t-57.5 -0.5t-57 -1.5t-55.5 -6.5q-6 -11 -8 -29.5t-1.5 -38.5t2.5 -39.5t5 -31.5q18 -5 50.5 -5.5t69 0
t71 1.5t57.5 -2q5 -33 6.5 -72.5t-8.5 -73.5q-66 -6 -129 -9.5t-127 -4t-131 2.5t-141 11q-6 63 -8 133t-2.5 142.5t1 145.5t3.5 141q-14 0 -32 0.5t-32 0.5q1 34 6 70t13 67q62 13 139 18t155.5 6t153.5 -1.5l132 -4.5q4 -12 6 -31.5t2.5 -41t0 -42.5t-1.5 -34zM562 757
q-17 -2 -38.5 -4t-41 -4t-34 -3t-18.5 0l-14 24.5t-16.5 26.5l-15.5 23.5l-11 16.5q-2 2 -4.5 7.5t-7.5 5.5q-8 0 -12.5 -6.5l-6.5 -9.5l-27.5 -43.5t-23.5 -46.5q-23 -2 -45 -2.5t-40.5 0.5t-31.5 2.5t-18 3.5q8 22 20 48l25.5 53.5t29 55t30.5 51.5q15 2 41 3t54 1.5
t52.5 0t36.5 -1.5l27 -49.5l31 -53.5l31 -52.5z" />
    <glyph glyph-name="Edieresis" unicode="&#xcb;" horiz-adv-x="678" 
d="M634 560q-61 -3 -121.5 -1.5t-121.5 -4.5q-7 -9 -11 -27t-5.5 -39t0.5 -41.5t8 -33.5q4 -1 33 -0.5t65.5 1t72 0t51.5 -3.5q3 -26 5 -57.5t-2 -58.5q-27 -3 -56 -3.5t-57.5 -0.5t-57 -1.5t-55.5 -6.5q-6 -11 -8 -29.5t-1.5 -38.5t2.5 -39.5t5 -31.5q18 -5 50.5 -5.5t69 0
t71 1.5t57.5 -2q5 -33 6.5 -72.5t-8.5 -73.5q-66 -6 -129 -9.5t-127 -4t-131 2.5t-141 11q-6 63 -8 133t-2.5 142.5t1 145.5t3.5 141q-14 0 -32 0.5t-32 0.5q1 34 6 70t13 67q62 13 139 18t155.5 6t153.5 -1.5l132 -4.5q4 -12 6 -31.5t2.5 -41t0 -42.5t-1.5 -34zM571 846
q0 -26 -8 -55q-3 -12 -16.5 -20t-30 -12.5t-32.5 -6t-25 -1.5q-6 0 -16.5 5.5t-20 14.5t-16.5 21t-7 26q0 25 5 51.5t16 38.5q7 7 20 12t26.5 8t25.5 4.5t17 1.5q10 0 21 -9.5t20 -23t15 -28.5t6 -27zM324 840q0 -27 -8 -56q-3 -12 -17.5 -20t-31.5 -12.5t-33.5 -6
t-25.5 -1.5q-7 0 -17.5 5t-20.5 14t-17 21.5t-7 26.5q0 26 4.5 52.5t17.5 39.5q7 7 20 12t27.5 8t27 4.5t17.5 1.5q11 0 22.5 -9.5t20.5 -23t15 -29t6 -27.5z" />
    <glyph glyph-name="Igrave" unicode="&#xcc;" horiz-adv-x="350" 
d="M295 691q0 -170 -5.5 -342.5t-13.5 -346.5q-10 -6 -38 -10t-60 -5.5t-61.5 -2t-42.5 1.5q-5 79 -7.5 170t-3.5 182.5t0 179t4 159.5q53 11 114.5 13t113.5 1zM-4 899q41 22 88.5 33.5t101.5 11.5l12 -37.5t16.5 -48t21.5 -51.5t26 -48q-26 -11 -59 -17.5t-59 -8.5
q-37 27 -75 73t-73 93z" />
    <glyph glyph-name="Iacute" unicode="&#xcd;" horiz-adv-x="350" 
d="M295 691q0 -170 -5.5 -342.5t-13.5 -346.5q-10 -6 -38 -10t-60 -5.5t-61.5 -2t-42.5 1.5q-5 79 -7.5 170t-3.5 182.5t0 179t4 159.5q53 11 114.5 13t113.5 1zM362 918l-74 -95t-75 -77q-26 -2 -59 0.5t-58 10.5q14 22 25.5 47.5t21 50.5t16.5 47.5l12 37.5
q106 10 191 -22z" />
    <glyph glyph-name="Icircumflex" unicode="&#xce;" horiz-adv-x="350" 
d="M295 691q0 -170 -5.5 -342.5t-13.5 -346.5q-10 -6 -38 -10t-60 -5.5t-61.5 -2t-42.5 1.5q-5 79 -7.5 170t-3.5 182.5t0 179t4 159.5q53 11 114.5 13t113.5 1zM349 746q-14 -2 -31 -4l-33 -4t-28 -3t-15 0q-5 11 -11.5 24l-13 26t-12.5 23.5t-9 16.5q-1 3 -3 8t-6 5
q-6 0 -10 -6.5t-6 -9.5l-22 -43.5t-20 -46.5q-18 -2 -35.5 -2t-32.5 0.5t-26 2t-15 3.5q7 22 16.5 48l20.5 53.5t23.5 55t25.5 51.5q12 2 33 3t43.5 1t42.5 -0.5t30 -0.5l22 -49l24.5 -53l25 -52.5z" />
    <glyph glyph-name="Idieresis" unicode="&#xcf;" horiz-adv-x="350" 
d="M295 691q0 -170 -5.5 -342.5t-13.5 -346.5q-10 -6 -38 -10t-60 -5.5t-61.5 -2t-42.5 1.5q-5 79 -7.5 170t-3.5 182.5t0 179t4 159.5q53 11 114.5 13t113.5 1zM351 832q0 -14 -2 -28t-5 -27q-3 -12 -13.5 -20t-24 -12.5t-26.5 -6t-20 -1.5q-5 0 -13 5t-16 14t-13.5 21
t-5.5 26q0 26 3.5 52.5t13.5 38.5q5 7 15.5 12t21.5 8t21 4.5t14 1.5q9 0 17.5 -9.5t16 -23t12 -28.5t4.5 -27zM151 825q0 -14 -2 -27.5t-5 -27.5q-3 -12 -14 -20t-25 -12.5t-27.5 -6.5t-20.5 -2q-5 0 -14 5.5t-17 14.5t-14 21.5t-6 26.5q0 26 4 52.5t14 39.5q6 7 16.5 12
t22.5 8t22 4.5t14 1.5q9 0 18 -9.5t16.5 -23t12.5 -29.5t5 -28z" />
    <glyph glyph-name="Eth" unicode="&#xd0;" horiz-adv-x="845" 
d="M83 281l-42 -3q-7 19 -9.5 41.5t-1 44t5 40t8.5 30.5q8 1 18.5 1t22.5 1q1 42 1.5 82t0.5 76l-57 4q0 26 1.5 52.5t3.5 49l3.5 40t2.5 26.5q66 10 149 17t168.5 9t167.5 -1.5t148 -14.5l75 -78.5t66 -93.5q-1 -76 -5.5 -159.5t-15 -163.5t-27.5 -151t-44 -123
q-25 -9 -68.5 -17.5t-98.5 -14.5t-117.5 -9.5t-124.5 -2.5t-120 6.5t-104 16.5q-5 57 -6 133.5t-1 161.5zM449 293q-26 -2 -53 -2.5t-55 -1.5q0 -49 1 -84t3 -40q41 -12 84 -7t75 17q14 44 24 97t14.5 106t3.5 101t-8 81q-16 15 -41 23t-53 9.5t-55 -3.5t-46 -15
q-1 -12 -1 -49t-1 -86q32 0 59 -0.5t44 -2.5q3 -12 5 -31.5t3 -40.5t0.5 -40t-3.5 -31z" />
    <glyph glyph-name="Ntilde" unicode="&#xd1;" horiz-adv-x="827" 
d="M773 691q2 -168 1 -338t-6 -338q-26 -4 -61.5 -8.5t-77 -8.5t-86 -7t-88.5 -4q-44 69 -79 144.5t-66 152.5l-49 -5q-6 -57 -7.5 -130t2.5 -154q-48 -13 -96.5 -15t-100.5 8q-4 29 -6.5 78.5t-4 110t-2 128t-0.5 133t1 126t3 105.5q4 4 27.5 9t56.5 9.5t72 8t75.5 5.5
t66.5 2t45 -2q25 -78 56 -151l62 -148l47 3q1 3 1.5 19.5t1.5 41t2 54t1.5 59t1 55t1.5 41.5q101 25 206 16zM663 863q-6 -7 -16 -20.5t-24 -30l-29.5 -34t-31.5 -31.5t-31.5 -22.5t-28.5 -7.5q-21 2 -49 12.5t-54 21.5t-47 19t-29 5q-11 -4 -26.5 -18.5t-27.5 -30.5
q-53 23 -69 50q11 20 26 42.5t32 43.5t35 37.5t36 24.5t38.5 3.5t42.5 -15t45.5 -24t48.5 -23.5q16 -7 32 0.5t30 18.5q16 13 30 32q20 -9 38 -22.5t29 -30.5z" />
    <glyph glyph-name="Ograve" unicode="&#xd2;" horiz-adv-x="824" 
d="M783 531q4 -69 3.5 -140.5t-8.5 -138.5t-25 -127t-44 -106q-31 -7 -74 -13t-93 -11t-104 -8t-107 -3t-102 3t-90 10q-12 13 -28.5 32.5t-32.5 41.5t-29.5 44.5t-19.5 40.5q-1 30 1 71.5t6.5 88.5t11.5 96t16.5 95.5t22.5 86.5t28 68q50 15 119 24.5t141.5 13.5t140.5 3.5
t118 -5.5q18 -15 38.5 -35t40.5 -42.5t38.5 -45.5t31.5 -44zM504 522q-14 3 -35 3.5t-44.5 -1t-47.5 -4.5t-42 -9q-4 -9 -7.5 -34.5t-6 -59.5t-4 -72.5t-2 -73.5t-1 -63.5t0.5 -41.5q20 -5 46 -7.5t52 -2.5t49.5 3t37.5 10q6 80 10.5 169t-6.5 184zM247 907q81 43 190 45
l12 -38.5t17 -48t21.5 -51t25.5 -47.5q-25 -11 -58 -17.5t-59 -8.5q-19 13 -38 32t-37.5 41l-37 46z" />
    <glyph glyph-name="Oacute" unicode="&#xd3;" horiz-adv-x="824" 
d="M783 531q4 -69 3.5 -140.5t-8.5 -138.5t-25 -127t-44 -106q-31 -7 -74 -13t-93 -11t-104 -8t-107 -3t-102 3t-90 10q-12 13 -28.5 32.5t-32.5 41.5t-29.5 44.5t-19.5 40.5q-1 30 1 71.5t6.5 88.5t11.5 96t16.5 95.5t22.5 86.5t28 68q50 15 119 24.5t141.5 13.5t140.5 3.5
t118 -5.5q18 -15 38.5 -35t40.5 -42.5t38.5 -45.5t31.5 -44zM504 522q-14 3 -35 3.5t-44.5 -1t-47.5 -4.5t-42 -9q-4 -9 -7.5 -34.5t-6 -59.5t-4 -72.5t-2 -73.5t-1 -63.5t0.5 -41.5q20 -5 46 -7.5t52 -2.5t49.5 3t37.5 10q6 80 10.5 169t-6.5 184zM575 919l-74 -95t-75 -77
q-26 -2 -59 0.5t-58 10.5q14 22 25.5 47.5t21 50.5t17 47.5l12.5 37.5q54 5 101.5 -0.5t88.5 -21.5z" />
    <glyph glyph-name="Ocircumflex" unicode="&#xd4;" horiz-adv-x="824" 
d="M783 531q4 -69 3.5 -140.5t-8.5 -138.5t-25 -127t-44 -106q-31 -7 -74 -13t-93 -11t-104 -8t-107 -3t-102 3t-90 10q-12 13 -28.5 32.5t-32.5 41.5t-29.5 44.5t-19.5 40.5q-1 30 1 71.5t6.5 88.5t11.5 96t16.5 95.5t22.5 86.5t28 68q50 15 119 24.5t141.5 13.5t140.5 3.5
t118 -5.5q18 -15 38.5 -35t40.5 -42.5t38.5 -45.5t31.5 -44zM504 522q-14 3 -35 3.5t-44.5 -1t-47.5 -4.5t-42 -9q-4 -9 -7.5 -34.5t-6 -59.5t-4 -72.5t-2 -73.5t-1 -63.5t0.5 -41.5q20 -5 46 -7.5t52 -2.5t49.5 3t37.5 10q6 80 10.5 169t-6.5 184zM609 758l-38.5 -4.5
t-41 -4t-34.5 -2.5t-19 0l-13.5 24.5t-16 26.5l-15.5 23.5l-11 16.5q-2 2 -4.5 7t-7.5 5q-8 0 -12.5 -6t-6.5 -9l-27.5 -44t-23.5 -47q-23 -2 -45 -2t-40.5 0.5t-31.5 2t-18 3.5q8 22 20 48l25.5 53.5t29 55t30.5 51.5q15 2 41 3t54 1.5t52.5 0t36.5 -1.5l27 -48.5l31 -53.5
l31 -52.5z" />
    <glyph glyph-name="Otilde" unicode="&#xd5;" horiz-adv-x="824" 
d="M783 531q4 -69 3.5 -140.5t-8.5 -138.5t-25 -127t-44 -106q-31 -7 -74 -13t-93 -11t-104 -8t-107 -3t-102 3t-90 10q-12 13 -28.5 32.5t-32.5 41.5t-29.5 44.5t-19.5 40.5q-1 30 1 71.5t6.5 88.5t11.5 96t16.5 95.5t22.5 86.5t28 68q50 15 119 24.5t141.5 13.5t140.5 3.5
t118 -5.5q18 -15 38.5 -35t40.5 -42.5t38.5 -45.5t31.5 -44zM504 522q-14 3 -35 3.5t-44.5 -1t-47.5 -4.5t-42 -9q-4 -9 -7.5 -34.5t-6 -59.5t-4 -72.5t-2 -73.5t-1 -63.5t0.5 -41.5q20 -5 46 -7.5t52 -2.5t49.5 3t37.5 10q6 80 10.5 169t-6.5 184zM657 878
q-5 -7 -15.5 -20.5l-24 -29.5l-29.5 -33.5t-32 -31.5t-31.5 -22.5t-28.5 -7.5q-21 1 -49 11.5t-54 22t-47 19.5t-29 5q-11 -4 -26 -19t-28 -31q-52 22 -68 51q10 19 25 42t32 43.5t35 37t36 24.5q19 8 39.5 3.5t42.5 -15t45.5 -24t47.5 -23.5q17 -7 33 0.5t30 18.5
q16 13 30 32q20 -9 38 -22.5t28 -30.5z" />
    <glyph glyph-name="Odieresis" unicode="&#xd6;" horiz-adv-x="824" 
d="M783 531q4 -69 3.5 -140.5t-8.5 -138.5t-25 -127t-44 -106q-31 -7 -74 -13t-93 -11t-104 -8t-107 -3t-102 3t-90 10q-12 13 -28.5 32.5t-32.5 41.5t-29.5 44.5t-19.5 40.5q-1 30 1 71.5t6.5 88.5t11.5 96t16.5 95.5t22.5 86.5t28 68q50 15 119 24.5t141.5 13.5t140.5 3.5
t118 -5.5q18 -15 38.5 -35t40.5 -42.5t38.5 -45.5t31.5 -44zM504 522q-14 3 -35 3.5t-44.5 -1t-47.5 -4.5t-42 -9q-4 -9 -7.5 -34.5t-6 -59.5t-4 -72.5t-2 -73.5t-1 -63.5t0.5 -41.5q20 -5 46 -7.5t52 -2.5t49.5 3t37.5 10q6 80 10.5 169t-6.5 184zM618 836q0 -26 -8 -55
q-3 -12 -16.5 -20t-30 -12.5t-32.5 -6t-24 -1.5q-7 0 -17 5t-19.5 14t-16.5 21.5t-7 26.5q0 25 4.5 51.5t16.5 38.5q6 7 19 12t26.5 8t25.5 4.5t17 1.5q11 0 22 -9.5t20 -23t14.5 -28.5t5.5 -27zM371 830q0 -27 -8 -56q-3 -12 -17 -20t-31 -12.5t-33.5 -6t-25.5 -1.5
q-7 0 -17.5 5t-20.5 14t-17.5 21.5t-7.5 26.5q0 26 5 52.5t17 39.5q7 7 20.5 12t27.5 8t26.5 4.5t17.5 1.5q11 0 22.5 -9.5t20.5 -23t15 -29t6 -27.5z" />
    <glyph glyph-name="multiply" unicode="&#xd7;" horiz-adv-x="674" 
d="M669 727q-26 -48 -51.5 -90.5l-50 -81l-48.5 -75l-47 -73.5l44.5 -70.5l48 -80l48 -83.5t43.5 -82q-27 -2 -60.5 -6t-64 -7t-54 -5t-29.5 0q-26 48 -55.5 92.5t-61.5 87.5l-24.5 -40l-29.5 -50l-28.5 -50.5t-20.5 -42.5q-36 -3 -70.5 -3.5t-63.5 1t-49.5 4t-28.5 4.5
q13 34 31.5 75l40 84.5t46 86l48.5 80.5q-11 26 -28.5 61.5l-37.5 74.5l-41 79.5l-39 75.5q24 10 53 19.5t57.5 16.5t54.5 10t45 2q23 -47 47 -91l50 -92q6 12 20.5 35.5l31 51l32.5 54.5l27 45q36 3 71 1.5t64.5 -5t50.5 -7.5t29 -6z" />
    <glyph glyph-name="Oslash" unicode="&#xd8;" horiz-adv-x="824" 
d="M316 322l39.5 127l39.5 122q-17 -2 -32 -5t-28 -7q-4 -9 -7 -33.5t-5.5 -57.5t-4 -71.5t-2.5 -74.5zM511 427l-37.5 -120.5l-36.5 -122.5q19 2 35.5 5t27.5 9q4 54 7.5 111t3.5 118zM649 822l-12 -32.5t-13 -33.5q7 0 10 -1q18 -15 38.5 -36.5t40.5 -45t38.5 -47.5
t31.5 -46q4 -73 3.5 -148.5t-8.5 -146.5t-25 -134t-44 -112q-27 -6 -64 -12t-79 -10.5t-88.5 -8.5t-93.5 -5q-8 -25 -14.5 -49.5l-13.5 -49.5q-26 -5 -51 -5t-46 1.5t-36 5t-21 6.5q7 24 13 47l12 46q-24 2 -46 4.5t-42 6.5q-12 13 -28.5 34t-32.5 44t-29.5 46.5t-19.5 42.5
q-1 32 1 76t6.5 93.5t11.5 101.5t16.5 101t22.5 91t28 72q33 10 74 18t86.5 13t93 8t93.5 4l15.5 42l15.5 42q26 4 51.5 2.5t47 -6.5t36.5 -10.5t21 -8.5z" />
    <glyph glyph-name="Ugrave" unicode="&#xd9;" horiz-adv-x="779" 
d="M730 679q-1 -58 -2.5 -127t-2 -138.5l-1 -135t1.5 -116.5q-6 -17 -17 -37.5t-24.5 -41.5t-29 -41.5l-28.5 -36.5q-46 -1 -106.5 -4t-125.5 -5t-129.5 -2t-118.5 5q-11 11 -25 30.5l-28 41t-25.5 43t-16.5 36.5q0 28 -1 70.5t-2 91t-1.5 100.5t0 99t2 86t4.5 63
q65 8 124 9.5t128 -7.5q-5 -72 -7 -135t-1 -120t3.5 -110t5.5 -105q16 -7 39.5 -10t47.5 -1t45.5 9t35.5 20q0 54 -1 113t-1.5 118.5t-0.5 116.5t1 106q32 7 63.5 10t63.5 4t64.5 0.5t65.5 0.5zM204 877q42 22 89 33.5t101 11.5l12.5 -37.5t17 -48t21 -51.5t25.5 -48
q-25 -11 -58 -17.5t-59 -8.5q-19 13 -38 32t-37.5 41l-37 46z" />
    <glyph glyph-name="Uacute" unicode="&#xda;" horiz-adv-x="779" 
d="M730 679q-1 -58 -2.5 -127t-2 -138.5l-1 -135t1.5 -116.5q-6 -17 -17 -37.5t-24.5 -41.5t-29 -41.5l-28.5 -36.5q-46 -1 -106.5 -4t-125.5 -5t-129.5 -2t-118.5 5q-11 11 -25 30.5l-28 41t-25.5 43t-16.5 36.5q0 28 -1 70.5t-2 91t-1.5 100.5t0 99t2 86t4.5 63
q65 8 124 9.5t128 -7.5q-5 -72 -7 -135t-1 -120t3.5 -110t5.5 -105q16 -7 39.5 -10t47.5 -1t45.5 9t35.5 20q0 54 -1 113t-1.5 118.5t-0.5 116.5t1 106q32 7 63.5 10t63.5 4t64.5 0.5t65.5 0.5zM583 889l-73.5 -96t-75.5 -77q-26 -1 -59 1t-58 10q14 22 25.5 48t21 50.5
t17 47l12.5 37.5q108 11 190 -21z" />
    <glyph glyph-name="Ucircumflex" unicode="&#xdb;" horiz-adv-x="779" 
d="M730 679q-1 -58 -2.5 -127t-2 -138.5l-1 -135t1.5 -116.5q-6 -17 -17 -37.5t-24.5 -41.5t-29 -41.5l-28.5 -36.5q-46 -1 -106.5 -4t-125.5 -5t-129.5 -2t-118.5 5q-11 11 -25 30.5l-28 41t-25.5 43t-16.5 36.5q0 28 -1 70.5t-2 91t-1.5 100.5t0 99t2 86t4.5 63
q65 8 124 9.5t128 -7.5q-5 -72 -7 -135t-1 -120t3.5 -110t5.5 -105q16 -7 39.5 -10t47.5 -1t45.5 9t35.5 20q0 54 -1 113t-1.5 118.5t-0.5 116.5t1 106q32 7 63.5 10t63.5 4t64.5 0.5t65.5 0.5zM592 730q-17 -2 -38 -4l-40.5 -4t-34.5 -3t-19 0l-13.5 24.5t-16 26.5
l-15.5 23.5l-11 16.5q-2 2 -4.5 7t-7.5 5q-8 0 -12.5 -6t-6.5 -9l-27.5 -43.5t-24.5 -46.5q-23 -2 -44.5 -2.5t-40 0.5t-31.5 2.5t-18 2.5q8 22 19.5 48.5t25.5 54t29.5 55t30.5 51.5q15 2 41 3t54 1t52.5 -0.5t36.5 -0.5l27 -49.5l31 -53.5l31 -52.5z" />
    <glyph glyph-name="Udieresis" unicode="&#xdc;" horiz-adv-x="779" 
d="M730 679q-1 -58 -2.5 -127t-2 -138.5l-1 -135t1.5 -116.5q-6 -17 -17 -37.5t-24.5 -41.5t-29 -41.5l-28.5 -36.5q-46 -1 -106.5 -4t-125.5 -5t-129.5 -2t-118.5 5q-11 11 -25 30.5l-28 41t-25.5 43t-16.5 36.5q0 28 -1 70.5t-2 91t-1.5 100.5t0 99t2 86t4.5 63
q65 8 124 9.5t128 -7.5q-5 -72 -7 -135t-1 -120t3.5 -110t5.5 -105q16 -7 39.5 -10t47.5 -1t45.5 9t35.5 20q0 54 -1 113t-1.5 118.5t-0.5 116.5t1 106q32 7 63.5 10t63.5 4t64.5 0.5t65.5 0.5zM603 824q0 -27 -8 -54q-3 -12 -16.5 -20t-30 -12.5t-32.5 -6t-25 -1.5
q-6 0 -16.5 5t-20 14t-16.5 21t-7 26q0 25 5 51.5t17 39.5q6 7 19 11.5t26.5 7.5t25.5 4.5t17 1.5q11 0 22 -9t20 -22.5t14.5 -29t5.5 -27.5zM356 818q0 -28 -8 -55q-3 -12 -17 -20t-31.5 -12.5t-34 -6.5t-25.5 -2q-7 0 -17.5 5.5t-20.5 14.5t-17 21t-7 26q0 26 5 53t17 39
q7 7 20 12t27.5 8t27 4.5t17.5 1.5q11 0 22.5 -9.5t20.5 -23t15 -29t6 -27.5z" />
    <glyph glyph-name="Yacute" unicode="&#xdd;" horiz-adv-x="734" 
d="M749 685q-29 -43 -60.5 -96.5l-64.5 -110.5l-66.5 -113.5l-64.5 -105.5q-1 -69 -2.5 -133.5t-3.5 -120.5q-27 -5 -56.5 -6.5t-59.5 -1.5t-59.5 1.5t-56.5 1.5q0 67 -2 134l-4 134q-18 21 -39.5 54l-44 71t-44.5 80t-40.5 81t-32 73t-19.5 58q31 2 70 5l74.5 5.5t62.5 3.5
t34 -1q1 -6 8 -22t17.5 -37.5l23.5 -46l26 -48t25.5 -42.5t22.5 -29q9 8 21 25.5t24.5 39.5l26 46l25 46l21 40l14.5 27q41 3 78 2t66.5 -3t50 -5.5t29.5 -5.5zM563 896l-74 -95t-75 -77q-26 -2 -59 0.5t-58 10.5q14 22 25.5 47.5t21 50.5t17 47.5l12.5 37.5
q54 5 101.5 -0.5t88.5 -21.5z" />
    <glyph glyph-name="Thorn" unicode="&#xde;" horiz-adv-x="713" 
d="M656 620q13 -45 15 -102t-6.5 -119t-26 -126t-44.5 -122q-37 -12 -84.5 -17t-95 -6t-89 0.5t-66.5 3.5q0 -22 1 -37l2 -29t1 -29t-1 -37l-46.5 -4.5t-54.5 -4t-56 -2t-51 1.5q-2 49 -3.5 117t-3 144t-1.5 155.5t0.5 151.5t2.5 132t6 98q13 4 35.5 6.5t51 5t61.5 3.5l68 2
l-1 -120q53 11 116.5 21.5t130.5 10.5q17 -9 36.5 -21t38.5 -25t35.5 -26.5t28.5 -25.5zM423 533q-13 7 -33.5 8t-42 -1.5t-41.5 -7t-31 -8.5q-2 -17 -3.5 -46t-2 -62t0.5 -66.5t5 -61.5q12 -2 30.5 -5.5t39 -3.5t39.5 5t32 21q11 52 11.5 106t-4.5 122z" />
    <glyph glyph-name="germandbls" unicode="&#xdf;" horiz-adv-x="781" 
d="M757 271q1 -18 -5.5 -42.5t-19.5 -51t-30.5 -53t-38.5 -49.5q-18 -12 -54 -21.5t-78 -16t-85.5 -10.5t-77.5 -5q-7 26 -11 59.5t4 86.5q20 2 40 5.5t36 7.5q17 14 26.5 30.5t13 33.5t1.5 32t-8 26q-11 5 -32.5 8.5t-45.5 5t-47 0.5t-36 -6q-2 -10 -3 -33.5t-0.5 -54.5
t1.5 -68t2.5 -74.5t4.5 -73t6 -63.5q-33 0 -64 -1l-62 -2t-61.5 0.5t-62.5 7.5q-4 50 -6.5 119.5t-3 147t-0.5 157.5t1.5 152.5t3.5 131.5t5 93q49 8 104.5 13.5t111.5 8.5t109.5 3.5t99 -1.5t79.5 -5.5t51 -8.5q32 -20 56 -65.5t32 -99.5q-8 -26 -21.5 -52t-31 -49
t-37 -41.5t-38.5 -28.5l37.5 -19.5t50.5 -31.5t49.5 -44.5t34.5 -57.5zM438 606q-7 10 -23 15t-34 5.5t-35.5 -2t-26.5 -5.5q-7 -6 -11 -28t-6 -46.5t-1.5 -45t3.5 -24.5q7 -9 24.5 -9t38 3.5t40 8.5t28.5 8q5 12 8 27.5t3.5 32t-1.5 32t-7 28.5z" />
    <glyph glyph-name="agrave" unicode="&#xe0;" horiz-adv-x="692" 
d="M648 4q-14 -4 -38.5 -8t-54 -7.5t-60 -6t-55.5 -3.5l-4 39q-84 -14 -141 -21.5t-105 -12.5q-12 4 -31 12t-40 18.5t-42 23t-37 25.5q-5 21 -5 58t3 77t8 75.5t11 52.5q22 13 65 27t92.5 27t98.5 22.5t84 12.5q1 5 1.5 19t-1.5 21q-11 3 -32.5 5t-49 3t-58.5 0.5t-60 -0.5
t-53.5 -1t-38.5 -1q-1 19 0.5 40.5t4.5 41t8 34.5t12 22q55 7 117.5 11t123.5 3.5t117 -6t100 -16.5q13 -20 24 -60.5t19 -93t13.5 -113t7.5 -119t1 -111.5t-5 -90zM421 162q-1 38 -3.5 64.5t-7.5 61.5q-17 -5 -36 -10t-37 -10.5t-33 -12t-23 -13.5q0 -5 -0.5 -18.5t0 -28.5
t3 -28.5t9.5 -17.5q8 -1 23.5 0t33.5 3t37 4.5t34 5.5zM191 836q41 18 88.5 26t101.5 4l12 -39.5t16.5 -49.5t21 -53t25.5 -50q-25 -9 -58 -12.5t-59 -3.5q-18 15 -37 35t-38 43.5t-37 49z" />
    <glyph glyph-name="aacute" unicode="&#xe1;" horiz-adv-x="692" 
d="M545 844l-73 -96t-75 -77q-26 -1 -59.5 1.5t-58.5 10.5q14 22 26 47.5t21.5 50.5t16.5 47l12 37q54 6 101.5 0.5t88.5 -21.5zM648 4q-14 -4 -38.5 -8t-54 -7.5t-60 -6t-55.5 -3.5l-4 39q-84 -14 -141 -21.5t-105 -12.5q-12 4 -31 12t-40 18.5t-42 23t-37 25.5
q-5 21 -5 58t3 77t8 75.5t11 52.5q22 13 65 27t92.5 27t98.5 22.5t84 12.5q1 5 1.5 19t-1.5 21q-11 3 -32.5 5t-49 3t-58.5 0.5t-60 -0.5t-53.5 -1t-38.5 -1q-1 19 0.5 40.5t4.5 41t8 34.5t12 22q55 7 117.5 11t123.5 3.5t117 -6t100 -16.5q13 -20 24 -60.5t19 -93
t13.5 -113t7.5 -119t1 -111.5t-5 -90zM421 162q-1 38 -3.5 64.5t-7.5 61.5q-17 -5 -36 -10t-37 -10.5t-33 -12t-23 -13.5q0 -5 -0.5 -18.5t0 -28.5t3 -28.5t9.5 -17.5q8 -1 23.5 0t33.5 3t37 4.5t34 5.5z" />
    <glyph glyph-name="acircumflex" unicode="&#xe2;" horiz-adv-x="692" 
d="M568 680q-17 -2 -38.5 -4t-41 -4t-34 -3t-18.5 0l-14 24.5t-16.5 26.5l-15.5 23.5l-11 16.5q-2 2 -4.5 7t-7.5 5q-7 0 -11.5 -6t-6.5 -9l-27.5 -44t-24.5 -47q-23 -2 -45 -2t-40.5 0.5t-31.5 2t-18 3.5q8 22 20 48l25.5 53.5t29 55t31.5 51.5q15 2 41 3t53.5 1.5t52 0
t37.5 -1.5l27 -48.5l30.5 -53.5l30.5 -52.5zM648 4q-14 -4 -38.5 -8t-54 -7.5t-60 -6t-55.5 -3.5l-4 39q-84 -14 -141 -21.5t-105 -12.5q-12 4 -31 12t-40 18.5t-42 23t-37 25.5q-5 21 -5 58t3 77t8 75.5t11 52.5q22 13 65 27t92.5 27t98.5 22.5t84 12.5q1 5 1.5 19t-1.5 21
q-11 3 -32.5 5t-49 3t-58.5 0.5t-60 -0.5t-53.5 -1t-38.5 -1q-1 19 0.5 40.5t4.5 41t8 34.5t12 22q55 7 117.5 11t123.5 3.5t117 -6t100 -16.5q13 -20 24 -60.5t19 -93t13.5 -113t7.5 -119t1 -111.5t-5 -90zM421 162q-1 38 -3.5 64.5t-7.5 61.5q-17 -5 -36 -10t-37 -10.5
t-33 -12t-23 -13.5q0 -5 -0.5 -18.5t0 -28.5t3 -28.5t9.5 -17.5q8 -1 23.5 0t33.5 3t37 4.5t34 5.5z" />
    <glyph glyph-name="atilde" unicode="&#xe3;" horiz-adv-x="692" 
d="M580 802q-6 -7 -16 -20.5t-24 -29.5l-29.5 -33.5t-31.5 -31.5t-31.5 -22.5t-28.5 -7.5q-22 1 -49.5 11.5t-54 22t-47 19.5t-28.5 5q-11 -5 -26.5 -19.5t-28.5 -30.5q-52 23 -68 50q11 20 26 42.5t32 43.5t35 37.5t36 24.5t38.5 3.5t42.5 -15t45.5 -24t47.5 -23.5
q17 -7 33 0.5t30 18.5q16 13 30 32q20 -9 38 -22.5t29 -30.5zM648 4q-14 -4 -38.5 -8t-54 -7.5t-60 -6t-55.5 -3.5l-4 39q-84 -14 -141 -21.5t-105 -12.5q-12 4 -31 12t-40 18.5t-42 23t-37 25.5q-5 21 -5 58t3 77t8 75.5t11 52.5q22 13 65 27t92.5 27t98.5 22.5t84 12.5
q1 5 1.5 19t-1.5 21q-11 3 -32.5 5t-49 3t-58.5 0.5t-60 -0.5t-53.5 -1t-38.5 -1q-1 19 0.5 40.5t4.5 41t8 34.5t12 22q55 7 117.5 11t123.5 3.5t117 -6t100 -16.5q13 -20 24 -60.5t19 -93t13.5 -113t7.5 -119t1 -111.5t-5 -90zM421 162q-1 38 -3.5 64.5t-7.5 61.5
q-17 -5 -36 -10t-37 -10.5t-33 -12t-23 -13.5q0 -5 -0.5 -18.5t0 -28.5t3 -28.5t9.5 -17.5q8 -1 23.5 0t33.5 3t37 4.5t34 5.5z" />
    <glyph glyph-name="adieresis" unicode="&#xe4;" horiz-adv-x="692" 
d="M581 766q0 -26 -8 -55q-3 -12 -16.5 -20t-30 -12.5t-32.5 -6t-25 -1.5q-6 0 -16.5 5t-20 14t-16.5 21.5t-7 26.5q0 25 5 51.5t17 38.5q6 7 19 12t26.5 8t25.5 4.5t17 1.5q11 0 22 -9.5t20 -23t14.5 -28.5t5.5 -27zM334 760q0 -27 -8 -56q-3 -12 -17.5 -20t-31.5 -12.5
t-33.5 -6t-25.5 -1.5q-7 0 -17.5 5t-20.5 14t-17 21.5t-7 26.5q0 26 5 52.5t17 39.5q7 7 20 12t27.5 8t27 4.5t17.5 1.5q11 0 22.5 -9.5t20.5 -23t15 -29t6 -27.5zM648 4q-14 -4 -38.5 -8t-54 -7.5t-60 -6t-55.5 -3.5l-4 39q-84 -14 -141 -21.5t-105 -12.5q-12 4 -31 12
t-40 18.5t-42 23t-37 25.5q-5 21 -5 58t3 77t8 75.5t11 52.5q22 13 65 27t92.5 27t98.5 22.5t84 12.5q1 5 1.5 19t-1.5 21q-11 3 -32.5 5t-49 3t-58.5 0.5t-60 -0.5t-53.5 -1t-38.5 -1q-1 19 0.5 40.5t4.5 41t8 34.5t12 22q55 7 117.5 11t123.5 3.5t117 -6t100 -16.5
q13 -20 24 -60.5t19 -93t13.5 -113t7.5 -119t1 -111.5t-5 -90zM421 162q-1 38 -3.5 64.5t-7.5 61.5q-17 -5 -36 -10t-37 -10.5t-33 -12t-23 -13.5q0 -5 -0.5 -18.5t0 -28.5t3 -28.5t9.5 -17.5q8 -1 23.5 0t33.5 3t37 4.5t34 5.5z" />
    <glyph glyph-name="aring" unicode="&#xe5;" horiz-adv-x="692" 
d="M546 830q1 -19 1 -39t-2.5 -39t-6 -35.5t-9.5 -28.5q-11 -11 -44 -19.5t-72.5 -14t-79.5 -6.5t-66 4q-13 2 -26.5 11t-24 20.5t-17.5 22t-7 16.5q-2 37 4 71t17 65q12 9 43.5 17t68 13t71 7.5t53.5 -0.5q10 -2 26 -9.5t31.5 -17t27 -20.5t12.5 -18zM421 781q0 17 -6 35
h-8q-18 0 -38 -1.5t-37 -6.5q-5 -16 -4.5 -31t0.5 -31q0 -10 1 -15q6 -1 12.5 -1h13.5q16 0 33.5 1.5t30.5 7.5q0 11 1 21t1 21zM648 4q-14 -4 -38.5 -8t-54 -7.5t-60 -6t-55.5 -3.5l-4 39q-84 -14 -141 -21.5t-105 -12.5q-12 4 -31 12t-40 18.5t-42 23t-37 25.5
q-5 21 -5 58t3 77t8 75.5t11 52.5q22 13 65 27t92.5 27t98.5 22.5t84 12.5q1 5 1.5 19t-1.5 21q-11 3 -32.5 5t-49 3t-58.5 0.5t-60 -0.5t-53.5 -1t-38.5 -1q-1 19 0.5 40.5t4.5 41t8 34.5t12 22q55 7 117.5 11t123.5 3.5t117 -6t100 -16.5q13 -20 24 -60.5t19 -93
t13.5 -113t7.5 -119t1 -111.5t-5 -90zM421 162q-1 38 -3.5 64.5t-7.5 61.5q-17 -5 -36 -10t-37 -10.5t-33 -12t-23 -13.5q0 -5 -0.5 -18.5t0 -28.5t3 -28.5t9.5 -17.5q8 -1 23.5 0t33.5 3t37 4.5t34 5.5z" />
    <glyph glyph-name="ae" unicode="&#xe6;" horiz-adv-x="1094" 
d="M421 162q-1 38 -3.5 64.5t-7.5 61.5q-17 -5 -36 -10t-37 -10.5t-33 -12t-23 -13.5q0 -5 -0.5 -18.5t0 -28.5t3 -28.5t9.5 -17.5q8 -1 23.5 0t33.5 3t37 4.5t34 5.5zM1058 250q-26 -4 -73 -8.5t-103 -9t-115 -8t-107 -4.5q3 -27 14 -46q12 -8 37.5 -13.5t57 -9.5t66 -6.5
t64.5 -5t52.5 -5.5t31.5 -6q1 -17 -0.5 -40.5t-5.5 -46t-9 -40.5t-12 -23q-69 1 -150.5 6.5t-161.5 18.5q-15 -4 -40 -7.5t-53.5 -7t-57.5 -6t-53 -3.5l-4 39q-84 -14 -141 -21.5t-105 -12.5q-12 4 -31 12t-40 18.5t-42 23t-37 25.5q-5 21 -5 58t3 77t8 75.5t11 52.5
q22 13 65 27t92.5 27t98.5 22.5t84 12.5q1 5 1.5 19t-1.5 21q-11 3 -32.5 5t-49 3t-58.5 0.5t-60 -0.5t-53.5 -1t-38.5 -1q-1 19 0.5 40.5t4.5 41t8 34.5t12 22q51 7 108.5 10.5t114.5 3.5t110.5 -3.5t97.5 -12.5q51 12 117.5 21t130 14t113.5 4.5t67 -7.5
q19 -31 32.5 -77.5t22 -98.5t12 -105t2.5 -98zM823 378q1 11 1 25t-1.5 29t-4.5 28.5t-8 22.5q-14 -1 -26 -1.5t-25 -2t-28 -5t-33 -10.5q-7 -23 -13.5 -48t-10.5 -56q44 -2 82.5 4t66.5 14z" />
    <glyph glyph-name="ccedilla" unicode="&#xe7;" horiz-adv-x="590" 
d="M410 -15q-2 -42 -7.5 -77.5t-18.5 -53.5q-26 -11 -59.5 -17t-69 -9t-70 -3.5t-61.5 -0.5q-3 3 -6 13t-4.5 23.5t-2 28t-0.5 24.5q16 2 34.5 4t36.5 5t33 7.5t24 11.5q5 9 7.5 23.5t4.5 31.5q-51 6 -98.5 16t-91.5 25q-15 18 -23.5 57t-11 89.5t0.5 107t11.5 109t21.5 96
t30 68.5q20 11 58.5 21t84.5 18t95.5 13.5t93.5 8t77.5 1.5t47.5 -7l2.5 -23t2.5 -31t0 -37t-5 -41q-37 -3 -67 -4.5t-56.5 -4t-52 -8t-53.5 -16.5q-8 -27 -15.5 -71t-11 -89t-1.5 -85t14 -59q12 -8 34 -12.5t47.5 -6.5t53.5 -3t52.5 -2t43.5 -3t27 -5q1 -17 -0.5 -38
t-5.5 -41.5t-9.5 -36t-12.5 -20.5q-60 0 -124 3z" />
    <glyph glyph-name="egrave" unicode="&#xe8;" 
d="M668 250q-26 -4 -73 -8.5t-103 -9t-115 -8t-107 -4.5q3 -27 14 -46q12 -8 37.5 -13.5t57 -9.5t66 -6.5t64.5 -5t53 -5.5t31 -6q1 -17 -0.5 -40.5t-5.5 -46t-9 -40.5t-12 -23q-56 1 -120 4.5t-130 11.5t-129 21t-116 31q-15 18 -23.5 57t-11 89.5t0.5 107t11.5 109.5
t21.5 96.5t30 68.5q20 11 61.5 21t92 18t106 13.5t104 8t85 1.5t50.5 -7q19 -31 32.5 -77.5t22 -98.5t12 -105t2.5 -98zM433 378q1 11 1 25t-1.5 29t-4.5 28.5t-8 22.5q-14 -1 -26 -1.5t-25 -2t-28 -5t-33 -10.5q-7 -23 -13.5 -48t-10.5 -56q44 -2 82.5 4t66.5 14zM156 846
q41 18 88.5 26t101.5 4l12 -39.5t16.5 -49.5t21.5 -53t26 -50q-26 -9 -59 -12.5t-59 -3.5q-18 15 -37 35t-38 43.5t-37 49z" />
    <glyph glyph-name="eacute" unicode="&#xe9;" 
d="M557 852l-73 -95t-75 -77q-26 -1 -59 1t-58 10q14 22 25.5 48t21 50.5t16.5 47l12 37.5q110 11 190 -22zM668 250q-26 -4 -73 -8.5t-103 -9t-115 -8t-107 -4.5q3 -27 14 -46q12 -8 37.5 -13.5t57 -9.5t66 -6.5t64.5 -5t53 -5.5t31 -6q1 -17 -0.5 -40.5t-5.5 -46t-9 -40.5
t-12 -23q-56 1 -120 4.5t-130 11.5t-129 21t-116 31q-15 18 -23.5 57t-11 89.5t0.5 107t11.5 109.5t21.5 96.5t30 68.5q20 11 61.5 21t92 18t106 13.5t104 8t85 1.5t50.5 -7q19 -31 32.5 -77.5t22 -98.5t12 -105t2.5 -98zM433 378q1 11 1 25t-1.5 29t-4.5 28.5t-8 22.5
q-14 -1 -26 -1.5t-25 -2t-28 -5t-33 -10.5q-7 -23 -13.5 -48t-10.5 -56q44 -2 82.5 4t66.5 14z" />
    <glyph glyph-name="ecircumflex" unicode="&#xea;" 
d="M556 683q-17 -2 -38 -4l-40.5 -4t-34.5 -3t-19 0l-13.5 24.5t-16 26.5l-15.5 23.5l-11 16.5q-2 2 -4.5 7.5t-7.5 5.5q-8 0 -12.5 -6.5l-6.5 -9.5l-27.5 -43.5t-24.5 -46.5q-23 -2 -44.5 -2t-40 0.5t-31.5 2t-18 3.5q8 22 20 48l25.5 53.5t29 55t30.5 51.5q15 2 41 3
t54 1.5t52.5 0t36.5 -1.5l27 -48.5l31 -54l31 -53zM668 250q-26 -4 -73 -8.5t-103 -9t-115 -8t-107 -4.5q3 -27 14 -46q12 -8 37.5 -13.5t57 -9.5t66 -6.5t64.5 -5t53 -5.5t31 -6q1 -17 -0.5 -40.5t-5.5 -46t-9 -40.5t-12 -23q-56 1 -120 4.5t-130 11.5t-129 21t-116 31
q-15 18 -23.5 57t-11 89.5t0.5 107t11.5 109.5t21.5 96.5t30 68.5q20 11 61.5 21t92 18t106 13.5t104 8t85 1.5t50.5 -7q19 -31 32.5 -77.5t22 -98.5t12 -105t2.5 -98zM433 378q1 11 1 25t-1.5 29t-4.5 28.5t-8 22.5q-14 -1 -26 -1.5t-25 -2t-28 -5t-33 -10.5
q-7 -23 -13.5 -48t-10.5 -56q44 -2 82.5 4t66.5 14z" />
    <glyph glyph-name="edieresis" unicode="&#xeb;" 
d="M580 774q0 -26 -8 -55q-3 -12 -16.5 -20t-30 -12.5t-32.5 -6t-24 -1.5q-7 0 -17.5 5t-20 14t-16.5 21.5t-7 26.5q0 25 5 51.5t17 38.5q6 7 19 12t26.5 8t25.5 4.5t17 1.5q11 0 22 -9.5t20 -23t14.5 -28.5t5.5 -27zM333 768q0 -27 -8 -56q-3 -12 -17 -20t-31 -12.5
t-33.5 -6t-25.5 -1.5q-7 0 -17.5 5t-20.5 14t-17.5 21.5t-7.5 26.5q0 26 5 52.5t17 39.5q7 7 20 12t27.5 8t27 4.5t17.5 1.5q11 0 22.5 -9.5t20.5 -23t15 -29t6 -27.5zM668 250q-26 -4 -73 -8.5t-103 -9t-115 -8t-107 -4.5q3 -27 14 -46q12 -8 37.5 -13.5t57 -9.5t66 -6.5
t64.5 -5t53 -5.5t31 -6q1 -17 -0.5 -40.5t-5.5 -46t-9 -40.5t-12 -23q-56 1 -120 4.5t-130 11.5t-129 21t-116 31q-15 18 -23.5 57t-11 89.5t0.5 107t11.5 109.5t21.5 96.5t30 68.5q20 11 61.5 21t92 18t106 13.5t104 8t85 1.5t50.5 -7q19 -31 32.5 -77.5t22 -98.5t12 -105
t2.5 -98zM433 378q1 11 1 25t-1.5 29t-4.5 28.5t-8 22.5q-14 -1 -26 -1.5t-25 -2t-28 -5t-33 -10.5q-7 -23 -13.5 -48t-10.5 -56q44 -2 82.5 4t66.5 14z" />
    <glyph glyph-name="igrave" unicode="&#xec;" horiz-adv-x="315" 
d="M266 609q0 -144 -5 -294.5t-13 -298.5q-9 -5 -34 -8t-54 -5t-55.5 -2t-38.5 1q-5 67 -7 145.5t-2.5 158t0.5 154.5t3 137q48 9 103.5 11t102.5 1zM-2 866q83 38 190 30l12.5 -39.5t17 -49.5t21 -53t25.5 -50q-25 -9 -58 -12.5t-59 -3.5q-19 15 -38 35t-37.5 43.5l-37 49z
" />
    <glyph glyph-name="iacute" unicode="&#xed;" horiz-adv-x="315" 
d="M330 870l-74 -95t-75 -77q-26 -1 -59 1t-58 10q14 22 25.5 48t21 50.5t17 47l12.5 37.5q54 5 101.5 0t88.5 -22zM266 609q0 -144 -5 -294.5t-13 -298.5q-9 -5 -34 -8t-54 -5t-55.5 -2t-38.5 1q-5 67 -7 145.5t-2.5 158t0.5 154.5t3 137q48 9 103.5 11t102.5 1z" />
    <glyph glyph-name="icircumflex" unicode="&#xee;" horiz-adv-x="315" 
d="M334 682q-14 -1 -32 -3l-34.5 -4t-29 -3t-15.5 0l-11.5 23t-13.5 25.5l-13 23l-9 15.5q-2 2 -3.5 7t-6.5 5q-6 0 -9.5 -6t-5.5 -8l-23.5 -42.5t-20.5 -44.5q-19 -2 -37 -2.5t-33.5 0.5t-26.5 2.5t-15 2.5q7 21 16.5 46.5t21 52t24.5 52.5t26 49q13 2 34.5 3t44.5 1.5
t43.5 0t31.5 -1.5l22.5 -46.5l25.5 -52l25.5 -51zM266 609q0 -144 -5 -294.5t-13 -298.5q-9 -5 -34 -8t-54 -5t-55.5 -2t-38.5 1q-5 67 -7 145.5t-2.5 158t0.5 154.5t3 137q48 9 103.5 11t102.5 1z" />
    <glyph glyph-name="idieresis" unicode="&#xef;" horiz-adv-x="315" 
d="M329 770q0 -14 -2 -28l-4 -27q-3 -12 -14 -20t-24.5 -12.5t-26 -6t-19.5 -1.5q-5 0 -13.5 5t-16.5 14t-13.5 21t-5.5 26q0 26 3.5 52.5t13.5 38.5q5 7 15.5 11.5t21.5 7.5t21 4.5t14 1.5q9 0 17.5 -9t16 -22.5t12 -28.5t4.5 -27zM129 763q0 -14 -2 -28t-5 -27
q-3 -12 -14 -20t-25 -12.5t-27.5 -6.5t-20.5 -2q-5 0 -13.5 5.5t-16.5 14.5t-14 21.5t-6 26.5q0 25 3.5 52t13.5 40q6 7 16.5 11.5t22.5 7.5t22 4.5t14 1.5q9 0 18 -9.5t16.5 -23t12.5 -29t5 -27.5zM266 609q0 -144 -5 -294.5t-13 -298.5q-9 -5 -34 -8t-54 -5t-55.5 -2
t-38.5 1q-5 67 -7 145.5t-2.5 158t0.5 154.5t3 137q48 9 103.5 11t102.5 1z" />
    <glyph glyph-name="eth" unicode="&#xf0;" horiz-adv-x="792" 
d="M444 438q-33 8 -68.5 7t-67.5 -18q-7 -29 -12 -68t-7.5 -79t-2 -75t5.5 -56q14 -5 32.5 -6t39 1t41 6t38.5 9q1 3 2 22.5t1 47.5v60.5t-0.5 62.5t-1 53t-0.5 33zM759 556l-36.5 6t-38.5 7q1 -75 2.5 -155.5t2 -157t-1 -146t-5.5 -123.5q-47 -12 -106 -17.5t-113 -1.5
l-3 43l-71.5 -11.5t-83.5 -11.5t-79.5 -7.5t-59.5 0.5q-34 29 -64 73.5l-56 84.5q-4 21 -3.5 56.5t5 77.5t12.5 87.5t19.5 86t26.5 72.5t32 49q73 15 155 23.5t164 3.5v15l-51.5 8t-49.5 7q-7 19 -9.5 40t-1 40t5 35t8.5 26l41 -7.5l53 -9.5v31q25 3 56 5.5t62.5 3.5
t60.5 -2t50 -10v-72q23 -5 41 -9.5t31 -8.5q3 -11 5 -29t3 -37.5t0.5 -37t-3.5 -27.5z" />
    <glyph glyph-name="ntilde" unicode="&#xf1;" horiz-adv-x="744" 
d="M601 816q-6 -7 -16 -20.5t-24 -30l-29.5 -34t-31.5 -31.5t-31.5 -22.5t-28.5 -7.5q-22 1 -50 12l-54 22t-47 19t-29 5q-10 -4 -25.5 -19t-28.5 -30q-52 23 -68 50q11 20 26 42.5t32 43.5t35 37t36 24t38.5 3.5t42.5 -15t45.5 -23.5t47.5 -23q17 -7 33 0t30 18
q16 13 30 32q20 -8 38 -21.5t29 -30.5zM695 625q1 -69 1 -146.5v-156.5t-1.5 -156.5t-3.5 -146.5l-55 -7t-69 -7.5t-77.5 -6.5t-79.5 -3q-39 57 -71 119.5t-60 126.5l-42 -3q-5 -47 -7.5 -107.5t1.5 -127.5q-44 -11 -87.5 -13t-90.5 6q-3 24 -5 68.5t-3.5 100t-2 117.5
t-0.5 121.5t0.5 112.5t2.5 91q4 4 25 8t50.5 7.5t65 6.5t68.5 5t60 2t40 -2l24 -71l27 -79l28.5 -78.5t28.5 -69.5l39 5q0 20 1.5 57.5l3 78t2.5 78t2 57.5q90 21 185 13z" />
    <glyph glyph-name="ograve" unicode="&#xf2;" 
d="M666 508q4 -21 7 -57.5t3 -80.5t-2.5 -92.5t-8 -94t-14 -84.5t-20.5 -64q-134 -32 -240 -39t-186 -5q-47 19 -92.5 62t-79.5 92q-2 115 10 228t51 206q37 9 97 17.5t125 13.5t125 4.5t97 -9.5q15 -11 34.5 -24l38 -26.5t33.5 -25.5t22 -21zM440 180q2 59 5 131t-7 148
q-38 4 -74 4t-76 -14q-6 -11 -10 -47t-6 -80t-2 -87.5t3 -68.5q16 -3 40 -3t48 2.5t45.5 6.5t33.5 8zM155 846q41 18 88.5 26t101.5 4l12 -39.5t16.5 -49.5t21 -53t25.5 -50q-25 -9 -58 -12.5t-59 -3.5q-18 15 -37 35t-38 43.5t-37 49z" />
    <glyph glyph-name="oacute" unicode="&#xf3;" 
d="M569 862l-73.5 -96t-75.5 -77q-26 -1 -59 1t-58 10q14 22 25.5 48t21 51t17 47l12.5 37q108 11 190 -21zM666 508q4 -21 7 -57.5t3 -80.5t-2.5 -92.5t-8 -94t-14 -84.5t-20.5 -64q-134 -32 -240 -39t-186 -5q-47 19 -92.5 62t-79.5 92q-2 115 10 228t51 206q37 9 97 17.5
t125 13.5t125 4.5t97 -9.5q15 -11 34.5 -24l38 -26.5t33.5 -25.5t22 -21zM440 180q2 59 5 131t-7 148q-38 4 -74 4t-76 -14q-6 -11 -10 -47t-6 -80t-2 -87.5t3 -68.5q16 -3 40 -3t48 2.5t45.5 6.5t33.5 8z" />
    <glyph glyph-name="ocircumflex" unicode="&#xf4;" 
d="M557 690q-17 -2 -38.5 -4t-41 -4t-34.5 -3t-19 0l-13.5 24.5t-16 26.5l-15.5 23.5l-11 16.5q-2 2 -4.5 7t-7.5 5q-8 0 -12.5 -6t-6.5 -9l-27.5 -44t-23.5 -47q-23 -2 -45 -2t-40.5 0.5t-31.5 2t-18 3.5q8 22 20 48l25.5 53.5t29 55t30.5 51.5q15 2 41 3t54 1.5t52.5 0
t36.5 -1.5l27 -48.5l31 -53.5l31 -52.5zM666 508q4 -21 7 -57.5t3 -80.5t-2.5 -92.5t-8 -94t-14 -84.5t-20.5 -64q-134 -32 -240 -39t-186 -5q-47 19 -92.5 62t-79.5 92q-2 115 10 228t51 206q37 9 97 17.5t125 13.5t125 4.5t97 -9.5q15 -11 34.5 -24l38 -26.5t33.5 -25.5
t22 -21zM440 180q2 59 5 131t-7 148q-38 4 -74 4t-76 -14q-6 -11 -10 -47t-6 -80t-2 -87.5t3 -68.5q16 -3 40 -3t48 2.5t45.5 6.5t33.5 8z" />
    <glyph glyph-name="otilde" unicode="&#xf5;" 
d="M582 821q-6 -7 -16 -20.5t-24 -30l-29.5 -34t-31.5 -31.5t-31.5 -22.5t-28.5 -7.5q-22 2 -49.5 12.5l-54 21.5l-47 19t-28.5 5q-11 -4 -26.5 -18.5t-27.5 -30.5q-53 23 -69 50q11 20 26 42.5t32 43.5t35 37.5t36 24.5t38.5 3.5t42.5 -15t45.5 -24t47.5 -23.5
q17 -7 33 0.5t30 18.5q16 13 30 32q20 -9 38 -22.5t29 -30.5zM666 508q4 -21 7 -57.5t3 -80.5t-2.5 -92.5t-8 -94t-14 -84.5t-20.5 -64q-134 -32 -240 -39t-186 -5q-47 19 -92.5 62t-79.5 92q-2 115 10 228t51 206q37 9 97 17.5t125 13.5t125 4.5t97 -9.5q15 -11 34.5 -24
l38 -26.5t33.5 -25.5t22 -21zM440 180q2 59 5 131t-7 148q-38 4 -74 4t-76 -14q-6 -11 -10 -47t-6 -80t-2 -87.5t3 -68.5q16 -3 40 -3t48 2.5t45.5 6.5t33.5 8z" />
    <glyph glyph-name="odieresis" unicode="&#xf6;" 
d="M571 773q0 -27 -8 -54q-3 -12 -16.5 -20t-30 -12.5t-32.5 -6t-25 -1.5q-6 0 -16.5 5t-20 14t-16.5 21t-7 26q0 25 5 51.5t16 39.5q7 7 20 11.5t26.5 7.5t25.5 4.5t17 1.5q10 0 21 -9t20 -22.5t15 -29t6 -27.5zM324 767q0 -28 -8 -55q-3 -12 -17.5 -20t-31.5 -12.5
t-33.5 -6.5t-25.5 -2q-7 0 -17.5 5.5t-20.5 14.5t-17 21t-7 26q0 26 5 53t17 39q7 7 20 12t27.5 8t27 4.5t17.5 1.5q11 0 22.5 -9.5t20.5 -23t15 -29t6 -27.5zM666 508q4 -21 7 -57.5t3 -80.5t-2.5 -92.5t-8 -94t-14 -84.5t-20.5 -64q-134 -32 -240 -39t-186 -5
q-47 19 -92.5 62t-79.5 92q-2 115 10 228t51 206q37 9 97 17.5t125 13.5t125 4.5t97 -9.5q15 -11 34.5 -24l38 -26.5t33.5 -25.5t22 -21zM440 180q2 59 5 131t-7 148q-38 4 -74 4t-76 -14q-6 -11 -10 -47t-6 -80t-2 -87.5t3 -68.5q16 -3 40 -3t48 2.5t45.5 6.5t33.5 8z" />
    <glyph glyph-name="divide" unicode="&#xf7;" horiz-adv-x="432" 
d="M393 277q-41 -3 -84 -4.5l-86.5 -3t-87 -3.5t-83.5 -8q-6 25 -8 53t-1 55t4.5 50t7.5 38l44 2.5t58.5 2l65.5 1t65 0.5t57.5 -1t42.5 -3q2 -15 4 -39t3 -50.5t0.5 -50.5t-2.5 -39zM320 115q0 -29 -8 -58q-4 -13 -19.5 -21t-34 -12.5t-37 -6.5t-28.5 -2q-8 0 -19.5 5.5
t-22.5 15t-19 22t-8 27.5q0 26 5.5 54t19.5 41q7 7 22 12t30.5 8.5t29 5t19.5 1.5q12 0 24.5 -9.5t22.5 -23.5t16.5 -30t6.5 -29zM312 624q0 -31 -8 -61q-4 -14 -18.5 -22.5t-32.5 -13.5t-35.5 -7t-26.5 -2q-7 0 -18 6t-21.5 16t-18 23.5t-7.5 29.5q0 14 1 29t4 29t7.5 25.5
t10.5 18.5q7 7 21 12.5t29 9t28 5t18 1.5q12 0 23.5 -10.5t21.5 -25.5t16 -32t6 -31z" />
    <glyph glyph-name="oslash" unicode="&#xf8;" horiz-adv-x="714" 
d="M271 284l33 89.5l33 86.5l-24 -4t-25 -7q-3 -7 -6 -23.5t-5 -39t-3.5 -49t-2.5 -53.5zM445 338l-31 -84.5l-30 -85.5q17 3 32 6t24 6q1 35 3 74.5t2 83.5zM575 658l-13.5 -30l-12.5 -30q15 -11 33 -23t34.5 -24.5t29.5 -23.5t20 -19q4 -21 7 -57.5t3 -80.5t-2.5 -92.5
t-8 -94t-14 -84.5t-20.5 -64q-90 -22 -166 -31.5t-142 -11.5q-6 -20 -12.5 -39.5t-12.5 -39.5q-24 -4 -48 -4t-44 1.5t-34.5 4t-19.5 5.5l13.5 43l12.5 41q-40 23 -78 61t-67 80q-2 115 10 228t51 206q24 6 59.5 12t77 11t85 8t84.5 4l13.5 31.5t14.5 31.5q24 3 48 1.5
t44.5 -5.5t35 -8.5t19.5 -6.5z" />
    <glyph glyph-name="ugrave" unicode="&#xf9;" horiz-adv-x="694" 
d="M657 611q-1 -33 -1.5 -82t-1.5 -105.5t-1.5 -117l-1 -116t0 -102t1.5 -75.5q-11 -6 -36.5 -11t-57 -8.5t-64 -5t-55.5 -0.5l-2 48q-58 -15 -134.5 -22l-161.5 -15q-10 9 -25.5 26l-31.5 36t-29.5 38t-18.5 32q0 24 1 61.5t3.5 82t6 91.5l7 90t7 78t6.5 55q19 7 48.5 12.5
t61.5 9t63 6t54 2.5q-5 -61 -8.5 -114.5t-5.5 -103.5t-3 -99.5t-1 -101.5q16 -2 37 -2t42 3t40 8.5t31 14.5q0 45 -0.5 94l-1 97.5t-0.5 95.5t1 88q57 12 117 14.5t114 -2.5zM155 846q41 18 88.5 26t101.5 4l12 -39.5t16.5 -49.5t21 -53t25.5 -50q-25 -9 -58 -12.5t-59 -3.5
q-18 15 -37 35t-38 43.5t-37 49z" />
    <glyph glyph-name="uacute" unicode="&#xfa;" horiz-adv-x="694" 
d="M543 845l-73.5 -95.5t-75.5 -76.5q-26 -2 -59 0.5t-58 10.5q14 22 25.5 47.5t21 50.5t17 47l12.5 37q54 6 101.5 0.5t88.5 -21.5zM657 611q-1 -33 -1.5 -82t-1.5 -105.5t-1.5 -117l-1 -116t0 -102t1.5 -75.5q-11 -6 -36.5 -11t-57 -8.5t-64 -5t-55.5 -0.5l-2 48
q-58 -15 -134.5 -22l-161.5 -15q-10 9 -25.5 26l-31.5 36t-29.5 38t-18.5 32q0 24 1 61.5t3.5 82t6 91.5l7 90t7 78t6.5 55q19 7 48.5 12.5t61.5 9t63 6t54 2.5q-5 -61 -8.5 -114.5t-5.5 -103.5t-3 -99.5t-1 -101.5q16 -2 37 -2t42 3t40 8.5t31 14.5q0 45 -0.5 94l-1 97.5
t-0.5 95.5t1 88q57 12 117 14.5t114 -2.5z" />
    <glyph glyph-name="ucircumflex" unicode="&#xfb;" horiz-adv-x="694" 
d="M559 679q-17 -2 -38.5 -4t-41 -4t-34 -3t-18.5 0l-14 24.5t-16.5 26.5l-15.5 24l-11 17q-2 2 -4.5 7t-7.5 5q-8 0 -12.5 -6t-6.5 -10l-27.5 -43.5t-23.5 -46.5q-23 -2 -45 -2t-40.5 0.5t-31.5 2t-18 3.5q8 22 20 48l25.5 53.5t29 55t30.5 51.5q15 2 41 3t54 1.5t52.5 0
t36.5 -1.5l27 -48.5l31 -53.5l31 -53zM657 611q-1 -33 -1.5 -82t-1.5 -105.5t-1.5 -117l-1 -116t0 -102t1.5 -75.5q-11 -6 -36.5 -11t-57 -8.5t-64 -5t-55.5 -0.5l-2 48q-58 -15 -134.5 -22l-161.5 -15q-10 9 -25.5 26l-31.5 36t-29.5 38t-18.5 32q0 24 1 61.5t3.5 82
t6 91.5l7 90t7 78t6.5 55q19 7 48.5 12.5t61.5 9t63 6t54 2.5q-5 -61 -8.5 -114.5t-5.5 -103.5t-3 -99.5t-1 -101.5q16 -2 37 -2t42 3t40 8.5t31 14.5q0 45 -0.5 94l-1 97.5t-0.5 95.5t1 88q57 12 117 14.5t114 -2.5z" />
    <glyph glyph-name="udieresis" unicode="&#xfc;" horiz-adv-x="694" 
d="M563 771q0 -26 -8 -55q-3 -12 -16.5 -20t-30 -12.5t-32.5 -6t-24 -1.5q-7 0 -17.5 5.5t-20 14.5t-16.5 21t-7 26q0 25 5 51.5t17 38.5q6 7 19 12t26.5 8t25.5 4.5t17 1.5q11 0 22 -9.5t20 -23t14.5 -28.5t5.5 -27zM316 765q0 -27 -8 -56q-3 -12 -17 -20t-31.5 -12.5
t-34 -6t-25.5 -1.5q-6 0 -16.5 5t-20.5 14t-17.5 21.5t-7.5 26.5q0 26 5 52.5t17 39.5q7 7 20 12t27.5 8t27 4.5t17.5 1.5q11 0 22.5 -9.5t20.5 -23t15 -29t6 -27.5zM657 611q-1 -33 -1.5 -82t-1.5 -105.5t-1.5 -117l-1 -116t0 -102t1.5 -75.5q-11 -6 -36.5 -11t-57 -8.5
t-64 -5t-55.5 -0.5l-2 48q-58 -15 -134.5 -22l-161.5 -15q-10 9 -25.5 26l-31.5 36t-29.5 38t-18.5 32q0 24 1 61.5t3.5 82t6 91.5l7 90t7 78t6.5 55q19 7 48.5 12.5t61.5 9t63 6t54 2.5q-5 -61 -8.5 -114.5t-5.5 -103.5t-3 -99.5t-1 -101.5q16 -2 37 -2t42 3t40 8.5
t31 14.5q0 45 -0.5 94l-1 97.5t-0.5 95.5t1 88q57 12 117 14.5t114 -2.5z" />
    <glyph glyph-name="yacute" unicode="&#xfd;" horiz-adv-x="694" 
d="M550 863l-73.5 -96t-75.5 -77q-26 -1 -59 1t-58 10q14 22 25.5 48l21.5 50.5t17 47l12 37.5q108 11 190 -21zM667 625l-37 -85.5l-42 -89.5l-51 -101l-64 -118q-1 -28 -2.5 -50.5t-3.5 -48.5t-4 -60.5l-5 -85.5q-9 -5 -37.5 -8t-61 -5t-62 -2t-41.5 1q-3 47 -5 82
t-3.5 64t-1.5 55v55q-33 40 -69 93t-67.5 104.5t-54.5 94t-29 61.5q27 12 55.5 18t57 8.5t58.5 3t60 1.5q3 -8 11 -25.5t20.5 -41.5l28.5 -53t35 -59q13 29 25 53l23 45.5l21 42.5l20 43q21 4 48 7.5t57 5t61 1t60 -5.5z" />
    <glyph glyph-name="thorn" unicode="&#xfe;" horiz-adv-x="713" 
d="M656 510q13 -45 15 -102t-6.5 -119t-26 -126t-44.5 -122q-37 -12 -84.5 -17t-95 -6t-89 0.5t-66.5 3.5q0 -22 1 -48l2 -53t1 -53t-1 -48l-46.5 -4.5t-54.5 -4t-56 -2t-51 1.5q-2 49 -3.5 124.5t-3 162.5t-1.5 179t0.5 175.5t2.5 151t6 105.5q13 4 35.5 6.5t51 5t61.5 3.5
l68 2l-1 -150q53 11 116.5 21.5t130.5 10.5q17 -9 36.5 -21t38.5 -25t35.5 -26.5t28.5 -25.5zM423 423q-13 7 -33.5 8t-42 -1.5t-41.5 -7t-31 -8.5q-2 -17 -3.5 -46t-2 -62t0.5 -66.5t5 -61.5q12 -2 30.5 -5.5t39 -3.5t39.5 5t32 21q11 52 11.5 106t-4.5 122z" />
    <glyph glyph-name="ydieresis" unicode="&#xff;" horiz-adv-x="694" 
d="M561 781q0 -27 -8 -54q-3 -12 -16.5 -20t-30 -12.5t-32.5 -6t-25 -1.5q-6 0 -16.5 5t-20 14t-16.5 21t-7 26q0 25 5 51.5t16 39.5q7 7 20 11.5t26.5 7.5t25.5 4.5t17 1.5q10 0 21 -9t20 -22.5t15 -29t6 -27.5zM314 775q0 -28 -8 -55q-3 -12 -17.5 -20t-31.5 -12.5
t-33.5 -6.5t-25.5 -2q-7 0 -17.5 5.5t-20.5 14.5t-17 21t-7 26q0 26 5 53t17 39q7 7 20 12t27.5 8t27 4.5t17.5 1.5q11 0 22.5 -9.5t20.5 -23t15 -29t6 -27.5zM667 625l-37 -85.5l-42 -89.5l-51 -101l-64 -118q-1 -28 -2.5 -50.5t-3.5 -48.5t-4 -60.5l-5 -85.5
q-9 -5 -37.5 -8t-61 -5t-62 -2t-41.5 1q-3 47 -5 82t-3.5 64t-1.5 55v55q-33 40 -69 93t-67.5 104.5t-54.5 94t-29 61.5q27 12 55.5 18t57 8.5t58.5 3t60 1.5q3 -8 11 -25.5t20.5 -41.5l28.5 -53t35 -59q13 29 25 53l23 45.5l21 42.5l20 43q21 4 48 7.5t57 5t61 1t60 -5.5z
" />
    <glyph glyph-name="Amacron" unicode="&#x100;" horiz-adv-x="812" 
d="M806 -2q-30 -5 -63 -8.5t-65.5 -5t-62.5 -2t-54 0.5q-6 19 -11 32.5t-9 26.5t-7.5 27.5t-7.5 34.5q-28 3 -64 4.5t-72 0.5t-68.5 -4t-52.5 -8q-9 -16 -14.5 -28t-10 -24t-8.5 -26t-8 -32q-22 -5 -52.5 -7.5t-62 -2.5t-61 2.5t-49.5 5.5q7 49 26.5 119t44.5 147.5t53 155
l53 141.5q-12 0 -23 2l-18 4t-14 5q4 14 8 31.5t8.5 35t9.5 33t10 26.5q25 6 64.5 10.5t86 7t97 3.5t98 -0.5t89 -5t69.5 -10.5l38 -168.5l37.5 -167t35 -172.5t30.5 -184zM487 283q-2 25 -7 56t-11.5 62t-14 58.5t-15.5 45.5q-22 3 -44 0q-2 -5 -8 -21.5l-13.5 -39
l-15.5 -48.5l-15 -49.5t-11 -41t-4 -23.5q13 -3 37 -4.5t48.5 -1t45 2.5t28.5 4zM619 763q-99 -5 -204.5 -5.5t-203.5 -9.5q-7 19 -9.5 41.5t-1 44t5 40t8.5 30.5q20 1 52.5 2t70.5 2t79 1.5t78.5 0t69 -1t50.5 -2.5q3 -12 5 -31.5t3 -40.5t0.5 -40t-3.5 -31z" />
    <glyph glyph-name="amacron" unicode="&#x101;" horiz-adv-x="692" 
d="M648 4q-14 -4 -38.5 -8t-54 -7.5t-60 -6t-55.5 -3.5l-4 39q-84 -14 -141 -21.5t-105 -12.5q-12 4 -31 12t-40 18.5t-42 23t-37 25.5q-5 21 -5 58t3 77t8 75.5t11 52.5q22 13 65 27t92.5 27t98.5 22.5t84 12.5q1 5 1.5 19t-1.5 21q-11 3 -32.5 5t-49 3t-58.5 0.5t-60 -0.5
t-53.5 -1t-38.5 -1q-1 19 0.5 40.5t4.5 41t8 34.5t12 22q55 7 117.5 11t123.5 3.5t117 -6t100 -16.5q13 -20 24 -60.5t19 -93t13.5 -113t7.5 -119t1 -111.5t-5 -90zM421 162q-1 38 -3.5 64.5t-7.5 61.5q-17 -5 -36 -10t-37 -10.5t-33 -12t-23 -13.5q0 -5 -0.5 -18.5t0 -28.5
t3 -28.5t9.5 -17.5q8 -1 23.5 0t33.5 3t37 4.5t34 5.5zM548 670q-88 -5 -183.5 -5.5t-183.5 -8.5q-6 18 -8 38t-1 39.5t4 36t8 26.5q18 1 47 2t63 1.5l71 1t71 0.5t62 -0.5t46 -2.5q2 -11 4 -28t3 -36t0.5 -36.5t-3.5 -27.5z" />
    <glyph glyph-name="Abreve" unicode="&#x102;" horiz-adv-x="812" 
d="M806 -2q-30 -5 -63 -8.5t-65.5 -5t-62.5 -2t-54 0.5q-6 19 -11 32.5t-9 26.5t-7.5 27.5t-7.5 34.5q-28 3 -64 4.5t-72 0.5t-68.5 -4t-52.5 -8q-9 -16 -14.5 -28t-10 -24t-8.5 -26t-8 -32q-22 -5 -52.5 -7.5t-62 -2.5t-61 2.5t-49.5 5.5q7 49 26.5 119t44.5 147.5t53 155
l53 141.5q-12 0 -23 2l-18 4t-14 5q4 14 8 31.5t8.5 35t9.5 33t10 26.5q25 6 64.5 10.5t86 7t97 3.5t98 -0.5t89 -5t69.5 -10.5l38 -168.5l37.5 -167t35 -172.5t30.5 -184zM487 283q-2 25 -7 56t-11.5 62t-14 58.5t-15.5 45.5q-22 3 -44 0q-2 -5 -8 -21.5l-13.5 -39
l-15.5 -48.5l-15 -49.5t-11 -41t-4 -23.5q13 -3 37 -4.5t48.5 -1t45 2.5t28.5 4zM651 881q-9 -20 -19 -35t-23.5 -29.5t-31 -28.5t-41.5 -30q-19 -13 -50 -18.5t-63 -5.5t-60 5.5t-41 15.5q-21 15 -36.5 28.5t-29 27t-25.5 28.5l-26 33l45 10.5l45 10t36.5 6.5t19.5 1
q6 -10 16.5 -20t21.5 -18.5t21.5 -13.5t15.5 -5q10 0 22.5 7t23.5 17t19.5 20t11.5 15q25 2 49 -0.5t44.5 -7t35 -8.5t19.5 -5z" />
    <glyph glyph-name="abreve" unicode="&#x103;" horiz-adv-x="692" 
d="M648 4q-14 -4 -38.5 -8t-54 -7.5t-60 -6t-55.5 -3.5l-4 39q-84 -14 -141 -21.5t-105 -12.5q-12 4 -31 12t-40 18.5t-42 23t-37 25.5q-5 21 -5 58t3 77t8 75.5t11 52.5q22 13 65 27t92.5 27t98.5 22.5t84 12.5q1 5 1.5 19t-1.5 21q-11 3 -32.5 5t-49 3t-58.5 0.5t-60 -0.5
t-53.5 -1t-38.5 -1q-1 19 0.5 40.5t4.5 41t8 34.5t12 22q55 7 117.5 11t123.5 3.5t117 -6t100 -16.5q13 -20 24 -60.5t19 -93t13.5 -113t7.5 -119t1 -111.5t-5 -90zM421 162q-1 38 -3.5 64.5t-7.5 61.5q-17 -5 -36 -10t-37 -10.5t-33 -12t-23 -13.5q0 -5 -0.5 -18.5t0 -28.5
t3 -28.5t9.5 -17.5q8 -1 23.5 0t33.5 3t37 4.5t34 5.5zM559 785q-8 -18 -17.5 -31.5t-21.5 -26.5t-27.5 -25.5t-37.5 -27.5q-17 -12 -44.5 -17t-56.5 -5t-54 5t-37 14q-19 14 -33 26t-26 24.5t-23 25.5t-24 30q19 4 40.5 9t40.5 8.5l33 6t18 1.5q5 -9 14.5 -18t19.5 -16.5
t19 -12t14 -4.5q9 0 20 6.5t21.5 15t18 17.5t10.5 14q22 1 44 -1t40 -6t31 -7.5t18 -4.5z" />
    <glyph glyph-name="Aogonek" unicode="&#x104;" horiz-adv-x="812" 
d="M487 314q-2 28 -7 62.5t-11.5 69t-14 65t-15.5 50.5q-22 5 -44 0q-2 -5 -8 -23.5l-13.5 -43.5l-15.5 -54l-15 -55t-11 -45.5t-4 -26.5q13 -3 37 -4.5t48.5 -1t45 2.5t28.5 4zM776 -120q0 -6 -0.5 -20t-2.5 -29t-5 -27.5t-7 -16.5q-32 0 -70 1t-77 4t-76 10t-66 19
q-15 23 -19 51t-4 54q0 28 2 50.5t4 50.5q20 14 41.5 18t44.5 5q-5 14 -8 29l-7 36q-28 4 -64 5t-72 0.5t-68.5 -4t-52.5 -8.5q-9 -18 -14.5 -31.5t-10 -27t-8.5 -28.5t-8 -35q-22 -6 -52.5 -8.5t-62 -2.5t-61 2.5t-49.5 5.5q5 36 15 83.5t24.5 101.5t31.5 111.5l35 115
l36.5 112.5l34.5 102q-12 1 -23 3l-18 4t-14 5q4 16 8 35.5t8.5 39t9.5 36.5t10 29q25 6 64.5 11.5t86 8.5t97 4t98 -0.5t89 -5.5t69.5 -12l38 -187.5l37.5 -186t35 -191.5t30.5 -204q-43 -8 -90.5 -12t-90.5 -5q-1 -6 -1 -12v-12q0 -21 9 -40q11 -8 29.5 -13.5t39 -8.5
t40.5 -5t34 -4v-6z" />
    <glyph glyph-name="aogonek" unicode="&#x105;" horiz-adv-x="692" 
d="M421 162q-1 38 -3.5 64.5t-7.5 61.5q-17 -5 -36 -10t-37 -10.5t-33 -12t-23 -13.5q0 -5 -0.5 -18.5t0 -28.5t3 -28.5t9.5 -17.5q8 -1 23.5 0t33.5 3t37 4.5t34 5.5zM620 -86q0 -6 -0.5 -18.5t-2 -26t-4.5 -24.5t-7 -15q-29 0 -63.5 1t-69.5 4t-68 9t-59 17
q-14 20 -17.5 45.5t-3.5 48.5q0 13 0.5 24t1.5 22q-41 -6 -74 -10t-63 -7q-12 4 -31 12t-40 18.5t-42 23t-37 25.5q-5 21 -5 58t3 77t8 75.5t11 52.5q22 13 65 27t92.5 27t98.5 22.5t84 12.5q1 5 1.5 19t-1.5 21q-11 3 -32.5 5t-49 3t-58.5 0.5t-60 -0.5t-53.5 -1t-38.5 -1
q-1 19 0.5 40.5t4.5 41t8 34.5t12 22q55 7 117.5 11t123.5 3.5t117 -6t100 -16.5q13 -20 24 -60.5t19 -93t13.5 -113t7.5 -119t1 -111.5t-5 -90q-11 -3 -29.5 -6t-41 -6t-47 -5.5t-47.5 -4.5q0 -17 8 -35q10 -7 26.5 -12t35.5 -8t37 -5t30 -3v-5z" />
    <glyph glyph-name="Cacute" unicode="&#x106;" horiz-adv-x="656" 
d="M624 141q1 -20 -1 -47t-5.5 -52t-9.5 -44.5t-14 -25.5q-62 1 -130 3t-136 9t-134.5 20.5t-125.5 36.5q-17 22 -26 66.5t-12 100.5t0.5 118.5t13 121.5t23.5 109t33 81q23 13 65 25.5t93.5 22.5t106.5 17t104 10t86 1.5t53 -8.5q3 -22 5.5 -68t-5.5 -97q-41 -4 -77.5 -6
t-70.5 -5t-65.5 -9.5t-63.5 -20.5q-9 -34 -17.5 -79t-12 -90t-1 -85.5t15.5 -64.5q14 -10 39.5 -15t56.5 -8t64.5 -4.5t63.5 -2.5t52.5 -3.5t31.5 -6.5zM540 920l-74 -95t-75 -77q-26 -1 -59 1t-58 10q14 22 25.5 48t21 50.5t17 47l12.5 37.5q54 5 101.5 0t88.5 -22z" />
    <glyph glyph-name="cacute" unicode="&#x107;" horiz-adv-x="590" 
d="M562 118q1 -17 -0.5 -38t-5.5 -41.5t-9.5 -36t-12.5 -20.5q-56 1 -117 2.5t-122.5 7t-121 16.5t-112.5 29q-15 18 -23.5 57t-11 89.5t0.5 107t11.5 109t21.5 96t30 68.5q20 11 58.5 21t84.5 18t95.5 13.5t93.5 8t77.5 1.5t47.5 -7l2.5 -23t2.5 -31t0 -37t-5 -41
q-37 -3 -67 -4.5t-56.5 -4t-52 -8t-53.5 -16.5q-8 -27 -15.5 -71t-11 -89t-1.5 -85t14 -59q12 -8 34 -12.5t47.5 -6.5t53.5 -3t52.5 -2t43.5 -3t27 -5zM517 842l-73 -95t-75 -77q-26 -1 -59 1t-58 10q14 22 25.5 48t21 50.5t16.5 47l12 37.5q110 11 190 -22z" />
    <glyph glyph-name="Ccircumflex" unicode="&#x108;" horiz-adv-x="656" 
d="M624 141q1 -20 -1 -47t-5.5 -52t-9.5 -44.5t-14 -25.5q-62 1 -130 3t-136 9t-134.5 20.5t-125.5 36.5q-17 22 -26 66.5t-12 100.5t0.5 118.5t13 121.5t23.5 109t33 81q23 13 65 25.5t93.5 22.5t106.5 17t104 10t86 1.5t53 -8.5q3 -22 5.5 -68t-5.5 -97q-41 -4 -77.5 -6
t-70.5 -5t-65.5 -9.5t-63.5 -20.5q-9 -34 -17.5 -79t-12 -90t-1 -85.5t15.5 -64.5q14 -10 39.5 -15t56.5 -8t64.5 -4.5t63.5 -2.5t52.5 -3.5t31.5 -6.5zM551 758q-17 -2 -38.5 -4t-41 -4t-34 -3t-18.5 0l-14 24.5t-16.5 26.5l-15.5 24l-11 17q-2 2 -4.5 7t-7.5 5
q-8 0 -12 -6t-6 -10l-28 -43.5t-24 -46.5q-23 -2 -45 -2t-40.5 0.5t-31.5 2t-18 3.5q8 22 20 48l25.5 53.5t29 55t30.5 51.5q15 2 41 3t54 1.5t52.5 0t36.5 -1.5l27 -48.5l31 -53.5l31 -53z" />
    <glyph glyph-name="ccircumflex" unicode="&#x109;" horiz-adv-x="590" 
d="M562 118q1 -17 -0.5 -38t-5.5 -41.5t-9.5 -36t-12.5 -20.5q-56 1 -117 2.5t-122.5 7t-121 16.5t-112.5 29q-15 18 -23.5 57t-11 89.5t0.5 107t11.5 109t21.5 96t30 68.5q20 11 58.5 21t84.5 18t95.5 13.5t93.5 8t77.5 1.5t47.5 -7l2.5 -23t2.5 -31t0 -37t-5 -41
q-37 -3 -67 -4.5t-56.5 -4t-52 -8t-53.5 -16.5q-8 -27 -15.5 -71t-11 -89t-1.5 -85t14 -59q12 -8 34 -12.5t47.5 -6.5t53.5 -3t52.5 -2t43.5 -3t27 -5zM528 670q-17 -2 -38.5 -4t-41 -4t-34 -3t-18.5 0l-14 24.5t-16.5 26.5l-15.5 23.5l-11 16.5q-2 2 -4.5 7t-7.5 5
q-7 0 -11.5 -6t-6.5 -9l-27.5 -44t-24.5 -47q-23 -2 -45 -2t-40.5 0.5t-31.5 2t-18 3.5q8 22 20 48l25.5 53.5t29 55t31.5 51.5q15 2 41 3t53.5 1.5t52 0t37.5 -1.5l27 -48.5l30.5 -53.5l30.5 -52.5z" />
    <glyph glyph-name="Cdotaccent" unicode="&#x10a;" horiz-adv-x="656" 
d="M624 141q1 -20 -1 -47t-5.5 -52t-9.5 -44.5t-14 -25.5q-62 1 -130 3t-136 9t-134.5 20.5t-125.5 36.5q-17 22 -26 66.5t-12 100.5t0.5 118.5t13 121.5t23.5 109t33 81q23 13 65 25.5t93.5 22.5t106.5 17t104 10t86 1.5t53 -8.5q3 -22 5.5 -68t-5.5 -97q-41 -4 -77.5 -6
t-70.5 -5t-65.5 -9.5t-63.5 -20.5q-9 -34 -17.5 -79t-12 -90t-1 -85.5t15.5 -64.5q14 -10 39.5 -15t56.5 -8t64.5 -4.5t63.5 -2.5t52.5 -3.5t31.5 -6.5zM418 822q0 -24 -8 -46q-3 -11 -17 -17.5t-31 -10t-33 -5t-25 -1.5q-6 0 -16.5 4.5t-20.5 12t-17 17.5t-7 22
q0 21 5 43.5t17 33.5q7 6 20 10t27 6.5t26 3.5t17 1q11 0 22 -8t20 -19t15 -24t6 -23z" />
    <glyph glyph-name="cdotaccent" unicode="&#x10b;" horiz-adv-x="590" 
d="M562 118q1 -17 -0.5 -38t-5.5 -41.5t-9.5 -36t-12.5 -20.5q-56 1 -117 2.5t-122.5 7t-121 16.5t-112.5 29q-15 18 -23.5 57t-11 89.5t0.5 107t11.5 109t21.5 96t30 68.5q20 11 58.5 21t84.5 18t95.5 13.5t93.5 8t77.5 1.5t47.5 -7l2.5 -23t2.5 -31t0 -37t-5 -41
q-37 -3 -67 -4.5t-56.5 -4t-52 -8t-53.5 -16.5q-8 -27 -15.5 -71t-11 -89t-1.5 -85t14 -59q12 -8 34 -12.5t47.5 -6.5t53.5 -3t52.5 -2t43.5 -3t27 -5zM400 726q0 -11 -2 -21.5t-5 -20.5q-3 -9 -15.5 -15t-27.5 -9.5t-30 -4.5t-22 -1q-6 0 -15.5 4t-18 10.5t-15 15.5
t-6.5 20q0 19 4 39.5t15 29.5q6 5 17.5 8.5t24.5 6t24 3.5t16 1q10 0 20 -7t18 -17t13 -21.5t5 -20.5z" />
    <glyph glyph-name="Ccaron" unicode="&#x10c;" horiz-adv-x="656" 
d="M146 859q17 1 38.5 3.5t41 4.5t34 3t18.5 0l14 -24.5t16.5 -26.5l15.5 -23.5l11 -16.5q2 -2 4.5 -7t7.5 -5q8 0 12 6l6 9l28 44t24 47q22 2 44.5 2t41 -0.5t31.5 -2.5t18 -3q-12 -32 -31.5 -73.5t-42.5 -81.5q46 2 80.5 0.5t49.5 -8.5q3 -22 5.5 -68t-5.5 -97
q-41 -4 -77.5 -6t-70.5 -5t-65.5 -9.5t-63.5 -20.5q-9 -34 -17.5 -79t-12 -90t-1 -85.5t15.5 -64.5q14 -10 39.5 -15t56.5 -8t64.5 -4.5t63.5 -2.5t52.5 -3.5t31.5 -6.5q1 -20 -1 -47t-5.5 -52t-9.5 -44.5t-14 -25.5q-62 1 -130 3t-136 9t-134.5 20.5t-125.5 36.5
q-17 22 -26 66.5t-12 100.5t0.5 118.5t13 121.5t23.5 109t33 81q22 13 61 24.5t87 21.5l-25.5 44.5l-27 46.5l-26 44.5z" />
    <glyph glyph-name="ccaron" unicode="&#x10d;" horiz-adv-x="590" 
d="M562 118q1 -17 -0.5 -38t-5.5 -41.5t-9.5 -36t-12.5 -20.5q-56 1 -117 2.5t-122.5 7t-121 16.5t-112.5 29q-15 18 -23.5 57t-11 89.5t0.5 107t11.5 109t21.5 96t30 68.5q20 11 58.5 21t84.5 18t95.5 13.5t93.5 8t77.5 1.5t47.5 -7l2.5 -23t2.5 -31t0 -37t-5 -41
q-37 -3 -67 -4.5t-56.5 -4t-52 -8t-53.5 -16.5q-8 -27 -15.5 -71t-11 -89t-1.5 -85t14 -59q12 -8 34 -12.5t47.5 -6.5t53.5 -3t52.5 -2t43.5 -3t27 -5zM142 833q15 1 34 3.5t37 4t31.5 2.5t16.5 0q5 -10 12 -22t14.5 -23.5l14 -21.5t9.5 -15q2 -2 4 -6.5t7 -4.5q7 0 11 5.5
t6 8.5l24.5 39.5t22.5 41.5q20 2 40 2t36.5 -0.5t28 -2t16.5 -2.5q-8 -20 -18.5 -43.5t-23 -48l-26 -49.5t-27.5 -46q-14 -2 -37.5 -3t-48 -1.5t-47 0t-33.5 1.5l-24.5 44l-27.5 48l-27.5 47.5z" />
    <glyph glyph-name="Dcaron" unicode="&#x10e;" horiz-adv-x="845" 
d="M538 504q-16 14 -41 21t-53 8.5t-55 -3t-46 -13.5q-1 -10 -1.5 -40t-0.5 -69.5v-83.5v-81.5t1 -63.5t3 -30q41 -11 84 -6.5t75 15.5q14 39 24 87t14.5 95.5t3.5 90.5t-8 73zM216 859q17 1 38.5 3.5t41 4.5t34 3t18.5 0l14 -24.5t16.5 -26.5l15.5 -23.5l11 -16.5
q2 -2 4.5 -7t7.5 -5q8 0 12 6l6 9l28 44t24 47q22 2 44.5 2t41 -0.5t31.5 -2.5t18 -3q-13 -33 -32.5 -75t-42.5 -84q70 -3 127 -12l75 -70.5t66 -83.5q-1 -69 -5.5 -144t-15 -147t-27.5 -136.5t-44 -110.5q-25 -8 -68.5 -15.5t-98.5 -13t-117.5 -8.5t-124.5 -2.5t-120 5.5
t-104 15q-5 50 -6 118.5t-0.5 143t1.5 149t2 137.5l-57 3q0 24 1.5 47.5t3.5 44l3.5 36t2.5 23.5q56 8 123 14t139 8l-45 78t-42 70z" />
    <glyph glyph-name="dcaron" unicode="&#x10f;" horiz-adv-x="800" 
d="M682 -13q-47 -12 -106 -17.5t-113 -1.5l-3 43l-71.5 -11.5t-83.5 -11.5t-79.5 -7.5t-59.5 0.5q-34 29 -64 73.5l-56 84.5q-4 21 -3.5 56.5t5 77.5t12.5 87.5t19.5 86t26.5 72.5t32 49q73 15 155 23.5t164 3.5q0 21 -1 45.5l-2 49t-1.5 47.5t0.5 43q25 3 56 5.5t62.5 3.5
t60.5 -2t50 -10q0 -81 2 -186t3.5 -214.5t1 -212t-6.5 -177.5zM444 438q-33 8 -68.5 7t-67.5 -18q-7 -29 -12 -68t-7.5 -79t-2 -75t5.5 -56q14 -5 32.5 -6t39 1t41 6t38.5 9q1 3 2 22.5t1 47.5v60.5t-0.5 62.5t-1 53t-0.5 33zM975 844l-73 -96t-75 -77q-26 -1 -59.5 1.5
t-58.5 10.5q14 22 26 47.5t21.5 50.5t16.5 47l12 37q54 6 101.5 0.5t88.5 -21.5z" />
    <glyph glyph-name="Dcroat" unicode="&#x110;" horiz-adv-x="845" 
d="M83 281l-42 -3q-7 19 -9.5 41.5t-1 44t5 40t8.5 30.5q8 1 18.5 1t22.5 1q1 42 1.5 82t0.5 76l-57 4q0 26 1.5 52.5t3.5 49l3.5 40t2.5 26.5q66 10 149 17t168.5 9t167.5 -1.5t148 -14.5l75 -78.5t66 -93.5q-1 -76 -5.5 -159.5t-15 -163.5t-27.5 -151t-44 -123
q-25 -9 -68.5 -17.5t-98.5 -14.5t-117.5 -9.5t-124.5 -2.5t-120 6.5t-104 16.5q-5 57 -6 133.5t-1 161.5zM449 293q-26 -2 -53 -2.5t-55 -1.5q0 -49 1 -84t3 -40q41 -12 84 -7t75 17q14 44 24 97t14.5 106t3.5 101t-8 81q-16 15 -41 23t-53 9.5t-55 -3.5t-46 -15
q-1 -12 -1 -49t-1 -86q32 0 59 -0.5t44 -2.5q3 -12 5 -31.5t3 -40.5t0.5 -40t-3.5 -31z" />
    <glyph glyph-name="dcroat" unicode="&#x111;" horiz-adv-x="792" 
d="M444 438q-33 8 -68.5 7t-67.5 -18q-7 -29 -12 -68t-7.5 -79t-2 -75t5.5 -56q14 -5 32.5 -6t39 1t41 6t38.5 9q1 3 2 22.5t1 47.5v60.5t-0.5 62.5t-1 53t-0.5 33zM759 556l-36.5 6t-38.5 7q1 -75 2.5 -155.5t2 -157t-1 -146t-5.5 -123.5q-47 -12 -106 -17.5t-113 -1.5
l-3 43l-71.5 -11.5t-83.5 -11.5t-79.5 -7.5t-59.5 0.5q-34 29 -64 73.5l-56 84.5q-4 21 -3.5 56.5t5 77.5t12.5 87.5t19.5 86t26.5 72.5t32 49q73 15 155 23.5t164 3.5v15l-51.5 8t-49.5 7q-7 19 -9.5 40t-1 40t5 35t8.5 26l41 -7.5l53 -9.5v31q25 3 56 5.5t62.5 3.5
t60.5 -2t50 -10v-72q23 -5 41 -9.5t31 -8.5q3 -11 5 -29t3 -37.5t0.5 -37t-3.5 -27.5z" />
    <glyph glyph-name="Emacron" unicode="&#x112;" horiz-adv-x="678" 
d="M634 560q-61 -3 -121.5 -1.5t-121.5 -4.5q-7 -9 -11 -27t-5.5 -39t0.5 -41.5t8 -33.5q4 -1 33 -0.5t65.5 1t72 0t51.5 -3.5q3 -26 5 -57.5t-2 -58.5q-27 -3 -56 -3.5t-57.5 -0.5t-57 -1.5t-55.5 -6.5q-6 -11 -8 -29.5t-1.5 -38.5t2.5 -39.5t5 -31.5q18 -5 50.5 -5.5t69 0
t71 1.5t57.5 -2q5 -33 6.5 -72.5t-8.5 -73.5q-66 -6 -129 -9.5t-127 -4t-131 2.5t-141 11q-6 63 -8 133t-2.5 142.5t1 145.5t3.5 141q-14 0 -32 0.5t-32 0.5q1 34 6 70t13 67q62 13 139 18t155.5 6t153.5 -1.5l132 -4.5q4 -12 6 -31.5t2.5 -41t0 -42.5t-1.5 -34zM559 763
q-99 -5 -204.5 -5.5t-203.5 -9.5q-7 19 -9.5 41.5t-1 44t5 40t8.5 30.5q20 1 52.5 2t70.5 2t79 1.5t78.5 0t69 -1t50.5 -2.5q3 -12 5 -31.5t3 -40.5t0.5 -40t-3.5 -31z" />
    <glyph glyph-name="emacron" unicode="&#x113;" 
d="M668 250q-26 -4 -73 -8.5t-103 -9t-115 -8t-107 -4.5q3 -27 14 -46q12 -8 37.5 -13.5t57 -9.5t66 -6.5t64.5 -5t53 -5.5t31 -6q1 -17 -0.5 -40.5t-5.5 -46t-9 -40.5t-12 -23q-56 1 -120 4.5t-130 11.5t-129 21t-116 31q-15 18 -23.5 57t-11 89.5t0.5 107t11.5 109.5
t21.5 96.5t30 68.5q20 11 61.5 21t92 18t106 13.5t104 8t85 1.5t50.5 -7q19 -31 32.5 -77.5t22 -98.5t12 -105t2.5 -98zM433 378q1 11 1 25t-1.5 29t-4.5 28.5t-8 22.5q-14 -1 -26 -1.5t-25 -2t-28 -5t-33 -10.5q-7 -23 -13.5 -48t-10.5 -56q44 -2 82.5 4t66.5 14zM548 680
q-88 -5 -183.5 -5.5t-183.5 -8.5q-6 18 -8 38t-1 39.5t4 36t8 26.5q18 1 47 2t63 1.5l71 1t71 0.5t62 -1t46 -2q2 -11 4 -28t3 -36t0.5 -36.5t-3.5 -27.5z" />
    <glyph glyph-name="Ebreve" unicode="&#x114;" horiz-adv-x="678" 
d="M634 560q-61 -3 -121.5 -1.5t-121.5 -4.5q-7 -9 -11 -27t-5.5 -39t0.5 -41.5t8 -33.5q4 -1 33 -0.5t65.5 1t72 0t51.5 -3.5q3 -26 5 -57.5t-2 -58.5q-27 -3 -56 -3.5t-57.5 -0.5t-57 -1.5t-55.5 -6.5q-6 -11 -8 -29.5t-1.5 -38.5t2.5 -39.5t5 -31.5q18 -5 50.5 -5.5t69 0
t71 1.5t57.5 -2q5 -33 6.5 -72.5t-8.5 -73.5q-66 -6 -129 -9.5t-127 -4t-131 2.5t-141 11q-6 63 -8 133t-2.5 142.5t1 145.5t3.5 141q-14 0 -32 0.5t-32 0.5q1 34 6 70t13 67q62 13 139 18t155.5 6t153.5 -1.5l132 -4.5q4 -12 6 -31.5t2.5 -41t0 -42.5t-1.5 -34zM601 891
q-9 -20 -19 -35t-23.5 -29.5t-31 -28.5t-41.5 -30q-19 -13 -50 -18.5t-63 -5.5t-60 5.5t-41 15.5q-21 15 -36.5 28.5t-29 27t-25.5 28.5l-26 33l45 10.5l45 10t36.5 6.5t19.5 1q6 -10 16.5 -20t21.5 -18.5t21.5 -13.5t15.5 -5q10 0 22.5 7t23.5 17t19.5 20t11.5 15
q25 2 49 -0.5t44.5 -7t35 -8.5t19.5 -5z" />
    <glyph glyph-name="ebreve" unicode="&#x115;" 
d="M668 250q-26 -4 -73 -8.5t-103 -9t-115 -8t-107 -4.5q3 -27 14 -46q12 -8 37.5 -13.5t57 -9.5t66 -6.5t64.5 -5t53 -5.5t31 -6q1 -17 -0.5 -40.5t-5.5 -46t-9 -40.5t-12 -23q-56 1 -120 4.5t-130 11.5t-129 21t-116 31q-15 18 -23.5 57t-11 89.5t0.5 107t11.5 109.5
t21.5 96.5t30 68.5q20 11 61.5 21t92 18t106 13.5t104 8t85 1.5t50.5 -7q19 -31 32.5 -77.5t22 -98.5t12 -105t2.5 -98zM433 378q1 11 1 25t-1.5 29t-4.5 28.5t-8 22.5q-14 -1 -26 -1.5t-25 -2t-28 -5t-33 -10.5q-7 -23 -13.5 -48t-10.5 -56q44 -2 82.5 4t66.5 14zM559 795
q-8 -18 -17.5 -31.5t-21.5 -26.5t-27.5 -25.5t-37.5 -27.5q-17 -12 -44.5 -17t-56.5 -5t-54 5t-37 14q-19 14 -33 26t-26 24.5t-23 25.5t-24 30q19 4 40.5 9t40.5 8.5l33 6t18 1.5q5 -9 14.5 -18t19.5 -16.5t19 -12t14 -4.5q9 0 20 6.5t21.5 15t18 17.5t10.5 14q22 1 44 -1
t40 -6t31 -7.5t18 -4.5z" />
    <glyph glyph-name="Edotaccent" unicode="&#x116;" horiz-adv-x="678" 
d="M634 560q-61 -3 -121.5 -1.5t-121.5 -4.5q-7 -9 -11 -27t-5.5 -39t0.5 -41.5t8 -33.5q4 -1 33 -0.5t65.5 1t72 0t51.5 -3.5q3 -26 5 -57.5t-2 -58.5q-27 -3 -56 -3.5t-57.5 -0.5t-57 -1.5t-55.5 -6.5q-6 -11 -8 -29.5t-1.5 -38.5t2.5 -39.5t5 -31.5q18 -5 50.5 -5.5t69 0
t71 1.5t57.5 -2q5 -33 6.5 -72.5t-8.5 -73.5q-66 -6 -129 -9.5t-127 -4t-131 2.5t-141 11q-6 63 -8 133t-2.5 142.5t1 145.5t3.5 141q-14 0 -32 0.5t-32 0.5q1 34 6 70t13 67q62 13 139 18t155.5 6t153.5 -1.5l132 -4.5q4 -12 6 -31.5t2.5 -41t0 -42.5t-1.5 -34zM428 832
q0 -24 -8 -46q-3 -11 -17 -17.5t-31 -10t-33 -5t-25 -1.5q-6 0 -16.5 4.5t-20.5 12t-17 17.5t-7 22q0 21 5 43.5t17 33.5q7 6 20 10t27 6.5t26 3.5t17 1q11 0 22 -8t20 -19t15 -24t6 -23z" />
    <glyph glyph-name="edotaccent" unicode="&#x117;" 
d="M668 250q-26 -4 -73 -8.5t-103 -9t-115 -8t-107 -4.5q3 -27 14 -46q12 -8 37.5 -13.5t57 -9.5t66 -6.5t64.5 -5t53 -5.5t31 -6q1 -17 -0.5 -40.5t-5.5 -46t-9 -40.5t-12 -23q-56 1 -120 4.5t-130 11.5t-129 21t-116 31q-15 18 -23.5 57t-11 89.5t0.5 107t11.5 109.5
t21.5 96.5t30 68.5q20 11 61.5 21t92 18t106 13.5t104 8t85 1.5t50.5 -7q19 -31 32.5 -77.5t22 -98.5t12 -105t2.5 -98zM433 378q1 11 1 25t-1.5 29t-4.5 28.5t-8 22.5q-14 -1 -26 -1.5t-25 -2t-28 -5t-33 -10.5q-7 -23 -13.5 -48t-10.5 -56q44 -2 82.5 4t66.5 14zM430 736
q0 -11 -2 -21.5t-5 -20.5q-3 -9 -15.5 -15t-27.5 -9.5t-30 -4.5t-22 -1q-6 0 -15.5 4t-18 10.5t-15 15.5t-6.5 20q0 19 4 39.5t15 29.5q6 5 17.5 8.5t24.5 6t24 3.5t16 1q10 0 20 -7t18 -17t13 -21.5t5 -20.5z" />
    <glyph glyph-name="Eogonek" unicode="&#x118;" horiz-adv-x="678" 
d="M576 -110q0 -6 -0.5 -20t-2.5 -29t-5 -27.5t-7 -16.5q-32 0 -70 1t-77 4t-76 10t-66 19q-15 23 -19 51t-4 54q0 11 0.5 21t0.5 20q-36 2 -74 5t-78 8q-6 69 -8 147t-2.5 158.5t1 161.5t3.5 157q-14 0 -32 0.5t-32 0.5q1 38 6 78t13 75q62 14 139 19.5t155.5 6.5
t153.5 -1.5l132 -4.5q4 -13 6 -35t2.5 -46t0 -47t-1.5 -38q-61 -3 -121.5 -1t-121.5 -5q-7 -9 -11 -29.5t-5.5 -44t0.5 -46t8 -37.5q4 -2 33 -1.5t65.5 1.5t72 0.5t51.5 -3.5q3 -29 5 -64.5t-2 -64.5q-27 -3 -56 -3.5l-57.5 -1t-57 -2t-55.5 -7.5q-6 -12 -8 -32.5t-1.5 -43
t2.5 -44t5 -34.5q18 -6 50.5 -6.5t69 0t71 1.5t57.5 -2q5 -37 6.5 -80.5t-8.5 -81.5q-52 -5 -101.5 -8.5t-100.5 -5.5v-9q0 -21 9 -40q11 -8 29.5 -13.5t39 -8.5t40.5 -5t34 -4v-6z" />
    <glyph glyph-name="eogonek" unicode="&#x119;" 
d="M433 378q1 11 1 25t-1.5 29t-4.5 28.5t-8 22.5q-14 -1 -26 -1.5t-25 -2t-28 -5t-33 -10.5q-7 -23 -13.5 -48t-10.5 -56q44 -2 82.5 4t66.5 14zM530 -96q0 -6 -0.5 -18.5t-2 -26t-4.5 -24.5t-7 -15q-29 0 -63.5 1t-69.5 4t-68 9t-59 17q-14 20 -17.5 45.5t-3.5 48.5
q0 17 1 31.5l2 28.5q-91 15 -167 41q-15 18 -23.5 57t-11 89.5t0.5 107t11.5 109.5t21.5 96.5t30 68.5q20 11 61.5 21t92 18t106 13.5t104 8t85 1.5t50.5 -7q19 -31 32.5 -77.5t22 -98.5t12 -105t2.5 -98q-26 -4 -73 -8.5t-103 -9t-115 -8t-107 -4.5q3 -27 14 -46
q12 -8 37.5 -13.5t57 -9.5t66 -6.5t64.5 -5t53 -5.5t31 -6q1 -17 -0.5 -40.5t-5.5 -46t-9 -40.5t-12 -23q-39 1 -83 2.5t-90 5.5v-13q0 -20 8 -36q10 -7 26.5 -12t35.5 -8t37 -5t30 -3v-5z" />
    <glyph glyph-name="Ecaron" unicode="&#x11a;" horiz-adv-x="678" 
d="M146 859q17 1 38.5 3.5t41 4.5t34 3t18.5 0l14 -24.5t16.5 -26.5l15.5 -23.5l11 -16.5q2 -2 4.5 -7t7.5 -5q8 0 12 6l6 9l28 44t24 47q22 2 44.5 2t41 -0.5t31.5 -2.5t18 -3q-12 -32 -31.5 -73.5t-41.5 -81.5l78.5 -2t69.5 -3q4 -12 6 -31.5t2.5 -41t0 -42.5t-1.5 -34
q-61 -3 -121.5 -1.5t-121.5 -4.5q-7 -9 -11 -27t-5.5 -39t0.5 -41.5t8 -33.5q4 -1 33 -0.5t65.5 1t72 0t51.5 -3.5q3 -26 5 -57.5t-2 -58.5q-27 -3 -56 -3.5t-57.5 -0.5t-57 -1.5t-55.5 -6.5q-6 -11 -8 -29.5t-1.5 -38.5t2.5 -39.5t5 -31.5q18 -5 50.5 -5.5t69 0t71 1.5
t57.5 -2q5 -33 6.5 -72.5t-8.5 -73.5q-66 -6 -129 -9.5t-127 -4t-131 2.5t-141 11q-6 63 -8 133t-2.5 142.5t1 145.5t3.5 141q-14 0 -32 0.5t-32 0.5q1 34 6 70t13 67q41 8 87.5 13t97.5 8l-44.5 77.5t-41.5 69.5z" />
    <glyph glyph-name="ecaron" unicode="&#x11b;" 
d="M668 250q-26 -4 -73 -8.5t-103 -9t-115 -8t-107 -4.5q3 -27 14 -46q12 -8 37.5 -13.5t57 -9.5t66 -6.5t64.5 -5t53 -5.5t31 -6q1 -17 -0.5 -40.5t-5.5 -46t-9 -40.5t-12 -23q-56 1 -120 4.5t-130 11.5t-129 21t-116 31q-15 18 -23.5 57t-11 89.5t0.5 107t11.5 109.5
t21.5 96.5t30 68.5q20 11 61.5 21t92 18t106 13.5t104 8t85 1.5t50.5 -7q19 -31 32.5 -77.5t22 -98.5t12 -105t2.5 -98zM433 378q1 11 1 25t-1.5 29t-4.5 28.5t-8 22.5q-14 -1 -26 -1.5t-25 -2t-28 -5t-33 -10.5q-7 -23 -13.5 -48t-10.5 -56q44 -2 82.5 4t66.5 14zM162 843
q15 1 34 3.5t37 4t31.5 2.5t16.5 0q5 -10 12 -22t14.5 -23.5l14 -21.5t9.5 -15q2 -2 4 -6.5t7 -4.5q7 0 11 5.5t6 8.5l24.5 39.5t22.5 41.5q20 2 40 2t36.5 -0.5t28 -2t16.5 -2.5q-8 -20 -18.5 -43.5t-23 -48l-26 -49.5t-27.5 -46q-14 -2 -37.5 -3t-48 -1.5t-47 0t-33.5 1.5
l-24.5 44l-27.5 48l-27.5 47.5z" />
    <glyph glyph-name="Gcircumflex" unicode="&#x11c;" horiz-adv-x="760" 
d="M718 -41q-20 -2 -48 -5.5t-59.5 -5t-63.5 0t-59 8.5v48q-75 -5 -157.5 -7.5t-156.5 9.5q-15 13 -32.5 26.5t-35 29.5t-34.5 36t-32 47q-3 33 -1 76.5t7 91.5t13 97.5t19 94t23.5 81.5t26.5 61q29 12 69 22t86.5 17.5t96 13t96 10t88 7t71.5 4.5q7 -19 12 -41t8.5 -44.5
t4.5 -44t0 -39.5q-32 -4 -72.5 -8t-82 -9.5t-81 -13t-70.5 -19.5q-14 -18 -26 -59.5t-19 -89.5t-8 -93.5t8 -72.5q19 -8 43 -10t48 -0.5t44.5 4t32.5 3.5q7 25 6.5 49.5t-1.5 43.5q-23 3 -50.5 3.5t-50.5 -1.5q-5 32 -3 62.5t11 62.5q33 7 75.5 12.5t86.5 9t84.5 5t68.5 1.5
q3 -54 5.5 -115.5t4.5 -124.5t3 -123.5t1 -110.5zM591 758q-17 -2 -38.5 -4t-41 -4t-34 -3t-18.5 0l-14 24.5t-16.5 26.5l-15.5 24l-11 17q-2 2 -4.5 7t-7.5 5q-8 0 -12 -6t-6 -10l-28 -43.5t-24 -46.5q-23 -2 -45 -2t-40.5 0.5t-31.5 2t-18 3.5q8 22 20 48l25.5 53.5t29 55
t30.5 51.5q15 2 41 3t54 1.5t52.5 0t36.5 -1.5l27 -48.5l31 -53.5l31 -53z" />
    <glyph glyph-name="gcircumflex" unicode="&#x11d;" horiz-adv-x="694" 
d="M647 611q1 -12 1.5 -55t0 -101.5t-1.5 -126t-3 -128.5t-4.5 -107.5t-5.5 -63.5q-6 -33 -16 -63.5t-23.5 -56.5t-31.5 -45t-42 -28q-39 -15 -92.5 -25t-110.5 -16.5t-111.5 -10t-95.5 -5.5q-12 31 -18.5 69t-4.5 67q29 3 65.5 6t74 7t73 10.5t63.5 15.5q8 7 13.5 27.5
t10.5 47.5q-56 -2 -108 -5.5t-113 -5.5l-33 16t-35.5 19.5t-33 21.5t-25.5 22q-11 43 -11 108t8.5 132t24.5 126t38 91q22 12 61 16t83 5t87.5 -1t75.5 -2l3 44q31 1 63.5 1.5t64 0.5t59.5 -1.5t50 -5.5zM405 446q-25 -3 -54 -2.5t-53 -9.5q-8 -27 -14.5 -62t-9.5 -70.5
t-3 -68.5t5 -57q7 -4 21 -5t31 -0.5t36 2t36 1.5q1 30 2 65l2 71t1 71v65zM568 680q-17 -2 -38.5 -4t-41 -4t-34 -3t-18.5 0l-14 24.5t-16.5 26.5l-15.5 23.5l-11 16.5q-2 2 -4.5 7t-7.5 5q-7 0 -11.5 -6t-6.5 -9l-27.5 -44t-24.5 -47q-23 -2 -45 -2t-40.5 0.5t-31.5 2
t-18 3.5q8 22 20 48l25.5 53.5t29 55t31.5 51.5q15 2 41 3t53.5 1.5t52 0t37.5 -1.5l27 -48.5l30.5 -53.5l30.5 -52.5z" />
    <glyph glyph-name="Gbreve" unicode="&#x11e;" horiz-adv-x="760" 
d="M718 -41q-20 -2 -48 -5.5t-59.5 -5t-63.5 0t-59 8.5v48q-75 -5 -157.5 -7.5t-156.5 9.5q-15 13 -32.5 26.5t-35 29.5t-34.5 36t-32 47q-3 33 -1 76.5t7 91.5t13 97.5t19 94t23.5 81.5t26.5 61q29 12 69 22t86.5 17.5t96 13t96 10t88 7t71.5 4.5q7 -19 12 -41t8.5 -44.5
t4.5 -44t0 -39.5q-32 -4 -72.5 -8t-82 -9.5t-81 -13t-70.5 -19.5q-14 -18 -26 -59.5t-19 -89.5t-8 -93.5t8 -72.5q19 -8 43 -10t48 -0.5t44.5 4t32.5 3.5q7 25 6.5 49.5t-1.5 43.5q-23 3 -50.5 3.5t-50.5 -1.5q-5 32 -3 62.5t11 62.5q33 7 75.5 12.5t86.5 9t84.5 5t68.5 1.5
q3 -54 5.5 -115.5t4.5 -124.5t3 -123.5t1 -110.5zM621 901q-9 -20 -19 -35t-23.5 -29.5t-31 -28.5t-41.5 -30q-19 -13 -50 -18.5t-63 -5.5t-60 5.5t-41 15.5q-21 15 -36.5 28.5t-29 27t-25.5 28.5l-26 33l45 10.5l45 10t36.5 6.5t19.5 1q6 -10 16.5 -20t21.5 -18.5
t21.5 -13.5t15.5 -5q10 0 22.5 7t23.5 17t19.5 20t11.5 15q25 2 49 -0.5t44.5 -7t35 -8.5t19.5 -5z" />
    <glyph glyph-name="gbreve" unicode="&#x11f;" horiz-adv-x="694" 
d="M647 611q1 -12 1.5 -55t0 -101.5t-1.5 -126t-3 -128.5t-4.5 -107.5t-5.5 -63.5q-6 -33 -16 -63.5t-23.5 -56.5t-31.5 -45t-42 -28q-39 -15 -92.5 -25t-110.5 -16.5t-111.5 -10t-95.5 -5.5q-12 31 -18.5 69t-4.5 67q29 3 65.5 6t74 7t73 10.5t63.5 15.5q8 7 13.5 27.5
t10.5 47.5q-56 -2 -108 -5.5t-113 -5.5l-33 16t-35.5 19.5t-33 21.5t-25.5 22q-11 43 -11 108t8.5 132t24.5 126t38 91q22 12 61 16t83 5t87.5 -1t75.5 -2l3 44q31 1 63.5 1.5t64 0.5t59.5 -1.5t50 -5.5zM405 446q-25 -3 -54 -2.5t-53 -9.5q-8 -27 -14.5 -62t-9.5 -70.5
t-3 -68.5t5 -57q7 -4 21 -5t31 -0.5t36 2t36 1.5q1 30 2 65l2 71t1 71v65zM559 785q-8 -18 -17.5 -31.5t-21.5 -26.5t-27.5 -25.5t-37.5 -27.5q-17 -12 -44.5 -17t-56.5 -5t-54 5t-37 14q-19 14 -33 26t-26 24.5t-23 25.5t-24 30q19 4 40.5 9t40.5 8.5l33 6t18 1.5
q5 -9 14.5 -18t19.5 -16.5t19 -12t14 -4.5q9 0 20 6.5t21.5 15t18 17.5t10.5 14q22 1 44 -1t40 -6t31 -7.5t18 -4.5z" />
    <glyph glyph-name="Gdotaccent" unicode="&#x120;" horiz-adv-x="760" 
d="M718 -41q-20 -2 -48 -5.5t-59.5 -5t-63.5 0t-59 8.5v48q-75 -5 -157.5 -7.5t-156.5 9.5q-15 13 -32.5 26.5t-35 29.5t-34.5 36t-32 47q-3 33 -1 76.5t7 91.5t13 97.5t19 94t23.5 81.5t26.5 61q29 12 69 22t86.5 17.5t96 13t96 10t88 7t71.5 4.5q7 -19 12 -41t8.5 -44.5
t4.5 -44t0 -39.5q-32 -4 -72.5 -8t-82 -9.5t-81 -13t-70.5 -19.5q-14 -18 -26 -59.5t-19 -89.5t-8 -93.5t8 -72.5q19 -8 43 -10t48 -0.5t44.5 4t32.5 3.5q7 25 6.5 49.5t-1.5 43.5q-23 3 -50.5 3.5t-50.5 -1.5q-5 32 -3 62.5t11 62.5q33 7 75.5 12.5t86.5 9t84.5 5t68.5 1.5
q3 -54 5.5 -115.5t4.5 -124.5t3 -123.5t1 -110.5zM468 822q0 -24 -8 -46q-3 -11 -17 -17.5t-31 -10t-33 -5t-25 -1.5q-6 0 -16.5 4.5t-20.5 12t-17 17.5t-7 22q0 21 5 43.5t17 33.5q7 6 20 10t27 6.5t26 3.5t17 1q11 0 22 -8t20 -19t15 -24t6 -23z" />
    <glyph glyph-name="gdotaccent" unicode="&#x121;" horiz-adv-x="694" 
d="M647 611q1 -12 1.5 -55t0 -101.5t-1.5 -126t-3 -128.5t-4.5 -107.5t-5.5 -63.5q-6 -33 -16 -63.5t-23.5 -56.5t-31.5 -45t-42 -28q-39 -15 -92.5 -25t-110.5 -16.5t-111.5 -10t-95.5 -5.5q-12 31 -18.5 69t-4.5 67q29 3 65.5 6t74 7t73 10.5t63.5 15.5q8 7 13.5 27.5
t10.5 47.5q-56 -2 -108 -5.5t-113 -5.5l-33 16t-35.5 19.5t-33 21.5t-25.5 22q-11 43 -11 108t8.5 132t24.5 126t38 91q22 12 61 16t83 5t87.5 -1t75.5 -2l3 44q31 1 63.5 1.5t64 0.5t59.5 -1.5t50 -5.5zM405 446q-25 -3 -54 -2.5t-53 -9.5q-8 -27 -14.5 -62t-9.5 -70.5
t-3 -68.5t5 -57q7 -4 21 -5t31 -0.5t36 2t36 1.5q1 30 2 65l2 71t1 71v65zM440 726q0 -11 -2 -21.5t-5 -20.5q-3 -9 -15.5 -15t-27.5 -9.5t-30 -4.5t-22 -1q-6 0 -15.5 4t-18 10.5t-15 15.5t-6.5 20q0 19 4 39.5t15 29.5q6 5 17.5 8.5t24.5 6t24 3.5t16 1q10 0 20 -7t18 -17
t13 -21.5t5 -20.5z" />
    <glyph glyph-name="uni0122" unicode="&#x122;" horiz-adv-x="760" 
d="M535 -56q-3 -36 -9.5 -66t-17.5 -47q-29 -12 -66.5 -19t-76.5 -10t-77.5 -4t-68.5 -1q-4 3 -7 15t-5 27t-2.5 30.5t-0.5 26.5l38.5 4.5t40.5 5.5t37 8t27 13q5 11 8 29.5t5 41.5q-48 -2 -95 0t-91 10q-15 15 -32.5 29.5t-35 32t-34.5 40t-32 52.5q-3 37 -1 85t7 101.5
t13 108.5t19 104.5t23.5 91t26.5 67.5q29 13 69 24t86.5 19.5t96 15t96 11t88 7.5l71.5 5q14 -43 20.5 -95t4.5 -93q-32 -5 -72.5 -9t-82 -10t-81 -14.5t-70.5 -21.5q-14 -20 -26 -66t-19 -99.5t-8 -104t8 -80.5q19 -9 43 -11t48 -0.5t44.5 4t32.5 4.5q7 27 6.5 54.5
t-1.5 48.5q-23 3 -50.5 3.5t-50.5 -1.5q-5 35 -3 69.5t11 69.5q33 8 75.5 14t86.5 10t84.5 5.5t68.5 1.5q3 -60 5.5 -128.5t4.5 -138.5t3 -136.5t1 -122.5l-36.5 -5t-46 -5t-50.5 -2.5t-50 1.5z" />
    <glyph glyph-name="uni0123" unicode="&#x123;" horiz-adv-x="694" 
d="M647 611q1 -12 1.5 -55t0 -101.5t-1.5 -126t-3 -128.5t-4.5 -107.5t-5.5 -63.5q-6 -33 -16 -63.5t-23.5 -56.5t-31.5 -45t-42 -28q-39 -15 -92.5 -25t-110.5 -16.5t-111.5 -10t-95.5 -5.5q-12 31 -18.5 69t-4.5 67q29 3 65.5 6t74 7t73 10.5t63.5 15.5q8 7 13.5 27.5
t10.5 47.5q-56 -2 -108 -5.5t-113 -5.5l-33 16t-35.5 19.5t-33 21.5t-25.5 22q-11 43 -11 108t8.5 132t24.5 126t38 91q22 12 61 16t83 5t87.5 -1t75.5 -2l3 44q31 1 63.5 1.5t64 0.5t59.5 -1.5t50 -5.5zM405 446q-25 -3 -54 -2.5t-53 -9.5q-8 -27 -14.5 -62t-9.5 -70.5
t-3 -68.5t5 -57q7 -4 21 -5t31 -0.5t36 2t36 1.5q1 30 2 65l2 71t1 71v65zM250 656q-2 20 -2.5 47t1.5 53.5t8 49t17 34.5q26 8 60 12t69 6.5t69.5 3t61.5 0.5q3 -2 6 -9.5t4.5 -17.5t2.5 -20t1 -17q-16 -2 -35 -3t-37 -3t-33 -5.5t-24 -8.5q-6 -8 -8.5 -22.5t-4 -31.5
t-1 -36t0.5 -37q-13 -2 -35 -2t-45 1t-44 3z" />
    <glyph glyph-name="Hcircumflex" unicode="&#x124;" horiz-adv-x="762" 
d="M706 707q4 -45 5.5 -109t1 -135.5t-2 -145t-3.5 -138.5l-3.5 -116.5t-2.5 -78.5q-17 -3 -50 -4.5t-68.5 -1.5t-66 1t-40.5 2q-2 25 -0.5 57.5t2.5 67.5t0.5 69t-6.5 62q-11 1 -36.5 -0.5t-53.5 -3.5t-52 -5.5t-33 -6.5q-5 -60 -6 -120.5t1 -120.5q-52 -11 -114.5 -12.5
t-119.5 2.5q-5 31 -7.5 86.5t-3.5 124t-0.5 143t1.5 144t2.5 126.5t2.5 90q21 6 60.5 10t79.5 5.5t72 -1t37 -8.5q-9 -54 -9 -117.5v-118.5q18 -1 46 0t56 2.5t51 4.5t32 6q4 17 4 45t-1 59.5l-2 63t1 55.5q13 7 44.5 11.5t67.5 6.5t68 2t46 -3zM591 748q-17 -2 -38.5 -4
t-41 -4t-34 -3t-18.5 0l-14 24.5t-16.5 26.5l-15.5 24l-11 17q-2 2 -4.5 7t-7.5 5q-8 0 -12 -6t-6 -10l-28 -43.5t-24 -46.5q-23 -2 -45 -2t-40.5 0.5t-31.5 2t-18 3.5q8 22 20 48l25.5 53.5t29 55t30.5 51.5q15 2 41 3t54 1.5t52.5 0t36.5 -1.5l27 -48.5l31 -53.5l31 -53z
" />
    <glyph glyph-name="hcircumflex" unicode="&#x125;" horiz-adv-x="685" 
d="M635 641q3 -39 4.5 -96.5t1.5 -123.5t-1.5 -134t-3 -128.5t-3 -107.5t-2.5 -70q-15 -3 -44.5 -4t-61.5 -1t-59.5 0.5t-36.5 1.5q-2 22 -0.5 47t2 51t0 52t-5.5 50q-10 1 -34 2.5t-49.5 1t-47 -4t-26.5 -13.5q-4 -52 -6 -93.5t0 -93.5q-47 -9 -103 -10.5t-107 2.5
q-5 26 -7 77t-3 114t-0.5 132.5t1.5 133t2.5 116t2.5 80.5q12 3 33 6t45 4.5t48.5 2.5t45 0t35 -3t17.5 -5q-8 -48 -8 -107v-107q16 -4 41 -4t50.5 2.5t46.5 6t29 6.5q3 14 3 39.5t-1 55l-2 58.5t1 50q11 6 39.5 9.5t61 5.5t61.5 2t41 -3zM558 690q-17 -2 -38.5 -4t-41 -4
t-34 -3t-18.5 0l-14 24.5t-16.5 26.5l-15.5 23.5l-11 16.5q-2 2 -4.5 7t-7.5 5q-7 0 -11.5 -6t-6.5 -9l-27.5 -44t-24.5 -47q-23 -2 -45 -2t-40.5 0.5t-31.5 2t-18 3.5q8 22 20 48l25.5 53.5t29 55t31.5 51.5q15 2 41 3t53.5 1.5t52 0t37.5 -1.5l27 -48.5l30.5 -53.5
l30.5 -52.5z" />
    <glyph glyph-name="Hbar" unicode="&#x126;" horiz-adv-x="862" 
d="M531 551q-47 -2 -93.5 -4.5t-94.5 -5.5v-37q18 -1 46 0t56 3t51 5t32 7q3 13 3 32zM814 567q-13 -2 -25.5 -2.5t-26.5 -1.5q0 -83 -1 -172.5t-3 -169.5t-4 -143.5l-3 -95.5q-17 -3 -50 -4.5t-68.5 -1.5t-66 1t-40.5 2q-2 28 -0.5 64.5t2.5 74.5t0.5 76t-6.5 69
q-11 1 -36.5 0t-53.5 -3.5t-52 -6.5t-33 -8q-5 -67 -6 -133.5t1 -133.5q-52 -12 -114.5 -14t-119.5 3q-5 34 -7.5 97t-3.5 140t-0.5 161t1.5 161l-24 -2l-24 -2q-13 19 -17 41.5t-2 43.5t9 39.5t16 30.5q19 1 45 3q1 24 1 44.5t1 35.5q21 7 60.5 11.5t79.5 5.5t72 -1t37 -9
l-4 -35.5t-3 -38.5l92.5 4l91.5 4v35t1 31q13 7 44.5 12t67.5 7.5t68 2t46 -3.5q2 -17 2.5 -36t1.5 -41q13 0 24 0.5t21 -0.5q5 -11 9 -30t6 -40t1 -40t-7 -31z" />
    <glyph glyph-name="hbar" unicode="&#x127;" horiz-adv-x="755" 
d="M474 449l-85.5 -4l-84.5 -4v-28q16 -4 41 -4t50.5 2.5t46.5 6t29 6.5q2 5 2 11t1 14zM713 463q-8 -1 -16 -1.5t-16 -1.5q0 -68 -1 -142t-3 -141l-3.5 -119t-2.5 -77q-15 -3 -44.5 -4t-61.5 -1t-59.5 0.5t-36.5 1.5q-2 22 -0.5 47t2 51t0 52t-5.5 50q-10 1 -34 2.5
t-49.5 1t-47 -4t-26.5 -13.5q-4 -52 -6 -93.5t0 -93.5q-47 -9 -103 -10.5t-107 2.5q-5 27 -7 78t-3 114t-0.5 132.5t1.5 133.5q-7 -1 -14 -1.5t-14 -1.5q-11 16 -15 35.5t-2 38t8 34.5t14 26q5 1 11.5 1t14.5 1q1 19 1 35t1 27q12 3 33 6t45 4.5t48.5 2.5t45 0t35 -3
t17.5 -5q-4 -25 -6 -56l82.5 4l82.5 4v25.5t1 22.5q11 6 39.5 9.5t61 5.5t61.5 2t41 -3q1 -12 2 -26t2 -30h26q4 -10 8 -26.5t5.5 -34.5t0.5 -34.5t-6 -26.5z" />
    <glyph glyph-name="Itilde" unicode="&#x128;" horiz-adv-x="350" 
d="M295 691q0 -170 -5.5 -342.5t-13.5 -346.5q-10 -6 -38 -10t-60 -5.5t-61.5 -2t-42.5 1.5q-5 79 -7.5 170t-3.5 182.5t0 179t4 159.5q53 11 114.5 13t113.5 1zM412 873q-8 -10 -26 -34.5t-40 -50t-45.5 -44.5t-42.5 -17q-20 2 -46.5 12.5t-51.5 21.5t-45 19t-27 5
q-10 -4 -25 -18.5t-27 -30.5q-51 23 -65 50q10 20 24 42.5t30.5 43.5t34 37.5t34.5 24.5t36.5 3.5t40.5 -15t43.5 -24t45.5 -23.5q15 -7 30.5 0.5t28.5 18.5q15 13 29 32q19 -9 36 -22.5t28 -30.5z" />
    <glyph glyph-name="itilde" unicode="&#x129;" horiz-adv-x="315" 
d="M266 609q0 -144 -5 -294.5t-13 -298.5q-9 -5 -34 -8t-54 -5t-55.5 -2t-38.5 1q-5 67 -7 145.5t-2.5 158t0.5 154.5t3 137q48 9 103.5 11t102.5 1zM370 775l-23 -31t-36 -44.5t-41 -39.5t-38 -15q-18 1 -42 10.5t-46.5 19.5l-40 17.5t-24.5 4.5q-9 -4 -22 -17.5t-24 -27.5
q-47 22 -59 45q9 18 21.5 38.5t27.5 39t30.5 33.5t30.5 22q16 7 33.5 3t36.5 -13.5t39 -21.5t41 -21q14 -6 28 0.5t25 16.5q13 11 26 29q17 -8 32.5 -20t24.5 -28z" />
    <glyph glyph-name="Imacron" unicode="&#x12a;" horiz-adv-x="350" 
d="M295 691q0 -170 -5.5 -342.5t-13.5 -346.5q-10 -6 -38 -10t-60 -5.5t-61.5 -2t-42.5 1.5q-5 79 -7.5 170t-3.5 182.5t0 179t4 159.5q53 11 114.5 13t113.5 1zM351 753q-81 -5 -168 -5.5t-168 -9.5q-6 19 -8 41.5t-1 44t4 40t7 30.5q17 1 43.5 2t58 2t65 1.5t64.5 0t57 -1
t42 -2.5q2 -12 4 -31.5t3 -40.5t0.5 -40t-3.5 -31z" />
    <glyph glyph-name="imacron" unicode="&#x12b;" horiz-adv-x="315" 
d="M266 609q0 -144 -5 -294.5t-13 -298.5q-9 -5 -34 -8t-54 -5t-55.5 -2t-38.5 1q-5 67 -7 145.5t-2.5 158t0.5 154.5t3 137q48 9 103.5 11t102.5 1zM306 670q-67 -5 -138.5 -5.5t-137.5 -8.5q-5 18 -6.5 38t-1 39.5t3.5 36t6 26.5q21 1 58.5 2.5t78 2t77 0t56.5 -2.5
q2 -11 3.5 -28t2 -36t0.5 -36.5t-2 -27.5z" />
    <glyph glyph-name="Iogonek" unicode="&#x12e;" horiz-adv-x="350" 
d="M336 -90q0 -6 -0.5 -20t-2.5 -29t-5 -27.5t-7 -16.5q-32 0 -70 1t-77 4t-76 10t-66 19q-15 23 -19 51t-4 54q0 28 2 50.5t4 50.5q13 9 26.5 13.5t27.5 6.5q-3 74 -4.5 153.5t-1.5 158t1 152t3 136.5q53 11 114.5 13t113.5 1q0 -170 -5.5 -342.5t-13.5 -346.5
q-10 -6 -35.5 -9.5t-56.5 -5.5q0 -21 9 -40q11 -8 29.5 -13.5t39 -8.5t40.5 -5t34 -4v-6z" />
    <glyph glyph-name="iogonek" unicode="&#x12f;" horiz-adv-x="315" 
d="M293 671q-6 -8 -24.5 -13.5t-43.5 -10t-53 -6.5t-53 -1.5t-43 4t-23 9.5t-6.5 17t-0.5 23t3 23.5t4 18.5q3 11 17.5 19.5t32.5 14t37 8.5l31 5q10 1 23.5 0t27.5 -3.5t27.5 -6t22.5 -6.5q13 -22 19.5 -46t1.5 -49zM310 -66q0 -6 -0.5 -18.5t-2 -26t-4.5 -24.5t-7 -15
q-29 0 -63.5 1t-69.5 4t-68 9t-59 17q-14 20 -17.5 45.5t-3.5 48.5q0 25 2 45.5t4 45.5q10 7 20 11t21 6q-3 61 -4.5 128t-1.5 132.5t1 126.5t3 111q48 9 103.5 11t102.5 1q0 -68 -1.5 -140.5t-4 -146.5t-5.5 -147.5t-7 -143.5q-8 -4 -28.5 -6.5t-46.5 -4.5v-1q0 -20 8 -36
q10 -7 26.5 -12t35.5 -8t37 -5t30 -3v-5z" />
    <glyph glyph-name="Idotaccent" unicode="&#x130;" horiz-adv-x="350" 
d="M295 691q0 -170 -5.5 -342.5t-13.5 -346.5q-10 -6 -38 -10t-60 -5.5t-61.5 -2t-42.5 1.5q-5 79 -7.5 170t-3.5 182.5t0 179t4 159.5q53 11 114.5 13t113.5 1zM268 812q0 -24 -8 -46q-3 -11 -17 -17.5t-31 -10t-33 -5t-25 -1.5q-6 0 -16.5 4.5t-20.5 12t-17 17.5t-7 22
q0 21 5 43.5t17 33.5q7 6 20 10t27 6.5t26 3.5t17 1q11 0 22 -8t20 -19t15 -24t6 -23z" />
    <glyph glyph-name="dotlessi" unicode="&#x131;" horiz-adv-x="315" 
d="M266 609q0 -144 -5 -294.5t-13 -298.5q-9 -5 -34 -8t-54 -5t-55.5 -2t-38.5 1q-5 67 -7 145.5t-2.5 158t0.5 154.5t3 137q48 9 103.5 11t102.5 1z" />
    <glyph glyph-name="IJ" unicode="&#x132;" horiz-adv-x="954" 
d="M295 768q0 -189 -5.5 -380.5t-13.5 -385.5q-10 -6 -38 -10.5t-60 -6.5t-61.5 -2.5t-42.5 1.5q-5 88 -7.5 189t-3.5 203t0 198.5t4 177.5q53 12 114.5 14.5t113.5 1.5zM890 771q5 -39 7 -100t2 -132t-2 -147t-5 -146t-6.5 -127.5t-6.5 -92.5q-22 -15 -63.5 -28t-91.5 -23
t-104 -17t-101.5 -9t-84 0.5t-51.5 10.5q-2 24 -5 69.5t5 103.5l64 2t62 5t61.5 12t61.5 24q6 25 9.5 65.5t5.5 89.5t2 104.5t-1.5 111.5t-4.5 110t-7 100q21 6 51 12t63.5 9t69.5 2t70 -9z" />
    <glyph glyph-name="ij" unicode="&#x133;" horiz-adv-x="625" 
d="M293 671q-6 -8 -24.5 -13.5t-43.5 -10t-53 -6.5t-53 -1.5t-43 4t-23 9.5t-6.5 17t-0.5 23t3 23.5t4 18.5q3 11 17.5 19.5t32.5 14t37 8.5l31 5q10 1 23.5 0t27.5 -3.5t27.5 -6t22.5 -6.5q13 -22 19.5 -46t1.5 -49zM266 593q0 -68 -1.5 -140.5t-4 -146.5t-5.5 -147.5
t-7 -143.5q-9 -5 -34 -8t-54 -4.5t-55.5 -1.5t-38.5 1q-5 64 -7 140.5t-2.5 154.5t0.5 152t3 132q48 9 103.5 11t102.5 1zM603 671q-6 -8 -24.5 -13.5t-43.5 -10t-53 -6.5t-53 -1.5t-43 4t-23 9.5t-6.5 17t-0.5 23t3 23.5t4 18.5q3 11 17.5 19.5t32.5 14t37 8.5l31 5
q10 1 23.5 0t27.5 -3.5t27.5 -6t22.5 -6.5q13 -22 19.5 -46t1.5 -49zM595 586q5 -30 6 -84.5t0.5 -121.5t-3.5 -139.5t-6.5 -138.5t-7 -118.5t-6.5 -78.5q-16 -24 -50.5 -41.5t-79 -30t-93.5 -19.5t-92.5 -9.5t-77.5 0t-47 8.5q-2 18 -5 53t5 79q29 1 57.5 1.5t56 3.5t55 9
t55.5 18q5 19 8.5 61t5 97t1.5 117t-1 122t-4 113t-6 88q19 5 46 9.5t57.5 7t63 1.5t62.5 -7z" />
    <glyph glyph-name="Jcircumflex" unicode="&#x134;" horiz-adv-x="613" 
d="M550 694q5 -35 7 -89.5t2 -119t-2 -133t-5 -131t-6.5 -115t-6.5 -83.5q-22 -14 -63.5 -25.5t-91.5 -20.5t-104 -15t-101.5 -8t-84 0.5t-51.5 9.5q-2 22 -5 63t5 93l64 2t62 4.5t61.5 10.5t61.5 21q9 34 13 97t4 137t-3.5 150.5t-9.5 138.5q21 6 51 11t63.5 8t69.5 2
t70 -8zM621 758q-17 -2 -38.5 -4t-41 -4t-34 -3t-18.5 0l-14 24.5t-16.5 26.5l-15.5 24l-11 17q-2 2 -4.5 7t-7.5 5q-8 0 -12 -6t-6 -10l-28 -43.5t-24 -46.5q-23 -2 -45 -2t-40.5 0.5t-31.5 2t-18 3.5q8 22 20 48l25.5 53.5t29 55t30.5 51.5q15 2 41 3t54 1.5t52.5 0
t36.5 -1.5l27 -48.5l31 -53.5l31 -53z" />
    <glyph glyph-name="jcircumflex" unicode="&#x135;" horiz-adv-x="345" 
d="M285 586q5 -30 6 -84.5t0.5 -121.5t-3.5 -139.5t-6.5 -138.5t-7 -118.5t-6.5 -78.5q-16 -24 -50.5 -41.5t-79 -30t-93.5 -19.5t-92.5 -9.5t-77 0t-47.5 8.5q-2 18 -5 53t5 79q29 1 57.5 1.5t56 3.5t55 9t55.5 18q5 19 8.5 61t5 97t1.5 117t-1 122t-4 113t-6 88
q19 5 46 9.5t57.5 7t63 1.5t62.5 -7zM344 662q-14 -1 -32 -3l-34.5 -4t-29 -3t-15.5 0l-11.5 23t-13.5 25.5l-13 23l-9 15.5q-2 2 -3.5 7t-6.5 5q-6 0 -9.5 -6t-5.5 -8l-23.5 -42.5t-20.5 -44.5q-19 -2 -37 -2.5t-33.5 0.5t-26.5 2.5t-15 2.5q7 21 16.5 46.5t21 52
t24.5 52.5t26 49q13 2 34.5 3t44.5 1.5t43.5 0t31.5 -1.5l22.5 -46.5l25.5 -52l25.5 -51z" />
    <glyph glyph-name="uni0136" unicode="&#x136;" horiz-adv-x="747" 
d="M728 743l-36 -70l-51 -100l-54 -109l-46 -97q18 -52 41 -97.5t47 -88.5l47.5 -86t43.5 -90q-21 -10 -54 -17.5t-68.5 -12.5t-67 -8t-49.5 -4q-25 38 -48 77.5l-42.5 75l-35 65t-26.5 48.5l-37 -1q0 -21 1 -52.5t1 -65.5t-0.5 -67.5t-2.5 -60.5q-9 -5 -27.5 -8.5t-42 -6
t-49.5 -4.5t-50 -2t-43 1t-28 3q-4 50 -5.5 120t-1 148t2 159t3.5 153l3.5 128t2.5 86q22 5 58.5 6.5t72.5 1.5t66 -1.5t41 -2.5q-1 -27 -2 -59t-1 -65.5t1.5 -67.5t5.5 -65h43q13 21 32.5 57l40.5 76l42 79.5l36 67.5q26 1 55.5 -2.5t60 -10.5t61.5 -15zM500 -70l-74 -95
t-75 -77q-26 -1 -59 1t-58 10q14 22 25.5 48t21 50.5t17 47l12.5 37.5q54 5 101.5 0t88.5 -22z" />
    <glyph glyph-name="uni0137" unicode="&#x137;" horiz-adv-x="672" 
d="M646 31q-19 -8 -49.5 -16t-62.5 -15t-61.5 -12t-45.5 -5l-33.5 62l-37 63.5l-35 56.5l-25.5 41h-32q0 -14 0.5 -40.5t0.5 -56t-1 -59t-2 -49.5q-12 -6 -42 -9.5t-64.5 -5.5t-65.5 -2t-44 3q-4 38 -5 103.5t-1 144t1.5 161.5t3 156t3 128t2.5 78q20 4 52.5 6.5t65.5 4
t60.5 2t36.5 -0.5q-1 -13 -1 -37.5t-0.5 -54.5t-0.5 -63t1 -63.5t2 -56.5t3 -42l39.5 38.5l46 44.5l50 45.5t51.5 40.5q48 -17 89 -43t83 -71q-35 -29 -73.5 -72.5t-82.5 -88.5q16 -34 37.5 -67.5l45 -71t47 -81t44.5 -96.5zM456 -55l-66 -86t-68 -69q-23 -1 -53 1t-52 9
q12 20 22.5 43t19 45.5t15 42.5t11.5 34q96 9 171 -20z" />
    <glyph glyph-name="kgreenlandic" unicode="&#x138;" horiz-adv-x="747" 
d="M728 743l-36 -70l-51 -100l-54 -109l-46 -97q18 -52 41 -97.5t47 -88.5l47.5 -86t43.5 -90q-21 -10 -54 -17.5t-68.5 -12.5t-67 -8t-49.5 -4q-25 38 -48 77.5l-42.5 75l-35 65t-26.5 48.5l-37 -1q0 -21 1 -52.5t1 -65.5t-0.5 -67.5t-2.5 -60.5q-9 -5 -27.5 -8.5t-42 -6
t-49.5 -4.5t-50 -2t-43 1t-28 3q-4 50 -5.5 120t-1 148t2 159t3.5 153l3.5 128t2.5 86q22 5 58.5 6.5t72.5 1.5t66 -1.5t41 -2.5q-1 -27 -2 -59t-1 -65.5t1.5 -67.5t5.5 -65h43q13 21 32.5 57l40.5 76l42 79.5l36 67.5q26 1 55.5 -2.5t60 -10.5t61.5 -15z" />
    <glyph glyph-name="Lacute" unicode="&#x139;" horiz-adv-x="605" 
d="M571 196q5 -46 5 -88.5t-8 -89.5q-20 -2 -54.5 -5l-78 -6.5t-93 -6t-99 -4.5t-97 -2t-87.5 3l-2.5 89.5t-4 114t-4.5 127t-3 129t-0.5 120t3.5 99.5q7 4 26 6.5t44 4.5t54 2.5l55.5 1t48 -0.5t32.5 -2q-2 -67 -2.5 -142t-0.5 -144t0.5 -124.5t0.5 -84.5q31 -8 65 -9.5
t68 0t67.5 5.5t64.5 7zM480 920l-74 -95t-75 -77q-26 -1 -59 1t-58 10q14 22 25.5 48t21 50.5t17 47l12.5 37.5q54 5 101.5 0t88.5 -22z" />
    <glyph glyph-name="lacute" unicode="&#x13a;" horiz-adv-x="353" 
d="M293 693q-4 -33 -6.5 -90.5t-4 -125.5t-2 -141t0 -137.5t2.5 -114t5 -71.5q-32 -9 -57.5 -14t-50 -6.5t-50.5 0t-58 5.5q-3 25 -5.5 77.5t-4.5 119t-3 140.5t-0.5 141.5t3 122t7.5 82.5q30 6 62 10.5t61.5 6t55.5 0.5t45 -5zM397 922l-73 -95t-75 -77q-26 -1 -59 1
t-58 10q14 22 25.5 48t21 50.5t16.5 47l12 37.5q110 11 190 -22z" />
    <glyph glyph-name="uni013B" unicode="&#x13b;" horiz-adv-x="605" 
d="M571 218q5 -51 5 -99t-8 -99q-20 -3 -54.5 -6l-78 -6.5t-93 -6.5t-99 -5t-97 -2t-87.5 3l-2.5 99.5t-4 126.5t-4.5 141t-3 143t-0.5 133.5t3.5 110.5q7 4 26 7t44 5t54 3t55.5 1t48 -0.5t32.5 -2.5q-2 -74 -2.5 -157.5t-0.5 -160t0.5 -138.5t0.5 -94q31 -8 65 -10t68 0
t67.5 6zM410 -70l-74 -95t-75 -77q-26 -1 -59 1t-58 10q14 22 25.5 48t21 50.5t17 47l12.5 37.5q54 5 101.5 0t88.5 -22z" />
    <glyph glyph-name="uni013C" unicode="&#x13c;" horiz-adv-x="353" 
d="M293 770q-4 -37 -6.5 -100.5t-4 -139.5t-2 -157t0 -152.5t2.5 -127t5 -79.5q-32 -9 -57.5 -14.5t-50 -7.5t-50.5 -0.5t-58 6.5q-3 27 -5.5 85.5t-4.5 132.5t-3 156t-0.5 157t3 136t7.5 92q30 6 62 11t61.5 7t55.5 1t45 -6zM296 -65l-66 -86t-68 -69q-23 -1 -53 1t-52 9
q12 20 22.5 43t19 45.5t15 42.5t11.5 34q96 9 171 -20z" />
    <glyph glyph-name="Lcaron" unicode="&#x13d;" horiz-adv-x="605" 
d="M571 218q5 -51 5 -99t-8 -99q-20 -3 -54.5 -6l-78 -6.5t-93 -6.5t-99 -5t-97 -2t-87.5 3l-2.5 99.5t-4 126.5t-4.5 141t-3 143t-0.5 133.5t3.5 110.5q7 4 26 7t44 5t54 3t55.5 1t48 -0.5t32.5 -2.5q-2 -74 -2.5 -157.5t-0.5 -160t0.5 -138.5t0.5 -94q31 -8 65 -10t68 0
t67.5 6zM605 844l-73 -96t-75 -77q-26 -1 -59.5 1.5t-58.5 10.5q14 22 26 47.5t21.5 50.5t16.5 47l12 37q54 6 101.5 0.5t88.5 -21.5z" />
    <glyph glyph-name="lcaron" unicode="&#x13e;" horiz-adv-x="403" 
d="M293 770q-4 -37 -6.5 -100.5t-4 -139.5t-2 -157t0 -152.5t2.5 -127t5 -79.5q-32 -9 -57.5 -14.5t-50 -7.5t-50.5 -0.5t-58 6.5q-3 27 -5.5 85.5t-4.5 132.5t-3 156t-0.5 157t3 136t7.5 92q30 6 62 11t61.5 7t55.5 1t45 -6zM575 804l-73 -96t-75 -77q-26 -1 -59.5 1.5
t-58.5 10.5q14 22 26 47.5t21.5 50.5t16.5 47l12 37q54 6 101.5 0.5t88.5 -21.5z" />
    <glyph glyph-name="Ldot" unicode="&#x13f;" horiz-adv-x="605" 
d="M571 218q5 -51 5 -99t-8 -99q-20 -3 -54.5 -6l-78 -6.5t-93 -6.5t-99 -5t-97 -2t-87.5 3l-2.5 99.5t-4 126.5t-4.5 141t-3 143t-0.5 133.5t3.5 110.5q7 4 26 7t44 5t54 3t55.5 1t48 -0.5t32.5 -2.5q-2 -74 -2.5 -157.5t-0.5 -160t0.5 -138.5t0.5 -94q31 -8 65 -10t68 0
t67.5 6zM518 622q0 -24 -8 -46q-3 -11 -17 -17.5t-31 -10t-33 -5t-25 -1.5q-6 0 -16.5 4.5t-20.5 12t-17 17.5t-7 22q0 21 5 43.5t17 33.5q7 6 20 10t27 6.5t26 3.5t17 1q11 0 22 -8t20 -19t15 -24t6 -23z" />
    <glyph glyph-name="ldot" unicode="&#x140;" horiz-adv-x="553" 
d="M293 770q-4 -37 -6.5 -100.5t-4 -139.5t-2 -157t0 -152.5t2.5 -127t5 -79.5q-32 -9 -57.5 -14.5t-50 -7.5t-50.5 -0.5t-58 6.5q-3 27 -5.5 85.5t-4.5 132.5t-3 156t-0.5 157t3 136t7.5 92q30 6 62 11t61.5 7t55.5 1t45 -6zM508 592q0 -24 -8 -46q-3 -11 -17 -17.5
t-31 -10t-33 -5t-25 -1.5q-6 0 -16.5 4.5t-20.5 12t-17 17.5t-7 22q0 21 5 43.5t17 33.5q7 6 20 10t27 6.5t26 3.5t17 1q11 0 22 -8t20 -19t15 -24t6 -23z" />
    <glyph glyph-name="Lslash" unicode="&#x141;" horiz-adv-x="655" 
d="M449 365q-23 -5 -46.5 -8.5t-47.5 -7.5q1 -45 1 -79.5v-55.5q31 -8 65 -10t68 0t67.5 6l64.5 8q5 -51 5 -99t-8 -99q-20 -3 -54.5 -6l-78 -6.5t-93 -6.5t-99 -5t-97 -2t-87.5 3q-1 53 -3.5 134.5l-5.5 174.5l-30 -6t-29 -7q-7 19 -9.5 41t-1 44t5 41t8.5 31q19 3 52 9
q-2 85 -1.5 160.5t3.5 131.5q7 4 26 7t44 5t54 3t55.5 1t48 -0.5t32.5 -2.5q-2 -63 -2.5 -131t-0.5 -135q28 4 51 6.5t38 3.5q3 -12 5 -31t3 -40t0.5 -40.5t-3.5 -31.5z" />
    <glyph glyph-name="lslash" unicode="&#x142;" horiz-adv-x="440" 
d="M402 361q-17 -4 -35 -7l-36 -6v-108.5t1 -97t2.5 -78t3.5 -50.5q-32 -9 -57.5 -14.5t-50 -7.5t-50.5 -0.5t-58 6.5q-2 18 -3.5 49.5t-3 73t-3 90t-2.5 100.5q-18 -4 -35.5 -7.5t-34.5 -7.5q-6 18 -8 40t-1.5 43t4 40t7.5 31q13 2 30 5t37 6q0 48 0.5 93.5t1.5 84t3 69
t5 49.5q30 6 62 11t61.5 7t55.5 1t45 -6q-4 -42 -6.5 -115t-4.5 -160q20 2 37 4t29 2q2 -11 4 -30t3 -39.5t0.5 -39.5t-3.5 -31z" />
    <glyph glyph-name="Nacute" unicode="&#x143;" horiz-adv-x="827" 
d="M773 691q2 -168 1 -338t-6 -338q-26 -4 -61.5 -8.5t-77 -8.5t-86 -7t-88.5 -4q-44 69 -79 144.5t-66 152.5l-49 -5q-6 -57 -7.5 -130t2.5 -154q-48 -13 -96.5 -15t-100.5 8q-4 29 -6.5 78.5t-4 110t-2 128t-0.5 133t1 126t3 105.5q4 4 27.5 9t56.5 9.5t72 8t75.5 5.5
t66.5 2t45 -2q25 -78 56 -151l62 -148l47 3q1 3 1.5 19.5t1.5 41t2 54t1.5 59t1 55t1.5 41.5q101 25 206 16zM630 920l-74 -95t-75 -77q-26 -1 -59 1t-58 10q14 22 25.5 48t21 50.5t17 47l12.5 37.5q54 5 101.5 0t88.5 -22z" />
    <glyph glyph-name="nacute" unicode="&#x144;" horiz-adv-x="744" 
d="M695 625q1 -69 1 -146.5v-156.5t-1.5 -156.5t-3.5 -146.5l-55 -7t-69 -7.5t-77.5 -6.5t-79.5 -3q-39 57 -71 119.5t-60 126.5l-42 -3q-5 -47 -7.5 -107.5t1.5 -127.5q-44 -11 -87.5 -13t-90.5 6q-3 24 -5 68.5t-3.5 100t-2 117.5t-0.5 121.5t0.5 112.5t2.5 91q4 4 25 8
t50.5 7.5t65 6.5t68.5 5t60 2t40 -2l24 -71l27 -79l28.5 -78.5t28.5 -69.5l39 5q0 20 1.5 57.5l3 78t2.5 78t2 57.5q90 21 185 13zM557 852l-73 -95t-75 -77q-26 -1 -59 1t-58 10q14 22 25.5 48t21 50.5t16.5 47l12 37.5q110 11 190 -22z" />
    <glyph glyph-name="uni0145" unicode="&#x145;" horiz-adv-x="827" 
d="M773 691q2 -168 1 -338t-6 -338q-26 -4 -61.5 -8.5t-77 -8.5t-86 -7t-88.5 -4q-44 69 -79 144.5t-66 152.5l-49 -5q-6 -57 -7.5 -130t2.5 -154q-48 -13 -96.5 -15t-100.5 8q-4 29 -6.5 78.5t-4 110t-2 128t-0.5 133t1 126t3 105.5q4 4 27.5 9t56.5 9.5t72 8t75.5 5.5
t66.5 2t45 -2q25 -78 56 -151l62 -148l47 3q1 3 1.5 19.5t1.5 41t2 54t1.5 59t1 55t1.5 41.5q101 25 206 16zM510 -60l-74 -95t-75 -77q-26 -1 -59 1t-58 10q14 22 25.5 48t21 50.5t17 47l12.5 37.5q54 5 101.5 0t88.5 -22z" />
    <glyph glyph-name="uni0146" unicode="&#x146;" horiz-adv-x="744" 
d="M695 625q1 -69 1 -146.5v-156.5t-1.5 -156.5t-3.5 -146.5l-55 -7t-69 -7.5t-77.5 -6.5t-79.5 -3q-39 57 -71 119.5t-60 126.5l-42 -3q-5 -47 -7.5 -107.5t1.5 -127.5q-44 -11 -87.5 -13t-90.5 6q-3 24 -5 68.5t-3.5 100t-2 117.5t-0.5 121.5t0.5 112.5t2.5 91q4 4 25 8
t50.5 7.5t65 6.5t68.5 5t60 2t40 -2l24 -71l27 -79l28.5 -78.5t28.5 -69.5l39 5q0 20 1.5 57.5l3 78t2.5 78t2 57.5q90 21 185 13zM446 -55l-66 -86t-68 -69q-23 -1 -53 1t-52 9q12 20 22.5 43t19 45.5t15 42.5t11.5 34q96 9 171 -20z" />
    <glyph glyph-name="Ncaron" unicode="&#x147;" horiz-adv-x="827" 
d="M196 859q17 1 38.5 3.5t41 4.5t34 3t18.5 0l14 -24.5t16.5 -26.5l15.5 -23.5l11 -16.5q2 -2 4.5 -7t7.5 -5q8 0 12 6l6 9l28 44t24 47q22 2 44.5 2t41 -0.5t31.5 -2.5t18 -3q-8 -22 -20 -48l-25.5 -53.5t-29 -55t-30.5 -51.5q-15 -2 -39 -3l-50 -2q23 -65 50 -127.5
l53 -126.5l47 3q1 3 1.5 19.5t1.5 41t2 54t1.5 59t1 55t1.5 41.5q101 25 206 16q2 -168 1 -338t-6 -338q-26 -4 -61.5 -8.5t-77 -8.5t-86 -7t-88.5 -4q-44 69 -79 144.5t-66 152.5l-49 -5q-6 -57 -7.5 -130t2.5 -154q-48 -13 -96.5 -15t-100.5 8q-4 29 -6.5 78.5t-4 110
t-2 128t-0.5 133t1 126t3 105.5q4 4 28 9t58.5 9.5t74.5 8t77 5.5l-47.5 83.5z" />
    <glyph glyph-name="ncaron" unicode="&#x148;" horiz-adv-x="744" 
d="M695 625q1 -69 1 -146.5v-156.5t-1.5 -156.5t-3.5 -146.5l-55 -7t-69 -7.5t-77.5 -6.5t-79.5 -3q-39 57 -71 119.5t-60 126.5l-42 -3q-5 -47 -7.5 -107.5t1.5 -127.5q-44 -11 -87.5 -13t-90.5 6q-3 24 -5 68.5t-3.5 100t-2 117.5t-0.5 121.5t0.5 112.5t2.5 91q4 4 25 8
t50.5 7.5t65 6.5t68.5 5t60 2t40 -2l24 -71l27 -79l28.5 -78.5t28.5 -69.5l39 5q0 20 1.5 57.5l3 78t2.5 78t2 57.5q90 21 185 13zM182 848q15 1 34 3.5t37 4t31.5 2t16.5 -0.5q5 -9 12 -20l14.5 -22l14 -20t9.5 -14q2 -2 4 -6t7 -4q7 0 11 5t6 8l24.5 36.5t22.5 38.5
q20 2 40 2t36.5 -0.5t28 -2t16.5 -2.5q-15 -37 -41 -85.5t-54 -89.5q-14 -2 -37.5 -2.5t-48 -0.5t-47 0.5t-33.5 0.5l-24.5 41l-27.5 45l-27.5 44.5z" />
    <glyph glyph-name="napostrophe" unicode="&#x149;" horiz-adv-x="944" 
d="M895 625q1 -69 1 -146.5v-156.5t-1.5 -156.5t-3.5 -146.5l-55 -7t-69 -7.5t-77.5 -6.5t-79.5 -3q-39 57 -71 119.5t-60 126.5l-42 -3q-5 -47 -7.5 -107.5t1.5 -127.5q-44 -11 -87.5 -13t-90.5 6q-3 24 -5 68.5t-3.5 100t-2 117.5t-0.5 121.5t0.5 112.5t2.5 91q4 4 25 8
t50.5 7.5t65 6.5t68.5 5t60 2t40 -2l24 -71l27 -79l28.5 -78.5t28.5 -69.5l39 5q0 20 1.5 57.5l3 78t2.5 78t2 57.5q90 21 185 13zM284 716l-35 -72.5l-36 -70.5t-36 -63t-36 -49q-25 4 -56 14.5t-54 28.5q13 34 24.5 74t21 79t17 74.5l12.5 59.5q100 -4 178 -75z" />
    <glyph glyph-name="Omacron" unicode="&#x14c;" horiz-adv-x="824" 
d="M783 531q4 -69 3.5 -140.5t-8.5 -138.5t-25 -127t-44 -106q-31 -7 -74 -13t-93 -11t-104 -8t-107 -3t-102 3t-90 10q-12 13 -28.5 32.5t-32.5 41.5t-29.5 44.5t-19.5 40.5q-1 30 1 71.5t6.5 88.5t11.5 96t16.5 95.5t22.5 86.5t28 68q50 15 119 24.5t141.5 13.5t140.5 3.5
t118 -5.5q18 -15 38.5 -35t40.5 -42.5t38.5 -45.5t31.5 -44zM504 522q-14 3 -35 3.5t-44.5 -1t-47.5 -4.5t-42 -9q-4 -9 -7.5 -34.5t-6 -59.5t-4 -72.5t-2 -73.5t-1 -63.5t0.5 -41.5q20 -5 46 -7.5t52 -2.5t49.5 3t37.5 10q6 80 10.5 169t-6.5 184zM639 753
q-99 -5 -204.5 -5.5t-203.5 -9.5q-7 19 -9.5 41.5t-1 44t5 40t8.5 30.5q20 1 52.5 2t70.5 2t79 1.5t78.5 0t69 -1t50.5 -2.5q3 -12 5 -31.5t3 -40.5t0.5 -40t-3.5 -31z" />
    <glyph glyph-name="omacron" unicode="&#x14d;" horiz-adv-x="714" 
d="M666 508q4 -21 7 -57.5t3 -80.5t-2.5 -92.5t-8 -94t-14 -84.5t-20.5 -64q-134 -32 -240 -39t-186 -5q-47 19 -92.5 62t-79.5 92q-2 115 10 228t51 206q37 9 97 17.5t125 13.5t125 4.5t97 -9.5q15 -11 34.5 -24l38 -26.5t33.5 -25.5t22 -21zM440 180q2 59 5 131t-7 148
q-38 4 -74 4t-76 -14q-6 -11 -10 -47t-6 -80t-2 -87.5t3 -68.5q16 -3 40 -3t48 2.5t45.5 6.5t33.5 8zM548 670q-88 -5 -183.5 -5.5t-183.5 -8.5q-6 18 -8 38t-1 39.5t4 36t8 26.5q18 1 47 2t63 1.5l71 1t71 0.5t62 -0.5t46 -2.5q2 -11 4 -28t3 -36t0.5 -36.5t-3.5 -27.5z
" />
    <glyph glyph-name="Obreve" unicode="&#x14e;" horiz-adv-x="824" 
d="M783 531q4 -69 3.5 -140.5t-8.5 -138.5t-25 -127t-44 -106q-31 -7 -74 -13t-93 -11t-104 -8t-107 -3t-102 3t-90 10q-12 13 -28.5 32.5t-32.5 41.5t-29.5 44.5t-19.5 40.5q-1 30 1 71.5t6.5 88.5t11.5 96t16.5 95.5t22.5 86.5t28 68q50 15 119 24.5t141.5 13.5t140.5 3.5
t118 -5.5q18 -15 38.5 -35t40.5 -42.5t38.5 -45.5t31.5 -44zM504 522q-14 3 -35 3.5t-44.5 -1t-47.5 -4.5t-42 -9q-4 -9 -7.5 -34.5t-6 -59.5t-4 -72.5t-2 -73.5t-1 -63.5t0.5 -41.5q20 -5 46 -7.5t52 -2.5t49.5 3t37.5 10q6 80 10.5 169t-6.5 184zM641 881q-9 -20 -19 -35
t-23.5 -29.5t-31 -28.5t-41.5 -30q-19 -13 -50 -18.5t-63 -5.5t-60 5.5t-41 15.5q-21 15 -36.5 28.5t-29 27t-25.5 28.5l-26 33l45 10.5l45 10t36.5 6.5t19.5 1q6 -10 16.5 -20t21.5 -18.5t21.5 -13.5t15.5 -5q10 0 22.5 7t23.5 17t19.5 20t11.5 15q25 2 49 -0.5t44.5 -7
t35 -8.5t19.5 -5z" />
    <glyph glyph-name="obreve" unicode="&#x14f;" horiz-adv-x="714" 
d="M666 508q4 -21 7 -57.5t3 -80.5t-2.5 -92.5t-8 -94t-14 -84.5t-20.5 -64q-134 -32 -240 -39t-186 -5q-47 19 -92.5 62t-79.5 92q-2 115 10 228t51 206q37 9 97 17.5t125 13.5t125 4.5t97 -9.5q15 -11 34.5 -24l38 -26.5t33.5 -25.5t22 -21zM440 180q2 59 5 131t-7 148
q-38 4 -74 4t-76 -14q-6 -11 -10 -47t-6 -80t-2 -87.5t3 -68.5q16 -3 40 -3t48 2.5t45.5 6.5t33.5 8zM559 785q-8 -18 -17.5 -31.5t-21.5 -26.5t-27.5 -25.5t-37.5 -27.5q-17 -12 -44.5 -17t-56.5 -5t-54 5t-37 14q-19 14 -33 26t-26 24.5t-23 25.5t-24 30q19 4 40.5 9
t40.5 8.5l33 6t18 1.5q5 -9 14.5 -18t19.5 -16.5t19 -12t14 -4.5q9 0 20 6.5t21.5 15t18 17.5t10.5 14q22 1 44 -1t40 -6t31 -7.5t18 -4.5z" />
    <glyph glyph-name="Ohungarumlaut" unicode="&#x150;" horiz-adv-x="824" 
d="M783 531q4 -69 3.5 -140.5t-8.5 -138.5t-25 -127t-44 -106q-31 -7 -74 -13t-93 -11t-104 -8t-107 -3t-102 3t-90 10q-12 13 -28.5 32.5t-32.5 41.5t-29.5 44.5t-19.5 40.5q-1 30 1 71.5t6.5 88.5t11.5 96t16.5 95.5t22.5 86.5t28 68q50 15 119 24.5t141.5 13.5t140.5 3.5
t118 -5.5q18 -15 38.5 -35t40.5 -42.5t38.5 -45.5t31.5 -44zM504 522q-14 3 -35 3.5t-44.5 -1t-47.5 -4.5t-42 -9q-4 -9 -7.5 -34.5t-6 -59.5t-4 -72.5t-2 -73.5t-1 -63.5t0.5 -41.5q20 -5 46 -7.5t52 -2.5t49.5 3t37.5 10q6 80 10.5 169t-6.5 184zM481 909
q-22 -46 -46 -91.5t-50 -74.5q-23 -3 -51 -2.5t-51 6.5q8 21 13.5 45t9.5 47t6 44t4 35q45 8 86.5 5.5t78.5 -14.5zM706 896l-71 -84t-71 -67q-23 -1 -52.5 1t-50.5 10q14 19 26 42t22 45t17.5 41.5t13.5 32.5q97 9 166 -21z" />
    <glyph glyph-name="ohungarumlaut" unicode="&#x151;" horiz-adv-x="714" 
d="M666 508q4 -21 7 -57.5t3 -80.5t-2.5 -92.5t-8 -94t-14 -84.5t-20.5 -64q-134 -32 -240 -39t-186 -5q-47 19 -92.5 62t-79.5 92q-2 115 10 228t51 206q37 9 97 17.5t125 13.5t125 4.5t97 -9.5q15 -11 34.5 -24l38 -26.5t33.5 -25.5t22 -21zM440 180q2 59 5 131t-7 148
q-38 4 -74 4t-76 -14q-6 -11 -10 -47t-6 -80t-2 -87.5t3 -68.5q16 -3 40 -3t48 2.5t45.5 6.5t33.5 8zM393 798q-20 -42 -41.5 -83t-45.5 -67q-20 -2 -45.5 -1.5t-45.5 5.5q7 19 12 40.5t8.5 42.5t5.5 39.5t4 31.5q79 15 148 -8zM596 786l-64.5 -75.5t-64.5 -60.5
q-21 -1 -47 1.5t-45 8.5q12 18 23 38t20 40t16 38l12 30q86 8 150 -20z" />
    <glyph glyph-name="OE" unicode="&#x152;" horiz-adv-x="1078" 
d="M489 183q-2 99 -1 200.5t3 198.5q-15 2 -35 2t-41.5 -1.5t-42.5 -5t-37 -9.5q-4 -10 -7.5 -38t-6 -66t-4 -80.5t-2 -82t-1 -71t0.5 -46.5q18 -5 41.5 -8t47.5 -3t46.5 2t38.5 8zM1034 622q-61 -3 -121.5 -1t-121.5 -5q-5 -6 -10 -23l2 -3q2 -32 3 -65t1 -67q10 -1 40 0
t64.5 1.5t66.5 0t47 -3.5q3 -29 5 -64.5t-2 -64.5q-27 -3 -56 -3.5l-57.5 -1t-57 -2t-55.5 -7.5l-1 -2l-4 -36.5l-4 -35.5q0 -23 2.5 -44.5t4.5 -35.5q18 -6 50.5 -6.5t69 0t71 1.5t57.5 -2q5 -37 6.5 -80.5t-8.5 -81.5q-66 -7 -129 -11t-127 -4.5t-131 3t-141 12.5
q-46 -4 -94.5 -6.5t-95 -2t-90 4t-79.5 11.5q-12 14 -28.5 36t-32.5 46t-29.5 49t-19.5 45q-1 34 1 80t6.5 98t11.5 107t16.5 106t22.5 95.5t28 76.5q39 13 88.5 21.5t104.5 13.5t110.5 7.5t106.5 2.5q61 7 128.5 9.5t134 2.5t128.5 -1.5t111 -3.5q4 -13 6 -35t2.5 -46
t0 -47t-1.5 -38z" />
    <glyph glyph-name="oe" unicode="&#x153;" horiz-adv-x="1124" 
d="M440 180q2 59 5 131t-7 148q-38 4 -74 4t-76 -14q-6 -11 -10 -47t-6 -80t-2 -87.5t3 -68.5q16 -3 40 -3t48 2.5t45.5 6.5t33.5 8zM1088 250q-26 -4 -73 -8.5t-103 -9t-115 -8t-107 -4.5q3 -27 14 -46q12 -8 37.5 -13.5t57 -9.5t66 -6.5t64.5 -5t52.5 -5.5t31.5 -6
q1 -17 -0.5 -40.5t-5.5 -46t-9 -40.5t-12 -23q-45 0 -97 2.5t-105.5 8t-107 13.5t-102.5 20q-115 -23 -206 -28t-163 -3q-47 19 -92.5 62t-79.5 92q-2 115 10 228t51 206q37 9 97 17.5t125 13.5t125 4.5t97 -9.5q5 -4 11 -7.5t12 -8.5q31 9 73.5 17t89.5 14t94 10.5t88 5.5
t71 -0.5t42 -6.5q19 -31 32.5 -77.5t22 -98.5t12 -105t2.5 -98zM853 378q1 11 1 25t-1.5 29t-4.5 28.5t-8 22.5q-14 -1 -26 -1.5t-25 -2t-28 -5t-33 -10.5q-7 -23 -13.5 -48t-10.5 -56q44 -2 82.5 4t66.5 14z" />
    <glyph glyph-name="Racute" unicode="&#x154;" horiz-adv-x="786" 
d="M751 32q-14 -8 -41 -16t-59 -15t-66 -12t-61 -6q-36 42 -70 92.5t-68 95.5q-11 0 -18 0.5t-12.5 -0.5t-11.5 -3t-16 -6v-39t-1 -42.5l-2 -42.5t-2 -39q-16 -5 -40.5 -8.5t-55 -6t-65 -2t-70.5 3.5q-5 65 -8 133.5t-3.5 137.5t0 137t1.5 133q-10 0 -25.5 0.5t-29.5 2.5
q0 18 1.5 38t3.5 40t5.5 39t7.5 34q17 5 54 9t85 6t103.5 3t111 0.5t107 -2t91.5 -3.5q18 -9 38.5 -25.5t40 -38.5t36.5 -47t28 -50q-6 -66 -35.5 -137.5t-71.5 -138.5l28 -50l36.5 -68.5l33.5 -66zM477 514q-9 9 -28.5 12t-42.5 3t-45 -2.5t-35 -4.5q-2 -20 -3 -43.5
t-1 -47.5t1.5 -45t4.5 -35q32 1 60 3t57 11q24 40 30.5 78.5t1.5 70.5zM580 920l-74 -95t-75 -77q-26 -1 -59 1t-58 10q14 22 25.5 48t21 50.5t17 47l12.5 37.5q54 5 101.5 0t88.5 -22z" />
    <glyph glyph-name="racute" unicode="&#x155;" horiz-adv-x="702" 
d="M670 18q-12 -7 -39 -14t-59 -13t-64.5 -10t-57.5 -5q-8 9 -20.5 26l-28 38.5l-32.5 44.5l-34 44l-59 -16q-2 -37 -1 -64.5t-1 -58.5q-15 -4 -37.5 -7.5t-51 -5.5t-60.5 -2t-65 3q-2 27 -4.5 80.5t-4 120.5t-2 139t0.5 135.5t4 111t8 65.5q12 3 35.5 7t53 7t61 4t59.5 -2
v-48q27 7 65 12.5t77.5 9.5t77 5.5t64.5 0.5q21 -17 42.5 -51.5t38 -77.5t25.5 -90t5 -89q-16 -18 -44.5 -47t-60.5 -57q9 -14 26 -43l34 -60l31 -57.5t18 -35.5zM427 332q1 12 -0.5 32.5t-4.5 40.5l-5.5 36t-3.5 20q-8 3 -27 2.5t-40 -3.5t-40.5 -8t-28.5 -11
q-2 -17 -3 -37.5t-1 -40.5t1 -38t4 -30q15 0 35.5 1.5t42 5.5t40.5 11t31 19zM557 852l-73 -95t-75 -77q-26 -1 -59 1t-58 10q14 22 25.5 48t21 50.5t16.5 47l12 37.5q110 11 190 -22z" />
    <glyph glyph-name="uni0156" unicode="&#x156;" horiz-adv-x="786" 
d="M751 35q-14 -9 -41 -18t-59 -16.5t-66 -13t-61 -6.5q-36 46 -70 102.5t-68 106.5q-11 0 -18 0.5t-12.5 0t-11.5 -3t-16 -7.5v-43.5t-1 -47.5l-2 -47.5t-2 -42.5q-16 -5 -40.5 -9.5t-55 -7t-65 -2.5t-70.5 4q-5 72 -8 148.5t-3.5 153t0 152.5t1.5 147q-10 1 -25.5 1
t-29.5 3q0 19 1.5 41.5t3.5 45t5.5 43.5t7.5 38q17 6 54 10t85 6.5t103.5 3.5t111 0.5t107 -2t91.5 -4.5q18 -10 38.5 -28.5t40 -42.5t36.5 -52t28 -56q-6 -73 -35.5 -152.5t-71.5 -154.5q10 -18 28 -55.5l36.5 -77l33.5 -73zM477 571q-9 9 -28.5 12.5t-42.5 3.5t-45 -2
t-35 -5q-2 -22 -3 -48.5t-1 -53t1.5 -50t4.5 -38.5q32 1 60 3t57 12q24 45 30.5 88t1.5 78zM530 -60l-74 -95t-75 -77q-26 -1 -59 1t-58 10q14 22 25.5 48t21 50.5t17 47l12.5 37.5q54 5 101.5 0t88.5 -22z" />
    <glyph glyph-name="uni0157" unicode="&#x157;" horiz-adv-x="702" 
d="M670 18q-12 -7 -39 -14t-59 -13t-64.5 -10t-57.5 -5q-8 9 -20.5 26l-28 38.5l-32.5 44.5l-34 44l-59 -16q-2 -37 -1 -64.5t-1 -58.5q-15 -4 -37.5 -7.5t-51 -5.5t-60.5 -2t-65 3q-2 27 -4.5 80.5t-4 120.5t-2 139t0.5 135.5t4 111t8 65.5q12 3 35.5 7t53 7t61 4t59.5 -2
v-48q27 7 65 12.5t77.5 9.5t77 5.5t64.5 0.5q21 -17 42.5 -51.5t38 -77.5t25.5 -90t5 -89q-16 -18 -44.5 -47t-60.5 -57q9 -14 26 -43l34 -60l31 -57.5t18 -35.5zM427 332q1 12 -0.5 32.5t-4.5 40.5l-5.5 36t-3.5 20q-8 3 -27 2.5t-40 -3.5t-40.5 -8t-28.5 -11
q-2 -17 -3 -37.5t-1 -40.5t1 -38t4 -30q15 0 35.5 1.5t42 5.5t40.5 11t31 19zM466 -65l-66 -86t-68 -69q-23 -1 -53 1t-52 9q12 20 22.5 43t19 45.5t15 42.5t11.5 34q96 9 171 -20z" />
    <glyph glyph-name="Rcaron" unicode="&#x158;" horiz-adv-x="786" 
d="M477 514q-9 9 -28.5 12t-42.5 3t-45 -2.5t-35 -4.5q-2 -20 -3 -43.5t-1 -47.5t1.5 -45t4.5 -35q32 1 60 3t57 11q24 40 30.5 78.5t1.5 70.5zM166 859q17 1 38.5 3.5t41 4.5t34 3t18.5 0l14 -24.5t16.5 -26.5l15.5 -23.5l11 -16.5q2 -2 4.5 -7t7.5 -5q8 0 12 6l6 9l28 44
t24 47q22 2 44.5 2t41 -0.5t31.5 -2.5t18 -3q-14 -35 -35.5 -81t-46.5 -89q30 -2 57 -2.5t50 -2.5q18 -9 38.5 -25.5t40 -38.5t36.5 -47t28 -50q-6 -66 -35.5 -137.5t-71.5 -138.5l28 -50l36.5 -68.5l33.5 -66l20 -40.5q-14 -8 -41 -16t-59 -15t-66 -12t-61 -6
q-36 42 -70 92.5t-68 95.5q-11 0 -18 0.5t-12.5 -0.5t-11.5 -3t-16 -6v-39t-1 -42.5l-2 -42.5t-2 -39q-16 -5 -40.5 -8.5t-55 -6t-65 -2t-70.5 3.5q-5 65 -8 133.5t-3.5 137.5t0 137t1.5 133q-10 0 -25.5 0.5t-29.5 2.5q0 18 1.5 38t3.5 40t5.5 39t7.5 34q24 8 82.5 12
t132.5 6l-48.5 84.5z" />
    <glyph glyph-name="rcaron" unicode="&#x159;" horiz-adv-x="702" 
d="M670 18q-12 -7 -39 -14t-59 -13t-64.5 -10t-57.5 -5q-8 9 -20.5 26l-28 38.5l-32.5 44.5l-34 44l-59 -16q-2 -37 -1 -64.5t-1 -58.5q-15 -4 -37.5 -7.5t-51 -5.5t-60.5 -2t-65 3q-2 27 -4.5 80.5t-4 120.5t-2 139t0.5 135.5t4 111t8 65.5q12 3 35.5 7t53 7t61 4t59.5 -2
v-48q27 7 65 12.5t77.5 9.5t77 5.5t64.5 0.5q21 -17 42.5 -51.5t38 -77.5t25.5 -90t5 -89q-16 -18 -44.5 -47t-60.5 -57q9 -14 26 -43l34 -60l31 -57.5t18 -35.5zM427 332q1 12 -0.5 32.5t-4.5 40.5l-5.5 36t-3.5 20q-8 3 -27 2.5t-40 -3.5t-40.5 -8t-28.5 -11
q-2 -17 -3 -37.5t-1 -40.5t1 -38t4 -30q15 0 35.5 1.5t42 5.5t40.5 11t31 19zM152 854q15 1 34 3t37 3.5t31.5 2.5t16.5 0q5 -9 12 -20.5t14.5 -22.5l14 -20l9.5 -13q2 -2 4 -6t7 -4q7 0 11 5t6 7l24.5 36.5t22.5 39.5q20 1 40 1.5t36.5 -0.5t28 -2t16.5 -2q-15 -37 -41 -85
t-54 -89q-14 -2 -37.5 -3t-48 -1t-47 0.5t-33.5 1.5l-24.5 40.5l-27.5 45l-27.5 44z" />
    <glyph glyph-name="Sacute" unicode="&#x15a;" horiz-adv-x="664" 
d="M611 556q-69 -10 -137 -15.5t-136 -18.5q-14 -22 -18 -47t-5 -51q74 -14 147 -25t147 -24q14 -32 17 -74t-2.5 -86t-18 -85t-29.5 -71q-54 -21 -117 -36.5t-127.5 -26.5t-127.5 -19t-116 -12q-8 15 -13.5 39.5t-9.5 50t-5.5 47.5t-0.5 33q34 2 74.5 6.5t78.5 11.5t70 15
t49 17q4 11 6 29t0 33q-10 7 -32 12t-51 9t-61.5 8t-63.5 8.5t-56.5 11t-40.5 16.5q-4 87 11.5 172.5t51.5 161.5q117 42 247 59t253 12q12 -35 14.5 -79t1.5 -82zM540 920l-74 -95t-75 -77q-26 -1 -59 1t-58 10q14 22 25.5 48t21 50.5t17 47l12.5 37.5q54 5 101.5 0
t88.5 -22z" />
    <glyph glyph-name="sacute" unicode="&#x15b;" horiz-adv-x="618" 
d="M560 502q-62 -9 -123.5 -13.5t-122.5 -15.5q-12 -18 -15.5 -41.5t-4.5 -45.5q66 -11 132 -30.5t132 -30.5q13 -27 17 -63t1 -73.5t-13 -72t-25 -59.5q-51 -24 -107 -40.5t-113 -28t-115 -19.5t-113 -14q-7 4 -12 24t-9 43.5t-5.5 45.5t-0.5 31q31 1 67 5.5t70.5 10
t63.5 12.5t44 14q3 10 5 27t0 30q-13 9 -50 17l-80 16.5t-83.5 18.5t-60.5 22q-2 36 1 76t10 80.5t18.5 79t27.5 70.5q105 35 222 49.5t227 10.5q11 -30 13.5 -67t1.5 -69zM527 852l-73 -95t-75 -77q-26 -1 -59 1t-58 10q14 22 25.5 48t21 50.5t16.5 47l12 37.5
q110 11 190 -22z" />
    <glyph glyph-name="Scircumflex" unicode="&#x15c;" horiz-adv-x="664" 
d="M611 556q-69 -10 -137 -15.5t-136 -18.5q-14 -22 -18 -47t-5 -51q74 -14 147 -25t147 -24q14 -32 17 -74t-2.5 -86t-18 -85t-29.5 -71q-54 -21 -117 -36.5t-127.5 -26.5t-127.5 -19t-116 -12q-8 15 -13.5 39.5t-9.5 50t-5.5 47.5t-0.5 33q34 2 74.5 6.5t78.5 11.5t70 15
t49 17q4 11 6 29t0 33q-10 7 -32 12t-51 9t-61.5 8t-63.5 8.5t-56.5 11t-40.5 16.5q-4 87 11.5 172.5t51.5 161.5q117 42 247 59t253 12q12 -35 14.5 -79t1.5 -82zM571 758q-17 -2 -38.5 -4t-41 -4t-34 -3t-18.5 0l-14 24.5t-16.5 26.5l-15.5 24l-11 17q-2 2 -4.5 7t-7.5 5
q-8 0 -12 -6t-6 -10l-28 -43.5t-24 -46.5q-23 -2 -45 -2t-40.5 0.5t-31.5 2t-18 3.5q8 22 20 48l25.5 53.5t29 55t30.5 51.5q15 2 41 3t54 1.5t52.5 0t36.5 -1.5l27 -48.5l31 -53.5l31 -53z" />
    <glyph glyph-name="scircumflex" unicode="&#x15d;" horiz-adv-x="618" 
d="M560 502q-62 -9 -123.5 -13.5t-122.5 -15.5q-12 -18 -15.5 -41.5t-4.5 -45.5q66 -11 132 -30.5t132 -30.5q13 -27 17 -63t1 -73.5t-13 -72t-25 -59.5q-51 -24 -107 -40.5t-113 -28t-115 -19.5t-113 -14q-7 4 -12 24t-9 43.5t-5.5 45.5t-0.5 31q31 1 67 5.5t70.5 10
t63.5 12.5t44 14q3 10 5 27t0 30q-13 9 -50 17l-80 16.5t-83.5 18.5t-60.5 22q-2 36 1 76t10 80.5t18.5 79t27.5 70.5q105 35 222 49.5t227 10.5q11 -30 13.5 -67t1.5 -69zM528 680q-17 -2 -38.5 -4t-41 -4t-34 -3t-18.5 0l-14 24.5t-16.5 26.5l-15.5 23.5l-11 16.5
q-2 2 -4.5 7t-7.5 5q-7 0 -11.5 -6t-6.5 -9l-27.5 -44t-24.5 -47q-23 -2 -45 -2t-40.5 0.5t-31.5 2t-18 3.5q8 22 20 48l25.5 53.5t29 55t31.5 51.5q15 2 41 3t53.5 1.5t52 0t37.5 -1.5l27 -48.5l30.5 -53.5l30.5 -52.5z" />
    <glyph glyph-name="Scedilla" unicode="&#x15e;" horiz-adv-x="664" 
d="M458 25q0 -29 -1.5 -58t-5 -55t-9 -47.5t-14.5 -33.5q-29 -12 -66.5 -19t-76.5 -10t-77.5 -4t-68.5 -1q-4 3 -7 15t-5 27t-2.5 30.5t-0.5 26.5l38.5 4.5t40.5 5.5t37 8t27 13q9 19 12 59q-51 -9 -99.5 -15t-91.5 -10q-8 17 -13.5 44.5t-9.5 55.5t-5.5 52.5t-0.5 36.5
q34 2 74.5 7.5t78.5 13t70 16.5t49 18q4 13 6 32.5t0 36.5q-10 8 -32 13.5t-51 10t-61.5 9t-63.5 10t-56.5 12.5t-40.5 18q-4 96 11.5 191t51.5 180q117 47 247 65.5t253 13.5q12 -39 14.5 -88t1.5 -91q-69 -11 -137 -17.5t-136 -20.5q-14 -24 -18 -52t-5 -57
q74 -15 147 -27.5t147 -26.5q14 -36 17 -83t-2.5 -95.5t-18 -94t-29.5 -78.5q-27 -12 -56.5 -22t-61.5 -19z" />
    <glyph glyph-name="scedilla" unicode="&#x15f;" horiz-adv-x="618" 
d="M431 17q0 -27 -1 -54.5t-4 -52t-8.5 -44.5t-13.5 -32q-26 -11 -59.5 -17t-69 -9t-70 -3.5t-61.5 -0.5q-3 3 -6 13t-4.5 23.5t-2 28t-0.5 24.5q16 2 34.5 4t36.5 5t33 7.5t24 11.5q5 10 7.5 25t4.5 34q-46 -8 -91 -14t-90 -11q-7 4 -12 24t-9 43.5t-5.5 45.5t-0.5 31
q31 1 67 5.5t70.5 10t63.5 12.5t44 14q3 10 5 27t0 30q-13 9 -50 17l-80 16.5t-83.5 18.5t-60.5 22q-2 36 1 76t10 80.5t18.5 79t27.5 70.5q105 35 222 49.5t227 10.5q11 -30 13.5 -67t1.5 -69q-62 -9 -123.5 -13.5t-122.5 -15.5q-12 -18 -15.5 -41.5t-4.5 -45.5
q66 -11 132 -30.5t132 -30.5q13 -27 17 -63t1 -73.5t-13 -72t-25 -59.5q-26 -12 -52.5 -22t-54.5 -18z" />
    <glyph glyph-name="Scaron" unicode="&#x160;" horiz-adv-x="664" 
d="M146 859q17 1 38.5 3.5t41 4.5t34 3t18.5 0l14 -24.5t16.5 -26.5l15.5 -23.5l11 -16.5q2 -2 4.5 -7t7.5 -5q8 0 12 6l6 9l28 44t24 47q22 2 44.5 2t41 -0.5t31.5 -2.5t18 -3q-12 -32 -31 -72t-41 -80q59 3 115 0q12 -35 14.5 -79t1.5 -82q-69 -10 -137 -15.5t-136 -18.5
q-14 -22 -18 -47t-5 -51q74 -14 147 -25t147 -24q14 -32 17 -74t-2.5 -86t-18 -85t-29.5 -71q-54 -21 -117 -36.5t-127.5 -26.5t-127.5 -19t-116 -12q-8 15 -13.5 39.5t-9.5 50t-5.5 47.5t-0.5 33q34 2 74.5 6.5t78.5 11.5t70 15t49 17q4 11 6 29t0 33q-10 7 -32 12t-51 9
t-61.5 8t-63.5 8.5t-56.5 11t-40.5 16.5q-4 87 11.5 172.5t51.5 161.5q71 25 151 42l-51.5 89z" />
    <glyph glyph-name="scaron" unicode="&#x161;" horiz-adv-x="618" 
d="M560 502q-62 -9 -123.5 -13.5t-122.5 -15.5q-12 -18 -15.5 -41.5t-4.5 -45.5q66 -11 132 -30.5t132 -30.5q13 -27 17 -63t1 -73.5t-13 -72t-25 -59.5q-51 -24 -107 -40.5t-113 -28t-115 -19.5t-113 -14q-7 4 -12 24t-9 43.5t-5.5 45.5t-0.5 31q31 1 67 5.5t70.5 10
t63.5 12.5t44 14q3 10 5 27t0 30q-13 9 -50 17l-80 16.5t-83.5 18.5t-60.5 22q-2 36 1 76t10 80.5t18.5 79t27.5 70.5q105 35 222 49.5t227 10.5q11 -30 13.5 -67t1.5 -69zM142 842q15 1 34 3.5t37 4t31.5 2.5t16.5 0q5 -9 12 -20.5l14.5 -23t14 -20.5t9.5 -14q2 -2 4 -6
t7 -4q7 0 11 5t6 8l24.5 37t22.5 40q20 2 40 2t36.5 -0.5t28 -2t16.5 -2.5q-15 -38 -41 -87t-54 -91q-14 -2 -37.5 -3t-48 -1t-47 0.5t-33.5 0.5l-24.5 41.5l-27.5 46l-27.5 45z" />
    <glyph glyph-name="uni0162" unicode="&#x162;" horiz-adv-x="723" 
d="M535 117q2 -31 3 -72.5t-1.5 -83t-9.5 -77t-19 -53.5q-29 -12 -66.5 -19t-76.5 -10t-77.5 -4t-68.5 -1q-4 3 -7 15t-5 27t-2.5 30.5t-0.5 26.5l38.5 4.5t40.5 5.5t37 8t27 13q5 10 7.5 25t4.5 33q-29 -4 -59 -5t-59 1q-7 85 -10 155t-4 135t0 130.5t1 142.5
q-23 2 -49 1.5t-52.5 -2t-52 -4.5t-46.5 -5q-2 48 2 101.5t16 103.5q14 7 62.5 12.5t115 9.5t141.5 6t142 2.5t117.5 -1.5t67.5 -5q2 -20 1.5 -44.5t-2 -49.5t-4 -47.5t-5.5 -37.5q-42 -6 -84 -9l-85 -6q-5 -24 -9.5 -74t-8.5 -112.5t-7 -130.5t-4 -128l30 -3.5t21 -3.5z
" />
    <glyph glyph-name="uni0163" unicode="&#x163;" horiz-adv-x="651" 
d="M479 101q2 -27 2.5 -64.5t-2 -75t-8.5 -69.5t-17 -48q-26 -11 -59.5 -17t-69 -9t-70 -4t-61.5 -1q-3 3 -6 13.5t-4.5 24t-2 27.5t-0.5 24q16 2 34.5 4t36.5 5t33 7.5t24 11.5q5 10 7.5 25t4.5 34q-32 -3 -63 -4.5t-58 0.5q-7 65 -9.5 115.5t-3.5 97t0 94t1 105.5
q-42 4 -83 -0.5t-80 -7.5q-2 36 1.5 77t14.5 79q14 6 48.5 10t100.5 7q0 18 0.5 40t1.5 45t2.5 45.5t4.5 40.5q27 10 60.5 16t67 9t65 3.5t54.5 0.5v-37t-0.5 -53.5l-1 -57t-0.5 -46.5q64 1 113 -0.5t65 -4.5q2 -15 2 -33.5t-1.5 -37.5t-4 -36.5t-4.5 -28.5
q-38 -5 -82.5 -7.5l-82.5 -4.5q-4 -18 -6.5 -52t-4 -76.5t-1.5 -89.5v-90q13 -2 24 -3t18 -3z" />
    <glyph glyph-name="Tcaron" unicode="&#x164;" horiz-adv-x="723" 
d="M166 849q17 1 38.5 3.5t41 4.5t34 3t18.5 0l14 -24.5t16.5 -26.5l15.5 -23.5l11 -16.5q2 -2 4.5 -7t7.5 -5q8 0 12 6l6 9l28 44t24 47q22 2 44.5 2t41 -0.5t31.5 -2.5t18 -3q-13 -35 -34.5 -79.5t-45.5 -87.5q72 1 127 -0.5t73 -4.5q2 -18 1.5 -40.5t-2 -45t-4 -42.5
t-5.5 -33q-42 -5 -84 -8l-85 -6q-4 -19 -8 -54.5t-7.5 -81t-6.5 -96.5t-5 -101.5t-3 -95.5t0 -78q-60 -10 -121 -18.5t-121 -3.5q-7 76 -10 139t-4 122t0 118t1 128q-23 2 -49 1.5t-52.5 -2t-52 -4l-46.5 -4.5q-2 42 2 90.5t16 93.5q8 4 27.5 7t48 6t64 5t75.5 4l-49 85z
" />
    <glyph glyph-name="tcaron" unicode="&#x165;" horiz-adv-x="651" 
d="M622 563q2 -15 2 -33.5t-1.5 -37.5t-4 -36.5t-4.5 -28.5q-38 -5 -82.5 -7.5l-82.5 -4.5q-5 -24 -8 -75.5t-3.5 -112t-0.5 -120.5t1 -102l-57.5 -8.5t-61.5 -7.5t-61.5 -4.5t-57.5 0.5q-7 65 -9.5 115.5t-3.5 97t0 94t1 105.5q-42 4 -83 -0.5t-80 -7.5q-2 36 1.5 77
t14.5 79q14 6 48.5 10t100.5 7q0 18 0.5 40t1.5 45t2.5 45.5t4.5 40.5q27 10 60.5 16t67 9t65 3.5t54.5 0.5v-37t-0.5 -53.5l-1 -57t-0.5 -46.5q64 1 113 -0.5t65 -4.5zM745 824l-73 -96t-75 -77q-26 -1 -59.5 1.5t-58.5 10.5q14 22 26 47.5t21.5 50.5t16.5 47l12 37
q54 6 101.5 0.5t88.5 -21.5z" />
    <glyph glyph-name="Tbar" unicode="&#x166;" horiz-adv-x="723" 
d="M610 273q-29 -2 -59.5 -2.5t-61.5 -1.5q-3 -75 -5 -145t-1 -118q-60 -11 -121 -20.5t-121 -4.5q-7 83 -10 151t-4 131l-41.5 -2t-40.5 -3q-8 19 -10.5 41.5t-1 44t5.5 40t10 30.5q14 1 34 1.5t44 1.5q0 30 0.5 61.5t0.5 65.5q-23 2 -49 1.5t-52.5 -2t-52 -4.5t-46.5 -5
q-2 48 2 101.5t16 103.5q14 7 62.5 12.5t115 9.5t141.5 6t142 2.5t117.5 -1.5t67.5 -5q2 -20 1.5 -44.5t-2 -49.5t-4 -47.5t-5.5 -37.5q-42 -6 -84 -9l-85 -6q-4 -21 -8 -60t-7 -90q33 0 60.5 -0.5t46.5 -2.5q3 -12 5.5 -31.5t3.5 -40.5t0.5 -40t-4.5 -31z" />
    <glyph glyph-name="tbar" unicode="&#x167;" horiz-adv-x="651" 
d="M543 200q-26 -2 -52.5 -2.5t-53.5 -1.5q-1 -54 -0.5 -104.5t1.5 -86.5l-57.5 -8.5t-61.5 -7.5t-61.5 -4.5t-57.5 0.5q-6 63 -9 112t-4 94q-23 -2 -44.5 -2.5t-43.5 -2.5q-8 18 -10 38.5t-1 40.5t5 37t10 28q15 1 36.5 1.5t47.5 0.5q1 16 1 32v33q-42 4 -83 -0.5t-80 -7.5
q-2 36 1.5 77t14.5 79q14 6 48.5 10t100.5 7q0 18 0.5 40t1.5 45t2.5 45.5t4.5 40.5q27 10 60.5 16t67 9t65 3.5t54.5 0.5v-37t-0.5 -53.5l-1 -57t-0.5 -46.5q64 1 113 -0.5t65 -4.5q2 -15 2 -33.5t-1.5 -37.5t-4 -36.5t-4.5 -28.5q-38 -5 -82.5 -7.5l-82.5 -4.5
q-3 -13 -4.5 -33.5l-3.5 -46.5q30 -1 55 -1.5t42 -1.5q3 -11 5.5 -29t3.5 -37.5t0 -37.5t-4 -28z" />
    <glyph glyph-name="Utilde" unicode="&#x168;" horiz-adv-x="779" 
d="M730 679q-1 -58 -2.5 -127t-2 -138.5l-1 -135t1.5 -116.5q-6 -17 -17 -37.5t-24.5 -41.5t-29 -41.5l-28.5 -36.5q-46 -1 -106.5 -4t-125.5 -5t-129.5 -2t-118.5 5q-11 11 -25 30.5l-28 41t-25.5 43t-16.5 36.5q0 28 -1 70.5t-2 91t-1.5 100.5t0 99t2 86t4.5 63
q65 8 124 9.5t128 -7.5q-5 -72 -7 -135t-1 -120t3.5 -110t5.5 -105q16 -7 39.5 -10t47.5 -1t45.5 9t35.5 20q0 54 -1 113t-1.5 118.5t-0.5 116.5t1 106q32 7 63.5 10t63.5 4t64.5 0.5t65.5 0.5zM633 853q-6 -7 -16 -20.5t-24 -30l-29.5 -34t-31.5 -31.5t-31.5 -22.5
t-28.5 -7.5q-21 2 -49 12.5t-54 21.5t-47 19t-29 5q-11 -4 -26.5 -18.5t-27.5 -30.5q-53 23 -69 50q11 20 26 42.5t32 43.5t35 37.5t36 24.5t38.5 3.5t42.5 -15t45.5 -24t48.5 -23.5q16 -7 32 0.5t30 18.5q16 13 30 32q20 -9 38 -22.5t29 -30.5z" />
    <glyph glyph-name="utilde" unicode="&#x169;" 
d="M657 611q-1 -33 -1.5 -82t-1.5 -105.5t-1.5 -117l-1 -116t0 -102t1.5 -75.5q-11 -6 -36.5 -11t-57 -8.5t-64 -5t-55.5 -0.5l-2 48q-58 -15 -134.5 -22l-161.5 -15q-10 9 -25.5 26l-31.5 36t-29.5 38t-18.5 32q0 24 1 61.5t3.5 82t6 91.5l7 90t7 78t6.5 55q19 7 48.5 12.5
t61.5 9t63 6t54 2.5q-5 -61 -8.5 -114.5t-5.5 -103.5t-3 -99.5t-1 -101.5q16 -2 37 -2t42 3t40 8.5t31 14.5q0 45 -0.5 94l-1 97.5t-0.5 95.5t1 88q57 12 117 14.5t114 -2.5zM611 806q-6 -7 -16 -20.5t-24 -30l-29.5 -34t-31.5 -31.5t-31.5 -22.5t-28.5 -7.5q-22 1 -50 12
l-54 22t-47 19t-29 5q-10 -4 -25.5 -19t-28.5 -30q-52 23 -68 50q11 20 26 42.5t32 43.5t35 37t36 24t38.5 3.5t42.5 -15t45.5 -23.5t47.5 -23q17 -7 33 0t30 18q16 13 30 32q20 -8 38 -21.5t29 -30.5z" />
    <glyph glyph-name="Umacron" unicode="&#x16a;" horiz-adv-x="779" 
d="M730 679q-1 -58 -2.5 -127t-2 -138.5l-1 -135t1.5 -116.5q-6 -17 -17 -37.5t-24.5 -41.5t-29 -41.5l-28.5 -36.5q-46 -1 -106.5 -4t-125.5 -5t-129.5 -2t-118.5 5q-11 11 -25 30.5l-28 41t-25.5 43t-16.5 36.5q0 28 -1 70.5t-2 91t-1.5 100.5t0 99t2 86t4.5 63
q65 8 124 9.5t128 -7.5q-5 -72 -7 -135t-1 -120t3.5 -110t5.5 -105q16 -7 39.5 -10t47.5 -1t45.5 9t35.5 20q0 54 -1 113t-1.5 118.5t-0.5 116.5t1 106q32 7 63.5 10t63.5 4t64.5 0.5t65.5 0.5zM609 733q-99 -5 -204.5 -5.5t-203.5 -9.5q-7 19 -9.5 41.5t-1 44t5 40
t8.5 30.5q20 1 52.5 2t70.5 2t79 1.5t78.5 0t69 -1t50.5 -2.5q3 -12 5 -31.5t3 -40.5t0.5 -40t-3.5 -31z" />
    <glyph glyph-name="umacron" unicode="&#x16b;" 
d="M657 611q-1 -33 -1.5 -82t-1.5 -105.5t-1.5 -117l-1 -116t0 -102t1.5 -75.5q-11 -6 -36.5 -11t-57 -8.5t-64 -5t-55.5 -0.5l-2 48q-58 -15 -134.5 -22l-161.5 -15q-10 9 -25.5 26l-31.5 36t-29.5 38t-18.5 32q0 24 1 61.5t3.5 82t6 91.5l7 90t7 78t6.5 55q19 7 48.5 12.5
t61.5 9t63 6t54 2.5q-5 -61 -8.5 -114.5t-5.5 -103.5t-3 -99.5t-1 -101.5q16 -2 37 -2t42 3t40 8.5t31 14.5q0 45 -0.5 94l-1 97.5t-0.5 95.5t1 88q57 12 117 14.5t114 -2.5zM558 670q-88 -5 -183.5 -5.5t-183.5 -8.5q-6 18 -8 38t-1 39.5t4 36t8 26.5q18 1 47 2t63 1.5
l71 1t71 0.5t62 -0.5t46 -2.5q2 -11 4 -28t3 -36t0.5 -36.5t-3.5 -27.5z" />
    <glyph glyph-name="Ubreve" unicode="&#x16c;" horiz-adv-x="779" 
d="M730 679q-1 -58 -2.5 -127t-2 -138.5l-1 -135t1.5 -116.5q-6 -17 -17 -37.5t-24.5 -41.5t-29 -41.5l-28.5 -36.5q-46 -1 -106.5 -4t-125.5 -5t-129.5 -2t-118.5 5q-11 11 -25 30.5l-28 41t-25.5 43t-16.5 36.5q0 28 -1 70.5t-2 91t-1.5 100.5t0 99t2 86t4.5 63
q65 8 124 9.5t128 -7.5q-5 -72 -7 -135t-1 -120t3.5 -110t5.5 -105q16 -7 39.5 -10t47.5 -1t45.5 9t35.5 20q0 54 -1 113t-1.5 118.5t-0.5 116.5t1 106q32 7 63.5 10t63.5 4t64.5 0.5t65.5 0.5zM621 861q-9 -20 -19 -35t-23.5 -29.5t-31 -28.5t-41.5 -30q-19 -13 -50 -18.5
t-63 -5.5t-60 5.5t-41 15.5q-21 15 -36.5 28.5t-29 27t-25.5 28.5l-26 33l45 10.5l45 10t36.5 6.5t19.5 1q6 -10 16.5 -20t21.5 -18.5t21.5 -13.5t15.5 -5q10 0 22.5 7t23.5 17t19.5 20t11.5 15q25 2 49 -0.5t44.5 -7t35 -8.5t19.5 -5z" />
    <glyph glyph-name="ubreve" unicode="&#x16d;" 
d="M657 611q-1 -33 -1.5 -82t-1.5 -105.5t-1.5 -117l-1 -116t0 -102t1.5 -75.5q-11 -6 -36.5 -11t-57 -8.5t-64 -5t-55.5 -0.5l-2 48q-58 -15 -134.5 -22l-161.5 -15q-10 9 -25.5 26l-31.5 36t-29.5 38t-18.5 32q0 24 1 61.5t3.5 82t6 91.5l7 90t7 78t6.5 55q19 7 48.5 12.5
t61.5 9t63 6t54 2.5q-5 -61 -8.5 -114.5t-5.5 -103.5t-3 -99.5t-1 -101.5q16 -2 37 -2t42 3t40 8.5t31 14.5q0 45 -0.5 94l-1 97.5t-0.5 95.5t1 88q57 12 117 14.5t114 -2.5zM559 785q-8 -18 -17.5 -31.5t-21.5 -26.5t-27.5 -25.5t-37.5 -27.5q-17 -12 -44.5 -17t-56.5 -5
t-54 5t-37 14q-19 14 -33 26t-26 24.5t-23 25.5t-24 30q19 4 40.5 9t40.5 8.5l33 6t18 1.5q5 -9 14.5 -18t19.5 -16.5t19 -12t14 -4.5q9 0 20 6.5t21.5 15t18 17.5t10.5 14q22 1 44 -1t40 -6t31 -7.5t18 -4.5z" />
    <glyph glyph-name="Uring" unicode="&#x16e;" horiz-adv-x="779" 
d="M730 679q-1 -58 -2.5 -127t-2 -138.5l-1 -135t1.5 -116.5q-6 -17 -17 -37.5t-24.5 -41.5t-29 -41.5l-28.5 -36.5q-46 -1 -106.5 -4t-125.5 -5t-129.5 -2t-118.5 5q-11 11 -25 30.5l-28 41t-25.5 43t-16.5 36.5q0 28 -1 70.5t-2 91t-1.5 100.5t0 99t2 86t4.5 63
q65 8 124 9.5t128 -7.5q-5 -72 -7 -135t-1 -120t3.5 -110t5.5 -105q16 -7 39.5 -10t47.5 -1t45.5 9t35.5 20q0 54 -1 113t-1.5 118.5t-0.5 116.5t1 106q32 7 63.5 10t63.5 4t64.5 0.5t65.5 0.5zM593 891q2 -20 1.5 -41.5t-2.5 -41.5t-6.5 -37.5t-10.5 -29.5
q-12 -12 -46.5 -21t-76.5 -14.5t-84.5 -6.5t-69.5 4q-14 2 -28.5 11.5t-26 21.5t-19 23.5t-7.5 17.5q-2 38 5 74.5t18 69.5q13 9 46 17.5t72 14t75.5 7.5t56.5 -1q11 -2 28 -9.5t33.5 -18t28.5 -21.5t13 -19zM460 839q0 18 -6 36h-8q-20 0 -41 -1.5t-39 -6.5
q-5 -17 -4.5 -32.5t0.5 -32.5v-8t1 -8q7 -1 13.5 -1.5t13.5 -0.5q17 0 35.5 2t32.5 9q1 11 1.5 22t0.5 22z" />
    <glyph glyph-name="uring" unicode="&#x16f;" 
d="M657 611q-1 -33 -1.5 -82t-1.5 -105.5t-1.5 -117l-1 -116t0 -102t1.5 -75.5q-11 -6 -36.5 -11t-57 -8.5t-64 -5t-55.5 -0.5l-2 48q-58 -15 -134.5 -22l-161.5 -15q-10 9 -25.5 26l-31.5 36t-29.5 38t-18.5 32q0 24 1 61.5t3.5 82t6 91.5l7 90t7 78t6.5 55q19 7 48.5 12.5
t61.5 9t63 6t54 2.5q-5 -61 -8.5 -114.5t-5.5 -103.5t-3 -99.5t-1 -101.5q16 -2 37 -2t42 3t40 8.5t31 14.5q0 45 -0.5 94l-1 97.5t-0.5 95.5t1 88q57 12 117 14.5t114 -2.5zM546 830q1 -19 1 -39t-2.5 -39t-6 -35.5t-9.5 -28.5q-11 -11 -44 -19.5t-72.5 -14t-79.5 -6.5
t-66 4q-13 2 -26.5 11t-24 20.5t-17.5 22t-7 16.5q-2 37 4 71t17 65q12 9 43.5 17t68 13t71 7.5t53.5 -0.5q10 -2 26 -9.5t31.5 -17t27 -20.5t12.5 -18zM421 781q0 17 -6 35h-8q-18 0 -38 -1.5t-37 -6.5q-5 -16 -4.5 -31t0.5 -31q0 -10 1 -15q6 -1 12.5 -1h13.5
q16 0 33.5 1.5t30.5 7.5q0 11 1 21t1 21z" />
    <glyph glyph-name="Uhungarumlaut" unicode="&#x170;" horiz-adv-x="779" 
d="M730 679q-1 -58 -2.5 -127t-2 -138.5l-1 -135t1.5 -116.5q-6 -17 -17 -37.5t-24.5 -41.5t-29 -41.5l-28.5 -36.5q-46 -1 -106.5 -4t-125.5 -5t-129.5 -2t-118.5 5q-11 11 -25 30.5l-28 41t-25.5 43t-16.5 36.5q0 28 -1 70.5t-2 91t-1.5 100.5t0 99t2 86t4.5 63
q65 8 124 9.5t128 -7.5q-5 -72 -7 -135t-1 -120t3.5 -110t5.5 -105q16 -7 39.5 -10t47.5 -1t45.5 9t35.5 20q0 54 -1 113t-1.5 118.5t-0.5 116.5t1 106q32 7 63.5 10t63.5 4t64.5 0.5t65.5 0.5zM431 879q-22 -46 -46 -91.5t-50 -74.5q-23 -3 -51 -2.5t-51 6.5q8 21 13.5 45
t9.5 47t6 44t4 35q45 8 86.5 5.5t78.5 -14.5zM656 866l-71 -84t-71 -67q-23 -1 -52.5 1t-50.5 10q14 19 26 42t22 45t17.5 41.5t13.5 32.5q97 9 166 -21z" />
    <glyph glyph-name="uhungarumlaut" unicode="&#x171;" 
d="M657 611q-1 -33 -1.5 -82t-1.5 -105.5t-1.5 -117l-1 -116t0 -102t1.5 -75.5q-11 -6 -36.5 -11t-57 -8.5t-64 -5t-55.5 -0.5l-2 48q-58 -15 -134.5 -22l-161.5 -15q-10 9 -25.5 26l-31.5 36t-29.5 38t-18.5 32q0 24 1 61.5t3.5 82t6 91.5l7 90t7 78t6.5 55q19 7 48.5 12.5
t61.5 9t63 6t54 2.5q-5 -61 -8.5 -114.5t-5.5 -103.5t-3 -99.5t-1 -101.5q16 -2 37 -2t42 3t40 8.5t31 14.5q0 45 -0.5 94l-1 97.5t-0.5 95.5t1 88q57 12 117 14.5t114 -2.5zM403 808q-20 -42 -41.5 -83t-45.5 -67q-20 -2 -45.5 -1.5t-45.5 5.5q7 19 12 40.5t8.5 42.5
t5.5 39.5t4 31.5q79 15 148 -8zM606 796l-64.5 -75.5t-64.5 -60.5q-21 -1 -47 1.5t-45 8.5q12 18 23 38t20 40t16 38l12 30q86 8 150 -20z" />
    <glyph glyph-name="Uogonek" unicode="&#x172;" horiz-adv-x="779" 
d="M616 -90q0 -6 -0.5 -20t-2.5 -29t-5 -27.5t-7 -16.5q-32 0 -70 1t-77 4t-76 10t-66 19q-15 23 -19 51t-4 54v20t1 18q-38 0 -74.5 1t-68.5 4q-11 11 -25 30.5l-28 41t-25.5 43t-16.5 36.5q0 28 -1 70.5t-2 91t-1.5 100.5t0 99t2 86t4.5 63q65 8 124 9.5t128 -7.5
q-5 -72 -7 -135t-1 -120t3.5 -110t5.5 -105q16 -7 39.5 -10t47.5 -1t45.5 9t35.5 20q0 54 -1 113t-1.5 118.5t-0.5 116.5t1 106q32 7 63.5 10t63.5 4t64.5 0.5t65.5 0.5q-1 -58 -2.5 -127t-2 -138.5l-1 -135t1.5 -116.5q-6 -17 -17 -37.5t-24.5 -41.5t-29 -41.5l-28.5 -36.5
q-34 -1 -75.5 -2.5t-87.5 -3.5v-12q0 -21 9 -40q11 -8 29.5 -13.5t39 -8.5t40.5 -5t34 -4v-6z" />
    <glyph glyph-name="uogonek" unicode="&#x173;" 
d="M610 -76q0 -6 -0.5 -18.5t-2 -26t-4.5 -24.5t-7 -15q-29 0 -63.5 1t-69.5 4t-68 9t-59 17q-14 20 -17.5 45.5t-3.5 48.5q0 26 3 50q-42 -5 -85.5 -8.5l-90.5 -7.5q-10 9 -25.5 26l-31.5 36t-29.5 38t-18.5 32q0 24 1 61.5t3.5 82t6 91.5l7 90t7 78t6.5 55q19 7 48.5 12.5
t61.5 9t63 6t54 2.5q-5 -61 -8.5 -114.5t-5.5 -103.5t-3 -99.5t-1 -101.5q16 -2 37 -2t42 3t40 8.5t31 14.5q0 45 -0.5 94l-1 97.5t-0.5 95.5t1 88q57 12 117 14.5t114 -2.5q-1 -33 -1.5 -82t-1.5 -105.5t-1.5 -117l-1 -116t0 -102t1.5 -75.5q-9 -5 -29 -9.5t-45.5 -7.5
t-53.5 -5t-52 -3q2 -18 8 -31q10 -7 26.5 -12t35.5 -8t37 -5t30 -3v-5z" />
    <glyph glyph-name="Wcircumflex" unicode="&#x174;" horiz-adv-x="1046" 
d="M1029 697q-3 -53 -9.5 -116t-16 -129.5t-20.5 -132.5l-21.5 -125.5l-20 -109.5l-16.5 -84q-86 -6 -159.5 -9t-155.5 -2q-2 7 -5 26.5t-7.5 45.5l-10 56t-10 57l-8.5 49t-7 32h-43l-13.5 -48l-18.5 -66l-20.5 -76l-20.5 -79q-44 -4 -81 -5t-72 -1t-70 2t-74 4
q-20 86 -35 172t-28 172.5l-26 172.5t-29 173q57 9 116.5 13.5t124.5 -6.5q15 -73 27.5 -145.5l24.5 -145.5h27q12 30 24.5 69.5l24.5 80.5l23.5 80l20.5 68q56 5 113 7.5t111 -7.5l45 -133l43 -135l36 -3q10 68 18.5 138l16.5 140q46 9 97 7t105 -7zM751 748
q-17 -2 -38.5 -4t-41 -4t-34 -3t-18.5 0l-14 24.5t-16.5 26.5l-15.5 24l-11 17q-2 2 -4.5 7t-7.5 5q-8 0 -12 -6t-6 -10l-28 -43.5t-24 -46.5q-23 -2 -45 -2t-40.5 0.5t-31.5 2t-18 3.5q8 22 20 48l25.5 53.5t29 55t30.5 51.5q15 2 41 3t54 1.5t52.5 0t36.5 -1.5l27 -48.5
l31 -53.5l31 -53z" />
    <glyph glyph-name="wcircumflex" unicode="&#x175;" horiz-adv-x="952" 
d="M926 626q-2 -45 -8.5 -101.5t-14.5 -117.5t-18 -123t-20 -117.5l-18.5 -101.5t-14.5 -74q-78 -5 -148 -7.5t-145 -1.5q-2 9 -8 40l-12.5 67.5t-13 69.5t-9.5 46h-39q-5 -15 -12 -40l-16 -55.5l-18.5 -64l-18.5 -66.5q-39 -3 -71 -4t-61.5 -1t-59.5 1t-66 3
q-37 147 -67.5 307.5t-38.5 323.5q51 8 100 16.5t107 -0.5q5 -93 19.5 -164t25.5 -132l29 1q10 28 21 68l21.5 82l20.5 80t18 61q50 5 101 6.5t100 -6.5q10 -29 20.5 -65l21 -73.5l20.5 -74.5t20 -68l30 5q4 28 8.5 64.5t8.5 75l8 75.5l7 66q42 8 92 6.5t99 -6.5zM688 680
q-17 -2 -38.5 -4t-41 -4t-34 -3t-18.5 0l-14 24.5t-16.5 26.5l-15.5 23.5l-11 16.5q-2 2 -4.5 7t-7.5 5q-7 0 -11.5 -6t-6.5 -9l-27.5 -44t-24.5 -47q-23 -2 -45 -2t-40.5 0.5t-31.5 2t-18 3.5q8 22 20 48l25.5 53.5t29 55t31.5 51.5q15 2 41 3t53.5 1.5t52 0t37.5 -1.5
l27 -48.5l30.5 -53.5l30.5 -52.5z" />
    <glyph glyph-name="Ycircumflex" unicode="&#x176;" horiz-adv-x="771" 
d="M749 685q-29 -43 -60.5 -96.5l-64.5 -110.5l-66.5 -113.5l-64.5 -105.5q-1 -69 -2.5 -133.5t-3.5 -120.5q-27 -5 -56.5 -6.5t-59.5 -1.5t-59.5 1.5t-56.5 1.5q0 67 -2 134l-4 134q-18 21 -39.5 54l-44 71t-44.5 80t-40.5 81t-32 73t-19.5 58q31 2 70 5l74.5 5.5t62.5 3.5
t34 -1q1 -6 8 -22t17.5 -37.5l23.5 -46l26 -48t25.5 -42.5t22.5 -29q9 8 21 25.5t24.5 39.5l26 46l25 46l21 40l14.5 27q41 3 78 2t66.5 -3t50 -5.5t29.5 -5.5zM611 748q-17 -2 -38.5 -4t-41 -4t-34 -3t-18.5 0l-14 24.5t-16.5 26.5l-15.5 24l-11 17q-2 2 -4.5 7t-7.5 5
q-8 0 -12 -6t-6 -10l-28 -43.5t-24 -46.5q-23 -2 -45 -2t-40.5 0.5t-31.5 2t-18 3.5q8 22 20 48l25.5 53.5t29 55t30.5 51.5q15 2 41 3t54 1.5t52.5 0t36.5 -1.5l27 -48.5l31 -53.5l31 -53z" />
    <glyph glyph-name="ycircumflex" unicode="&#x177;" horiz-adv-x="694" 
d="M667 625l-37 -85.5l-42 -89.5l-51 -101l-64 -118q-1 -28 -2.5 -50.5t-3.5 -48.5t-4 -60.5l-5 -85.5q-9 -5 -37.5 -8t-61 -5t-62 -2t-41.5 1q-3 47 -5 82t-3.5 64t-1.5 55v55q-33 40 -69 93t-67.5 104.5t-54.5 94t-29 61.5q27 12 55.5 18t57 8.5t58.5 3t60 1.5
q3 -8 11 -25.5t20.5 -41.5l28.5 -53t35 -59q13 29 25 53l23 45.5l21 42.5l20 43q21 4 48 7.5t57 5t61 1t60 -5.5zM558 680q-17 -2 -38.5 -4t-41 -4t-34 -3t-18.5 0l-14 24.5t-16.5 26.5l-15.5 23.5l-11 16.5q-2 2 -4.5 7t-7.5 5q-7 0 -11.5 -6t-6.5 -9l-27.5 -44t-24.5 -47
q-23 -2 -45 -2t-40.5 0.5t-31.5 2t-18 3.5q8 22 20 48l25.5 53.5t29 55t31.5 51.5q15 2 41 3t53.5 1.5t52 0t37.5 -1.5l27 -48.5l30.5 -53.5l30.5 -52.5z" />
    <glyph glyph-name="Ydieresis" unicode="&#x178;" horiz-adv-x="734" 
d="M749 685q-29 -43 -60.5 -96.5l-64.5 -110.5l-66.5 -113.5l-64.5 -105.5q-1 -69 -2.5 -133.5t-3.5 -120.5q-27 -5 -56.5 -6.5t-59.5 -1.5t-59.5 1.5t-56.5 1.5q0 67 -2 134l-4 134q-18 21 -39.5 54l-44 71t-44.5 80t-40.5 81t-32 73t-19.5 58q31 2 70 5l74.5 5.5t62.5 3.5
t34 -1q1 -6 8 -22t17.5 -37.5l23.5 -46l26 -48t25.5 -42.5t22.5 -29q9 8 21 25.5t24.5 39.5l26 46l25 46l21 40l14.5 27q41 3 78 2t66.5 -3t50 -5.5t29.5 -5.5zM579 836q0 -14 -2 -27.5t-5 -27.5q-3 -12 -17 -20t-30.5 -12.5t-32.5 -6t-24 -1.5q-6 0 -16.5 5t-20 14
t-16.5 21.5t-7 26.5q0 25 4.5 51.5t16.5 38.5q7 7 19.5 12t26 8t25.5 4.5t17 1.5q11 0 22 -9.5t20 -23t14.5 -28.5t5.5 -27zM332 830q0 -14 -2 -28t-5 -28q-4 -12 -18 -20t-31 -12.5t-33.5 -6t-25.5 -1.5q-7 0 -17.5 5t-20.5 14t-17.5 21.5t-7.5 26.5q0 26 5 52.5t17 39.5
q7 7 20.5 12t27.5 8t26.5 4.5t17.5 1.5q11 0 22.5 -9.5t20.5 -23t15 -29t6 -27.5z" />
    <glyph glyph-name="Zacute" unicode="&#x179;" horiz-adv-x="620" 
d="M580 132q3 -34 -0.5 -68t-11.5 -69q-63 -9 -131 -12t-134 -3t-128.5 2t-114.5 5q-7 18 -13 39t-10.5 42t-6 40t0.5 32l78 108l79.5 114.5l70.5 106t50 82.5q-31 1 -63.5 0t-65 -1.5t-65 0.5t-62.5 6q-11 35 -13.5 69.5t-0.5 72.5q40 2 103 7.5t135 8.5t147.5 0t140.5 -18
q1 -17 2.5 -37.5t2.5 -42.5t0.5 -42.5t-3.5 -37.5q-32 -62 -64.5 -114t-65 -99l-65 -92l-64.5 -92q27 -3 63 -3.5t73.5 -0.5h73t62.5 -3zM520 930l-74 -95t-75 -77q-26 -1 -59 1t-58 10q14 22 25.5 48t21 50.5t17 47l12.5 37.5q54 5 101.5 0t88.5 -22z" />
    <glyph glyph-name="zacute" unicode="&#x17a;" horiz-adv-x="547" 
d="M512 121q3 -29 0 -66t-11 -67q-56 -8 -115.5 -11t-117.5 -3t-113 2t-101 5q-6 15 -11.5 33t-9.5 36t-6 34.5t0 28.5l68.5 94.5l70.5 101.5l62.5 94.5t44.5 72.5q-55 2 -113.5 -1t-112.5 5q-10 29 -12.5 67.5t-0.5 70.5q36 5 91.5 10.5t119.5 7t130 -2.5t124 -17
q1 -14 2 -32l2 -36.5t0.5 -36.5t-3.5 -33q-28 -53 -56.5 -99l-57.5 -89l-57.5 -83l-56.5 -81q24 -2 55.5 -2.5t65 0t65 0t54.5 -2.5zM457 852l-73 -95t-75 -77q-26 -1 -59 1t-58 10q14 22 25.5 48t21 50.5t16.5 47l12 37.5q110 11 190 -22z" />
    <glyph glyph-name="Zdotaccent" unicode="&#x17b;" horiz-adv-x="620" 
d="M580 132q3 -34 -0.5 -68t-11.5 -69q-63 -9 -131 -12t-134 -3t-128.5 2t-114.5 5q-7 18 -13 39t-10.5 42t-6 40t0.5 32l78 108l79.5 114.5l70.5 106t50 82.5q-31 1 -63.5 0t-65 -1.5t-65 0.5t-62.5 6q-11 35 -13.5 69.5t-0.5 72.5q40 2 103 7.5t135 8.5t147.5 0t140.5 -18
q1 -17 2.5 -37.5t2.5 -42.5t0.5 -42.5t-3.5 -37.5q-32 -62 -64.5 -114t-65 -99l-65 -92l-64.5 -92q27 -3 63 -3.5t73.5 -0.5h73t62.5 -3zM408 832q0 -24 -8 -46q-3 -11 -17 -17.5t-31 -10t-33 -5t-25 -1.5q-6 0 -16.5 4.5t-20.5 12t-17 17.5t-7 22q0 21 5 43.5t17 33.5
q7 6 20 10t27 6.5t26 3.5t17 1q11 0 22 -8t20 -19t15 -24t6 -23z" />
    <glyph glyph-name="zdotaccent" unicode="&#x17c;" horiz-adv-x="547" 
d="M512 121q3 -29 0 -66t-11 -67q-56 -8 -115.5 -11t-117.5 -3t-113 2t-101 5q-6 15 -11.5 33t-9.5 36t-6 34.5t0 28.5l68.5 94.5l70.5 101.5l62.5 94.5t44.5 72.5q-55 2 -113.5 -1t-112.5 5q-10 29 -12.5 67.5t-0.5 70.5q36 5 91.5 10.5t119.5 7t130 -2.5t124 -17
q1 -14 2 -32l2 -36.5t0.5 -36.5t-3.5 -33q-28 -53 -56.5 -99l-57.5 -89l-57.5 -83l-56.5 -81q24 -2 55.5 -2.5t65 0t65 0t54.5 -2.5zM360 746q0 -11 -2 -21.5t-5 -20.5q-3 -9 -15.5 -15t-27.5 -9.5t-30 -4.5t-22 -1q-6 0 -15.5 4t-18 10.5t-15 15.5t-6.5 20q0 19 4 39.5
t15 29.5q6 5 17.5 8.5t24.5 6t24 3.5t16 1q10 0 20 -7t18 -17t13 -21.5t5 -20.5z" />
    <glyph glyph-name="Zcaron" unicode="&#x17d;" horiz-adv-x="620" 
d="M116 859q17 1 38.5 3.5t41 4.5t34 3t18.5 0l14 -24.5t16.5 -26.5l15.5 -23.5l11 -16.5q2 -2 4.5 -7t7.5 -5q8 0 12 6l6 9l28 44t24 47q22 2 44.5 2t41 -0.5t31.5 -2.5t18 -3q-12 -33 -31.5 -74t-42.5 -82q31 -2 60 -6.5t57 -10.5q1 -17 2.5 -37.5t2.5 -42.5t0.5 -42.5
t-3.5 -37.5q-32 -62 -64.5 -114t-65 -99l-65 -92l-64.5 -92q27 -3 63 -3.5t73.5 -0.5h73t62.5 -3q3 -34 -0.5 -68t-11.5 -69q-63 -9 -131 -12t-134 -3t-128.5 2t-114.5 5q-7 18 -13 39t-10.5 42t-6 40t0.5 32l78 108l79.5 114.5l70.5 106t50 82.5q-31 1 -63.5 0t-65 -1.5
t-65 0.5t-62.5 6q-11 35 -13.5 69.5t-0.5 72.5q30 1 72 4.5l92 7.5l-45 78.5t-42 70.5z" />
    <glyph glyph-name="zcaron" unicode="&#x17e;" horiz-adv-x="547" 
d="M512 121q3 -29 0 -66t-11 -67q-56 -8 -115.5 -11t-117.5 -3t-113 2t-101 5q-6 15 -11.5 33t-9.5 36t-6 34.5t0 28.5l68.5 94.5l70.5 101.5l62.5 94.5t44.5 72.5q-55 2 -113.5 -1t-112.5 5q-10 29 -12.5 67.5t-0.5 70.5q36 5 91.5 10.5t119.5 7t130 -2.5t124 -17
q1 -14 2 -32l2 -36.5t0.5 -36.5t-3.5 -33q-28 -53 -56.5 -99l-57.5 -89l-57.5 -83l-56.5 -81q24 -2 55.5 -2.5t65 0t65 0t54.5 -2.5zM102 843q15 1 34 3t37 3.5t31.5 2.5t16.5 0q5 -9 12 -20.5t14.5 -22.5l14 -20t9.5 -14q2 -2 4 -6t7 -4q7 0 11 5.5t6 7.5l24.5 37t22.5 39
q20 2 40 2t36.5 -0.5t28 -2t16.5 -2.5q-15 -37 -41 -85.5t-54 -89.5q-14 -2 -37.5 -3t-48 -1t-47 0.5t-33.5 0.5l-24.5 41l-27.5 45l-27.5 44.5z" />
    <glyph glyph-name="longs" unicode="&#x17f;" horiz-adv-x="562" 
d="M73 2q-5 30 -6 84.5t-0.5 121.5t3.5 139.5t6.5 138.5t7 118.5t6.5 78.5q15 24 50 41.5t79.5 30t93.5 19.5t92.5 9.5t77.5 0t47 -8.5q2 -18 5 -53t-5 -79q-30 -1 -58 -1.5t-56 -3.5t-55 -9t-55 -18q-6 -19 -9 -61t-5 -97t-2 -117t1.5 -122t4 -113t6.5 -88
q-20 -5 -46.5 -9.5t-57 -6.5t-63 -1.5t-62.5 6.5z" />
    <glyph glyph-name="florin" unicode="&#x192;" horiz-adv-x="629" 
d="M601 643q-48 -8 -86 -16t-66 -33q-7 -17 -11 -54t-6 -86q23 -1 41.5 -1.5t31.5 -2.5q3 -14 5 -36.5t3 -47t0.5 -47t-3.5 -36.5q-20 -2 -40.5 -2.5t-41.5 -1.5q-1 -76 -3 -144.5t-9 -110.5q-15 -12 -45.5 -22.5t-69 -18.5t-79.5 -13.5t-77.5 -7t-64 0.5t-37.5 8
q-2 19 -4 55.5t4 82.5q22 1 40 2t35 4t34 9.5t38 18.5q1 26 0 58.5t-2 70.5q-24 -2 -47.5 -3.5t-46.5 -3.5q-7 23 -9.5 49.5t-1 51.5t5 46.5t8.5 35.5q16 1 39 2t50 2q0 42 2.5 82t7 75.5t12 64.5t19.5 49q39 19 84 30t91.5 16t92 6t86.5 2q5 -5 9 -20.5t6.5 -35t3.5 -40.5
t1 -38z" />
    <glyph glyph-name="uni0218" unicode="&#x218;" horiz-adv-x="664" 
d="M611 618q-69 -11 -137 -17.5t-136 -20.5q-14 -24 -18 -52t-5 -57q74 -15 147 -27.5t147 -26.5q14 -36 17 -83t-2.5 -95.5t-18 -94t-29.5 -78.5q-54 -23 -117 -40.5t-127.5 -30.5t-127.5 -21t-116 -13q-8 17 -13.5 44.5t-9.5 55.5t-5.5 52.5t-0.5 36.5q34 2 74.5 7.5
t78.5 13t70 16.5t49 18q4 13 6 32.5t0 36.5q-10 8 -32 13.5t-51 10t-61.5 9t-63.5 10t-56.5 12.5t-40.5 18q-4 96 11.5 191t51.5 180q117 47 247 65.5t253 13.5q12 -39 14.5 -88t1.5 -91zM510 -60l-74 -95t-75 -77q-26 -1 -59 1t-58 10q14 22 25.5 48t21 50.5t17 47
l12.5 37.5q54 5 101.5 0t88.5 -22z" />
    <glyph glyph-name="uni0219" unicode="&#x219;" horiz-adv-x="618" 
d="M560 502q-62 -9 -123.5 -13.5t-122.5 -15.5q-12 -18 -15.5 -41.5t-4.5 -45.5q66 -11 132 -30.5t132 -30.5q13 -27 17 -63t1 -73.5t-13 -72t-25 -59.5q-51 -24 -107 -40.5t-113 -28t-115 -19.5t-113 -14q-7 4 -12 24t-9 43.5t-5.5 45.5t-0.5 31q31 1 67 5.5t70.5 10
t63.5 12.5t44 14q3 10 5 27t0 30q-13 9 -50 17l-80 16.5t-83.5 18.5t-60.5 22q-2 36 1 76t10 80.5t18.5 79t27.5 70.5q105 35 222 49.5t227 10.5q11 -30 13.5 -67t1.5 -69zM466 -65l-66 -86t-68 -69q-23 -1 -53 1t-52 9q12 20 22.5 43t19 45.5t15 42.5t11.5 34q96 9 171 -20
z" />
    <glyph glyph-name="uni021A" unicode="&#x21a;" horiz-adv-x="723" 
d="M692 763q2 -20 1.5 -44.5t-2 -49.5t-4 -47.5t-5.5 -37.5q-42 -6 -84 -9l-85 -6q-4 -21 -8 -60.5t-7.5 -90t-6.5 -107.5t-5 -112.5t-3 -106t0 -86.5q-60 -11 -121 -20.5t-121 -4.5q-7 85 -10 155t-4 135t0 130.5t1 142.5q-23 2 -49 1.5t-52.5 -2t-52 -4.5t-46.5 -5
q-2 48 2 101.5t16 103.5q14 7 62.5 12.5t115 9.5t141.5 6t142 2.5t117.5 -1.5t67.5 -5zM490 -80l-74 -95t-75 -77q-26 -1 -59 1t-58 10q14 22 25.5 48t21 50.5t17 47l12.5 37.5q54 5 101.5 0t88.5 -22z" />
    <glyph glyph-name="uni021B" unicode="&#x21b;" horiz-adv-x="651" 
d="M622 563q2 -15 2 -33.5t-1.5 -37.5t-4 -36.5t-4.5 -28.5q-38 -5 -82.5 -7.5l-82.5 -4.5q-5 -24 -8 -75.5t-3.5 -112t-0.5 -120.5t1 -102l-57.5 -8.5t-61.5 -7.5t-61.5 -4.5t-57.5 0.5q-7 65 -9.5 115.5t-3.5 97t0 94t1 105.5q-42 4 -83 -0.5t-80 -7.5q-2 36 1.5 77
t14.5 79q14 6 48.5 10t100.5 7q0 18 0.5 40t1.5 45t2.5 45.5t4.5 40.5q27 10 60.5 16t67 9t65 3.5t54.5 0.5v-37t-0.5 -53.5l-1 -57t-0.5 -46.5q64 1 113 -0.5t65 -4.5zM426 -65l-66 -86t-68 -69q-23 -1 -53 1t-52 9q12 20 22.5 43t19 45.5t15 42.5t11.5 34q96 9 171 -20z
" />
    <glyph glyph-name="uni0237" unicode="&#x237;" horiz-adv-x="345" 
d="M285 586q5 -30 6 -84.5t0.5 -121.5t-3.5 -139.5t-6.5 -138.5t-7 -118.5t-6.5 -78.5q-16 -24 -50.5 -41.5t-79 -30t-93.5 -19.5t-92.5 -9.5t-77 0t-47.5 8.5q-2 18 -5 53t5 79q29 1 57.5 1.5t56 3.5t55 9t55.5 18q5 19 8.5 61t5 97t1.5 117t-1 122t-4 113t-6 88
q19 5 46 9.5t57.5 7t63 1.5t62.5 -7z" />
    <glyph glyph-name="circumflex" unicode="&#x2c6;" horiz-adv-x="517" 
d="M472 552q-17 -2 -38.5 -4t-41 -4t-34 -3t-18.5 0l-14 24.5t-16.5 26.5l-15.5 23.5l-11 16.5q-2 2 -4.5 7t-7.5 5q-8 0 -12.5 -6t-6.5 -9l-27.5 -44t-23.5 -47q-23 -2 -45 -2t-40.5 0.5t-31.5 2t-18 3.5q8 22 20 48l25.5 54t29 55.5t30.5 51.5q15 2 41 3t54 1t52.5 -0.5
t36.5 -0.5l27 -49.5l31 -53.5l31 -52.5z" />
    <glyph glyph-name="caron" unicode="&#x2c7;" horiz-adv-x="651" 
d="M66 739q17 1 38.5 3.5t41 4.5t34 3t18.5 0l14 -24.5t16.5 -26.5l15.5 -23.5l11 -16.5q2 -2 4.5 -7t7.5 -5q8 0 12 6l6 9l28 44t24 47q22 2 44.5 2t41 -0.5t31.5 -2.5t18 -3q-8 -22 -20 -48l-25.5 -53.5t-29 -55t-30.5 -51.5q-15 -2 -41 -3t-54 -1.5t-52.5 0t-36.5 1.5
l-27 48.5l-31 53.5l-31 52.5z" />
    <glyph glyph-name="uni02C9" unicode="&#x2c9;" horiz-adv-x="812" 
d="M619 763q-99 -5 -204.5 -5.5t-203.5 -9.5q-7 19 -9.5 41.5t-1 44t5 40t8.5 30.5q20 1 52.5 2t70.5 2t79 1.5t78.5 0t69 -1t50.5 -2.5q3 -12 5 -31.5t3 -40.5t0.5 -40t-3.5 -31z" />
    <glyph glyph-name="breve" unicode="&#x2d8;" horiz-adv-x="517" 
d="M491 721q-9 -20 -19 -35t-23.5 -29.5t-31 -28.5t-41.5 -30q-19 -13 -50 -18.5t-63 -5.5t-60 5.5t-41 15.5q-21 15 -36.5 28.5t-29 27t-25.5 28.5l-26 33l45 10.5l45 10t36.5 6.5t19.5 1q6 -10 16.5 -20t21.5 -18.5t21.5 -13.5t15.5 -5q10 0 22.5 7t23.5 17t19.5 20
t11.5 15q25 2 49 -0.5t44.5 -7t35 -8.5t19.5 -5z" />
    <glyph glyph-name="dotaccent" unicode="&#x2d9;" horiz-adv-x="354" 
d="M418 822q0 -24 -8 -46q-3 -11 -17 -17.5t-31 -10t-33 -5t-25 -1.5q-6 0 -16.5 4.5t-20.5 12t-17 17.5t-7 22q0 21 5 43.5t17 33.5q7 6 20 10t27 6.5t26 3.5t17 1q11 0 22 -8t20 -19t15 -24t6 -23z" />
    <glyph glyph-name="ring" unicode="&#x2da;" horiz-adv-x="438" 
d="M423 711q2 -20 1.5 -41.5t-2.5 -41.5t-6 -37.5t-10 -29.5q-12 -12 -47 -21t-77 -14.5t-84.5 -6.5t-69.5 4q-14 2 -28.5 11.5t-25.5 21.5t-18.5 23.5t-7.5 17.5q-2 38 4.5 74.5t17.5 69.5q13 9 46.5 17.5t72 14t75 7.5t56.5 -1q11 -2 28 -9.5t33.5 -18t28.5 -21.5t13 -19z
M291 659q0 9 -2 18l-4 18h-8q-20 0 -41.5 -1.5t-39.5 -6.5q-4 -17 -4 -32.5v-32.5q0 -4 0.5 -8t0.5 -8q7 -1 14 -1h14q17 0 35.5 2t32.5 8q0 11 1 22t1 22z" />
    <glyph glyph-name="ogonek" unicode="&#x2db;" horiz-adv-x="648" 
d="M526 -30q0 -6 -0.5 -20t-2.5 -29t-5 -27.5t-7 -16.5q-32 0 -70 1t-77 4t-76 10t-66 19q-15 23 -19 51t-4 54q0 28 2 50.5t4 50.5q16 11 33 15.5t34 6t34.5 1t34.5 -0.5q10 0 19.5 -0.5t18.5 -2.5q-1 -23 -3 -45t-2 -44q0 -21 9 -40q11 -8 29.5 -13.5t39 -8.5t40.5 -5
t34 -4v-6z" />
    <glyph glyph-name="tilde" unicode="&#x2dc;" horiz-adv-x="514" 
d="M493 694q-6 -7 -16 -20.5t-24 -30l-29.5 -34t-31.5 -31.5t-31.5 -22.5t-28.5 -7.5q-22 1 -49.5 12l-54 22l-47.5 19t-29 5q-10 -4 -25.5 -19t-28.5 -30q-52 23 -68 50q11 20 26 42.5t32 43.5t35 37t36 24t38.5 3.5t42.5 -15t45.5 -23.5t47.5 -23q17 -7 33 0.5t30 18.5
q16 13 30 32q20 -9 38 -22.5t29 -30.5z" />
    <glyph glyph-name="hungarumlaut" unicode="&#x2dd;" horiz-adv-x="462" 
d="M241 789q-22 -46 -46 -91.5t-50 -74.5q-23 -3 -51 -2.5t-51 6.5q8 21 13.5 45t9.5 47t6 44t4 35q45 8 86.5 5.5t78.5 -14.5zM466 776l-71 -84t-71 -67q-23 -1 -52.5 1t-50.5 10q14 19 26 42t22 45t17.5 41.5t13.5 32.5q97 9 166 -21z" />
    <glyph glyph-name="uni0394" unicode="&#x394;" horiz-adv-x="734" 
d="M710 1q-62 -7 -150 -12t-184.5 -6.5t-191.5 2t-169 12.5l37 118l40.5 137.5l41.5 145l40.5 141.5l36.5 127l30 102q58 3 121.5 2.5t121.5 -7.5q21 -50 42.5 -111l43 -128t42 -137.5t38.5 -138.5t33 -131zM434 180l-26 94l-26 93q-2 5 -4.5 13t-6.5 15.5t-9.5 13
t-11.5 5.5q-4 0 -7.5 -4.5t-6.5 -10.5t-4.5 -12.5l-2.5 -10.5q-2 -11 -7 -31l-12 -46.5l-15 -57.5l-17 -63q38 1 78 1.5t78 0.5z" />
    <glyph glyph-name="uni03A9" unicode="&#x3a9;" horiz-adv-x="821" 
d="M768 179q1 -15 0 -40.5t-3 -53t-5 -53t-5 -40.5q-27 -3 -63 -6t-73 -4.5t-72.5 -2t-61.5 1.5q-16 43 -25 87.5t-7 93.5q13 54 21.5 108.5t12 106.5t3.5 98.5t-4 85.5q-16 5 -36.5 8t-42.5 3t-44 -4t-41 -13q-5 -42 -6 -90.5t2 -99t10.5 -102t20.5 -99.5q0 -45 -4 -91
t-12 -81q-27 -3 -65 -5.5t-78.5 -4t-78.5 -1.5h-66q-4 25 -6.5 52t-3.5 52.5t-0.5 47.5t3.5 37q10 2 34 6t50 5q-16 30 -31.5 75t-27 100t-16 118.5t0.5 130.5q28 32 56.5 71t59.5 73q34 7 79 11.5t92.5 7.5t94.5 4t87.5 1h69.5t41 1q35 -32 68.5 -81.5t59.5 -93.5
q3 -143 -18 -249.5t-50 -166.5q27 0 48.5 -1t31.5 -3z" />
    <glyph glyph-name="uni03BC" unicode="&#x3bc;" horiz-adv-x="768" 
d="M716 762q6 -63 7 -133t-1 -140t-6 -135.5t-7 -119.5q-47 -26 -89.5 -40t-73.5 -19q-65 -3 -133 -7t-128 -4q-1 -27 -2 -46t-2.5 -36t-2.5 -36t-2 -46q-10 -6 -38 -10t-60 -6t-61.5 -2.5t-42.5 1.5q-11 184 -12.5 377t6.5 386q5 4 22.5 7t41 4.5t51 2t52.5 0.5t44.5 -0.5
t28.5 -1.5l-6.5 -94.5t-6.5 -100t-4 -99.5t1 -94q6 -5 28.5 -8t50.5 -3.5t55.5 1t42.5 5.5q4 27 7 76.5t3.5 106.5t0 113t-2.5 94q20 3 56.5 5t74 3t68.5 1t40 -2z" />
    <glyph glyph-name="pi" unicode="&#x3c0;" horiz-adv-x="647" 
d="M613 436q-10 -2 -26.5 -2h-38.5q-5 -209 -15 -418q-9 -5 -31.5 -8t-48.5 -5t-49.5 -2t-35.5 1q-6 100 -8 215.5t-1 223.5h-33.5t-23.5 -2q-6 -102 -6.5 -209t-0.5 -212q-35 -18 -84 -19.5t-94 4.5q-4 13 -6 43.5t-3.5 70.5t-2 86t-0.5 89.5v80.5v59q-17 2 -32.5 -1
t-40.5 -1q-10 45 -4.5 85l11.5 87q63 7 136.5 10.5t149 4t149.5 -2t139 -8.5q7 -47 9 -86.5t-9 -83.5z" />
    <glyph glyph-name="uni0401" unicode="&#x401;" horiz-adv-x="678" 
d="M634 560q-61 -3 -121.5 -1.5t-121.5 -4.5q-7 -9 -11 -27t-5.5 -39t0.5 -41.5t8 -33.5q4 -1 33 -0.5t65.5 1t72 0t51.5 -3.5q3 -26 5 -57.5t-2 -58.5q-27 -3 -56 -3.5t-57.5 -0.5t-57 -1.5t-55.5 -6.5q-6 -11 -8 -29.5t-1.5 -38.5t2.5 -39.5t5 -31.5q18 -5 50.5 -5.5t69 0
t71 1.5t57.5 -2q5 -33 6.5 -72.5t-8.5 -73.5q-66 -6 -129 -9.5t-127 -4t-131 2.5t-141 11q-6 63 -8 133t-2.5 142.5t1 145.5t3.5 141q-14 0 -32 0.5t-32 0.5q1 34 6 70t13 67q62 13 139 18t155.5 6t153.5 -1.5l132 -4.5q4 -12 6 -31.5t2.5 -41t0 -42.5t-1.5 -34zM571 846
q0 -26 -8 -55q-3 -12 -16.5 -20t-30 -12.5t-32.5 -6t-25 -1.5q-6 0 -16.5 5.5t-20 14.5t-16.5 21t-7 26q0 25 5 51.5t16 38.5q7 7 20 12t26.5 8t25.5 4.5t17 1.5q10 0 21 -9.5t20 -23t15 -28.5t6 -27zM324 840q0 -27 -8 -56q-3 -12 -17.5 -20t-31.5 -12.5t-33.5 -6
t-25.5 -1.5q-7 0 -17.5 5t-20.5 14t-17 21.5t-7 26.5q0 26 4.5 52.5t17.5 39.5q7 7 20 12t27.5 8t27 4.5t17.5 1.5q11 0 22.5 -9.5t20.5 -23t15 -29t6 -27.5z" />
    <glyph glyph-name="uni0402" unicode="&#x402;" horiz-adv-x="932" 
d="M499 442q92 -3 186.5 -14t175.5 -39q15 -18 23.5 -57t11 -89.5t-0.5 -107t-11.5 -109t-21.5 -96t-30 -68.5q-21 -11 -59 -21t-84 -18t-95.5 -13.5t-93.5 -8t-77.5 -1.5t-47.5 7l-2.5 23t-2.5 31t0 37t5 41q37 3 67 4.5t56.5 4t51.5 8t54 16.5q8 27 15.5 71t11 89
t1.5 84.5t-14 59.5q-18 11 -53.5 15.5t-73.5 6.5l-4 -81.5t-3 -78.5t-1 -72v-60q-60 -11 -121 -20.5t-121 -4.5q-7 85 -10 155t-4 135t0 130.5t1 142.5q-23 2 -49 1.5t-52.5 -2t-52 -4.5t-46.5 -5q-2 48 2 101.5t16 103.5q14 7 62.5 12.5t115 9.5t141.5 6t142 2.5
t117.5 -1.5t67.5 -5q2 -20 1.5 -44.5t-2 -49.5t-4 -47.5t-5.5 -37.5q-42 -6 -84 -9l-85 -6q-4 -19 -7 -52z" />
    <glyph glyph-name="uni0403" unicode="&#x403;" horiz-adv-x="605" 
d="M525 914l-73 -96t-75 -77q-26 -1 -59.5 1.5t-58.5 10.5q14 22 26 47.5t21.5 50.5t16.5 47l12 37q54 6 101.5 0.5t88.5 -21.5zM571 514q-31 1 -64.5 2.5t-67.5 1t-68 -4.5t-65 -13q0 -29 -0.5 -85t-0.5 -125t0.5 -143.5t2.5 -141.5q-11 -2 -32.5 -4.5t-48 -4t-55.5 -2.5
t-54 -1t-44 1.5t-26 4.5q-3 42 -3.5 99t0.5 120t3 129.5t4.5 128t4 114l2.5 89.5q40 5 87.5 8t97 5t99 2h93t78 -1t54.5 -2q8 -46 8 -88t-5 -89z" />
    </font>
</defs>
</svg>
